<svg width="234" height="170" viewBox="0 0 234 170" fill="none" xmlns="http://www.w3.org/2000/svg">
<path opacity="0.1" d="M16.4994 137.077C22.9204 137.077 28.1256 135.226 28.1256 132.943C28.1256 130.66 22.9204 128.81 16.4994 128.81C10.0785 128.81 4.87329 130.66 4.87329 132.943C4.87329 135.226 10.0785 137.077 16.4994 137.077Z" fill="black"/>
<path opacity="0.1" d="M204.321 154.168C210.742 154.168 215.947 152.317 215.947 150.034C215.947 147.751 210.742 145.9 204.321 145.9C197.9 145.9 192.695 147.751 192.695 150.034C192.695 152.317 197.9 154.168 204.321 154.168Z" fill="black"/>
<path d="M137.675 4.76154C119.982 11.5951 100.804 11.9129 82.9906 5.47977C57.7438 -3.63512 24.7721 -5.9681 12.5543 35.8007C-8.29782 107.162 34.3624 132.634 34.3624 132.634C34.3624 132.634 64.146 139.31 80.637 151.372C104.062 168.507 132.751 174.234 159.775 166.2C177.056 161.061 191.868 152.631 196.103 138.837C207.946 100.259 200.428 77.071 221.861 66.8994C243.294 56.7278 231.369 19.0462 216.125 18.191C200.882 17.3359 164.97 26.0761 153.861 8.69117C149.9 2.51898 143.842 2.37689 137.675 4.76154Z" fill="#EAF8F1"/>
<path d="M203.851 150.621C203.851 150.621 206.951 140.069 203.267 132.303C201.698 129.056 201.225 125.387 201.918 121.847C202.261 120.169 202.756 118.526 203.399 116.938" stroke="#535461" stroke-width="2"/>
<path d="M201.104 112.032C201.104 113.324 203.445 117.076 203.445 117.076C203.445 117.076 205.786 113.327 205.786 112.032C205.786 110.739 204.737 109.69 203.444 109.69C202.15 109.69 201.102 110.739 201.102 112.032H201.104Z" fill="#08E179"/>
<path d="M197.234 119.196C197.937 120.281 201.941 122.157 201.941 122.157C201.941 122.157 201.869 117.737 201.166 116.651C200.712 115.949 199.917 115.543 199.082 115.586C198.247 115.629 197.498 116.114 197.117 116.858C196.736 117.603 196.782 118.494 197.237 119.196H197.234Z" fill="#08E179"/>
<path d="M197.402 131.434C198.557 132.016 202.959 131.615 202.959 131.615C202.959 131.615 200.665 127.836 199.51 127.254C198.356 126.672 196.948 127.136 196.366 128.29C195.784 129.445 196.248 130.852 197.402 131.434Z" fill="#30BE76"/>
<path d="M199.616 140.669C200.65 141.444 205.062 141.785 205.062 141.785C205.062 141.785 203.44 137.672 202.401 136.905C201.362 136.136 199.896 136.355 199.127 137.394C198.357 138.434 198.577 139.9 199.616 140.669V140.669Z" fill="#08E179"/>
<path d="M206.855 122.407C205.928 123.309 201.605 124.242 201.605 124.242C201.605 124.242 202.665 119.95 203.592 119.049C204.52 118.148 206.002 118.169 206.903 119.097C207.804 120.024 207.783 121.506 206.855 122.407V122.407Z" fill="#30BE76"/>
<path d="M209.307 133.236C208.152 133.817 203.75 133.417 203.75 133.417C203.75 133.417 206.044 129.637 207.199 129.069C208.353 128.486 209.761 128.95 210.343 130.105C210.925 131.259 210.462 132.667 209.307 133.249V133.236Z" fill="#08E179"/>
<path d="M210.245 144.089C209.212 144.864 204.799 145.205 204.799 145.205C204.799 145.205 206.421 141.092 207.46 140.325C208.499 139.555 209.966 139.775 210.735 140.814C211.504 141.854 211.285 143.32 210.245 144.089V144.089Z" fill="#30BE76"/>
<path d="M16.5045 132.975C16.5045 132.975 23.1417 110.467 15.2643 93.8801C11.9573 86.9225 10.8722 79.1149 12.3888 71.5657C13.1199 67.9852 14.1776 64.4792 15.5485 61.0918" stroke="#535461" stroke-width="2"/>
<path d="M10.6476 50.6148C10.6476 53.3741 15.6443 61.378 15.6443 61.378C15.6443 61.378 20.6383 53.3689 20.6383 50.6148C20.6383 47.8552 18.4013 45.6182 15.6417 45.6182C12.8821 45.6182 10.645 47.8552 10.645 50.6148H10.6476Z" fill="#30BE76"/>
<path d="M2.38787 65.9017C3.88894 68.227 12.4329 72.2212 12.4329 72.2212C12.4329 72.2212 12.2778 62.7859 10.7768 60.471C9.24959 58.2282 6.21157 57.6141 3.93315 59.0877C1.65473 60.5612 0.968754 63.5838 2.38787 65.8966V65.9017Z" fill="#30BE76"/>
<path d="M2.74692 92.0275C5.21166 93.2702 14.6082 92.4124 14.6082 92.4124C14.6082 92.4124 9.69935 84.3465 7.24753 83.1115C5.65346 82.3076 3.75158 82.4151 2.2583 83.3936C0.765019 84.3722 -0.0927919 86.073 0.00799514 87.8555C0.108782 89.638 1.15286 91.2313 2.74692 92.0352V92.0275Z" fill="#08E179"/>
<path d="M7.462 111.732C9.6813 113.373 19.0881 114.114 19.0881 114.114C19.0881 114.114 15.6261 105.33 13.4042 103.697C11.1855 102.056 8.05655 102.525 6.41565 104.744C4.77474 106.963 5.24321 110.091 7.462 111.732Z" fill="#30BE76"/>
<path d="M22.9248 72.7464C20.9458 74.6686 11.7224 76.6606 11.7224 76.6606C11.7224 76.6606 13.9805 67.4992 15.9595 65.577C17.9393 63.6507 21.1058 63.6941 23.0321 65.6738C24.9583 67.6536 24.915 70.8201 22.9352 72.7464H22.9248Z" fill="#08E179"/>
<path d="M28.1564 95.8712C25.6917 97.1139 16.2952 96.2562 16.2952 96.2562C16.2952 96.2562 21.204 88.1902 23.6558 86.9553C25.2499 86.1513 27.1518 86.2589 28.645 87.2374C30.1383 88.2159 30.9961 89.9168 30.8953 91.6992C30.7946 93.4817 29.7505 95.075 28.1564 95.879V95.8712Z" fill="#30BE76"/>
<path d="M30.1589 119.036C27.9396 120.677 18.5327 121.418 18.5327 121.418C18.5327 121.418 21.9947 112.634 24.2166 111.001C26.4354 109.36 29.5643 109.829 31.2052 112.047C32.8461 114.266 32.3776 117.395 30.1589 119.036Z" fill="#08E179"/>
<path d="M97.9547 77.4535L83.5564 75.5882C82.9725 75.5133 82.523 75.2911 82.5385 75.0973V75.0973C82.5643 74.9035 83.0552 74.8131 83.652 74.8984L98.0193 76.9781C98.4146 77.035 98.7143 77.1848 98.6962 77.3166V77.3166C98.6781 77.4406 98.3474 77.5052 97.9547 77.4535Z" fill="#30BE76"/>
<path d="M98.0452 77.699L83.603 76.2057C83.0165 76.1463 82.5179 76.2548 82.4998 76.4486V76.4486C82.4817 76.6423 82.9493 76.8464 83.5332 76.8981L98.0013 78.1899C98.3992 78.2261 98.7247 78.1486 98.7376 78.0168V78.0168C98.748 77.8773 98.4405 77.7404 98.0452 77.699Z" fill="#30BE76"/>
<path d="M119.711 88.5629L134.107 86.6976C134.691 86.6226 135.14 86.4004 135.125 86.2067V86.2067C135.099 86.0129 134.608 85.9225 134.011 86.0077L119.644 88.0875C119.249 88.1444 118.949 88.2942 118.967 88.426V88.426C118.985 88.55 119.316 88.6146 119.711 88.5629Z" fill="#30BE76"/>
<path d="M119.618 88.8084L134.06 87.3151C134.647 87.2557 135.145 87.3642 135.163 87.5579V87.5579C135.181 87.7517 134.714 87.9558 134.13 88.0075L119.662 89.2993C119.264 89.3355 118.938 89.2579 118.926 89.1262V89.1262C118.915 88.9867 119.223 88.8497 119.618 88.8084Z" fill="#30BE76"/>
<rect x="68.5767" y="104.025" width="3.51109" height="50.3438" fill="#40414D"/>
<rect x="145.263" y="104.025" width="3.51109" height="50.3438" fill="#40414D"/>
<path d="M67.2359 99.9277H148.361C151.5 99.9277 154.044 102.472 154.044 105.612V106.366H61.552V105.612C61.552 102.472 64.0968 99.9277 67.2359 99.9277V99.9277Z" fill="#DFE6F5"/>
<path opacity="0.1" d="M66.9773 99.9277H148.102C151.241 99.9277 153.786 102.472 153.786 105.612V106.366H61.2935V105.612C61.2935 102.472 63.8382 99.9277 66.9773 99.9277V99.9277Z" fill="black"/>
<path d="M67.2359 98.7549H148.361C151.5 98.7549 154.044 101.3 154.044 104.439V105.193H61.552V104.439C61.552 101.3 64.0968 98.7549 67.2359 98.7549Z" fill="#DFE6F5"/>
<path d="M107.798 94.657C111.678 94.657 114.823 91.5119 114.823 87.6322C114.823 83.7525 111.678 80.6074 107.798 80.6074C103.919 80.6074 100.773 83.7525 100.773 87.6322C100.773 91.5119 103.919 94.657 107.798 94.657Z" fill="#FFD77C" stroke="#FFAB50"/>
<path d="M107.798 93.2007C110.873 93.2007 113.366 90.708 113.366 87.6331C113.366 84.5581 110.873 82.0654 107.798 82.0654C104.723 82.0654 102.23 84.5581 102.23 87.6331C102.23 90.708 104.723 93.2007 107.798 93.2007Z" fill="#FFD77C" stroke="#FFAB50"/>
<path d="M107.798 91.8751C110.141 91.8751 112.04 89.9758 112.04 87.6329C112.04 85.2899 110.141 83.3906 107.798 83.3906C105.455 83.3906 103.556 85.2899 103.556 87.6329C103.556 89.9758 105.455 91.8751 107.798 91.8751Z" fill="#FFD77C" stroke="#FFAB50"/>
<path d="M107.798 90.0173C109.115 90.0173 110.183 88.9497 110.183 87.6327C110.183 86.3157 109.115 85.248 107.798 85.248C106.481 85.248 105.414 86.3157 105.414 87.6327C105.414 88.9497 106.481 90.0173 107.798 90.0173Z" fill="#FFD77C" stroke="#FFAB50"/>
<path d="M103.701 98.4626C107.58 98.4626 110.725 95.3175 110.725 91.4379C110.725 87.5582 107.58 84.4131 103.701 84.4131C99.8209 84.4131 96.6758 87.5582 96.6758 91.4379C96.6758 95.3175 99.8209 98.4626 103.701 98.4626Z" fill="#FFD77C" stroke="#FFAB50"/>
<path d="M103.701 97.0064C106.776 97.0064 109.268 94.5136 109.268 91.4387C109.268 88.3638 106.776 85.8711 103.701 85.8711C100.626 85.8711 98.1331 88.3638 98.1331 91.4387C98.1331 94.5136 100.626 97.0064 103.701 97.0064Z" fill="#FFD77C" stroke="#FFAB50"/>
<path d="M103.701 95.6808C106.043 95.6808 107.943 93.7815 107.943 91.4385C107.943 89.0956 106.043 87.1963 103.701 87.1963C101.358 87.1963 99.4583 89.0956 99.4583 91.4385C99.4583 93.7815 101.358 95.6808 103.701 95.6808Z" fill="#FFD77C" stroke="#FFAB50"/>
<path d="M103.701 93.823C105.018 93.823 106.085 92.7554 106.085 91.4384C106.085 90.1214 105.018 89.0537 103.701 89.0537C102.384 89.0537 101.316 90.1214 101.316 91.4384C101.316 92.7554 102.384 93.823 103.701 93.823Z" fill="#FFD77C" stroke="#FFAB50"/>
<path d="M111.896 98.4626C115.775 98.4626 118.92 95.3175 118.92 91.4379C118.92 87.5582 115.775 84.4131 111.896 84.4131C108.016 84.4131 104.871 87.5582 104.871 91.4379C104.871 95.3175 108.016 98.4626 111.896 98.4626Z" fill="#FFD77C" stroke="#FFAB50"/>
<path d="M111.896 97.0064C114.971 97.0064 117.463 94.5136 117.463 91.4387C117.463 88.3638 114.971 85.8711 111.896 85.8711C108.821 85.8711 106.328 88.3638 106.328 91.4387C106.328 94.5136 108.821 97.0064 111.896 97.0064Z" fill="#FFD77C" stroke="#FFAB50"/>
<path d="M111.896 95.6808C114.239 95.6808 116.138 93.7815 116.138 91.4385C116.138 89.0956 114.239 87.1963 111.896 87.1963C109.553 87.1963 107.654 89.0956 107.654 91.4385C107.654 93.7815 109.553 95.6808 111.896 95.6808Z" fill="#FFD77C" stroke="#FFAB50"/>
<path d="M111.896 93.823C113.213 93.823 114.28 92.7554 114.28 91.4384C114.28 90.1214 113.213 89.0537 111.896 89.0537C110.579 89.0537 109.511 90.1214 109.511 91.4384C109.511 92.7554 110.579 93.823 111.896 93.823Z" fill="#FFD77C" stroke="#FFAB50"/>
<path d="M93.1621 89.3916H122.432V90.7661C122.432 93.5069 121.343 96.1355 119.405 98.0736C117.467 100.012 114.838 101.1 112.097 101.1H103.496C97.789 101.1 93.1621 96.4736 93.1621 90.7661V89.3916Z" fill="#08E179"/>
<path opacity="0.1" d="M119.791 89.3896C119.633 95.7385 114.441 100.803 108.09 100.804H102.28C103.127 100.998 103.994 101.096 104.863 101.098H110.718C113.824 101.1 116.803 99.8668 119 97.6709C121.197 95.4749 122.432 92.4959 122.432 89.3896L119.791 89.3896Z" fill="black"/>
<path d="M147.02 142.368V145.879H70.9174V142.368H147.02Z" fill="#40414D"/>
<rect x="39.3125" y="130.106" width="3.07188" height="27.9492" fill="#40414D"/>
<rect x="63.575" y="130.106" width="3.07188" height="27.9492" fill="#40414D"/>
<path d="M69.1063 125.5C69.1063 127.366 62.7817 128.88 54.9793 128.88C47.1768 128.88 41.1597 127.368 41.1597 125.5C41.1597 123.632 47.1768 122.121 54.9793 122.121C62.7817 122.121 69.1063 123.643 69.1063 125.5Z" fill="#F6C6CD"/>
<path d="M36.8555 125.498H69.1038V128.314C69.1038 129.812 67.8893 131.027 66.391 131.027H41.5059C38.9375 131.027 36.8555 128.945 36.8555 126.376V125.498H36.8555Z" fill="#40414D"/>
<path d="M31.379 93.1827L32.0444 93.0325C33.0187 92.8126 33.9868 93.4241 34.2067 94.3984L42.2608 130.079L41.2527 130.307C39.4906 130.704 37.7397 129.598 37.342 127.836L30.0081 95.3462C29.9023 94.8774 29.9874 94.3858 30.2446 93.9799C30.5018 93.574 30.91 93.2872 31.379 93.1827Z" fill="#40414D"/>
<rect x="176.798" y="158.552" width="3.07188" height="27.9492" transform="rotate(-180 176.798 158.552)" fill="#40414D"/>
<rect x="152.536" y="158.552" width="3.07188" height="27.9492" transform="rotate(-180 152.536 158.552)" fill="#40414D"/>
<path d="M147.009 125.996C147.009 127.862 153.334 129.376 161.136 129.376C168.939 129.376 174.956 127.864 174.956 125.996C174.956 124.129 168.936 122.609 161.136 122.609C153.336 122.609 147.009 124.131 147.009 125.996Z" fill="#F6C6CD"/>
<path d="M174.604 131.525H149.719C148.221 131.525 147.007 130.311 147.007 128.813V125.997H179.255V126.875C179.255 129.443 177.173 131.525 174.604 131.525Z" fill="#40414D"/>
<path d="M174.862 130.802L173.854 130.575L181.909 94.8891C182.129 93.9148 183.097 93.3033 184.072 93.5232L184.737 93.6734C185.711 93.8933 186.323 94.8614 186.103 95.8357L178.768 128.331C178.37 130.091 176.623 131.197 174.862 130.802Z" fill="#40414D"/>
<path d="M175.956 115.117L176.863 114.83C176.863 114.83 175.312 104.475 175.328 95.1949C175.328 94.9366 175.328 94.6601 175.328 94.394C175.346 93.8153 175.367 93.2418 175.395 92.6811C175.431 91.9629 175.439 91.2782 175.434 90.6142C175.519 81.6776 171.998 77.903 171.998 77.903C171.998 77.903 167.864 72.0073 165.386 70.8601C165.172 70.1884 164.926 69.3255 164.709 68.3231C164.789 68.2688 164.867 68.2145 164.942 68.1577C165.965 67.3987 166.944 66.5818 167.874 65.7111C169.145 64.52 170.365 63.068 170.298 61.4301C170.305 61.2706 170.299 61.1108 170.282 60.9521C170.047 58.9756 167.993 57.4875 167.164 55.6144C166.466 54.041 166.675 52.2893 166.066 50.6927C165.456 49.096 163.327 47.6104 161.72 48.4501C161.128 48.7601 160.772 49.3079 160.278 49.7238C159.054 50.7573 157.08 50.8528 155.406 50.3826C153.732 49.9124 153.236 47.9954 150.895 47.9902C151.103 48.0599 151.301 48.1545 151.487 48.2718C151.291 48.2389 151.093 48.2216 150.895 48.2202C151.868 48.5279 152.568 49.3792 152.683 50.393C152.679 50.4553 152.672 50.5174 152.662 50.579C151.727 51.0828 150.497 50.796 149.376 50.7779C148.254 50.7598 146.978 51.3256 147.089 52.2428C147.07 52.347 147.07 52.4538 147.089 52.558C147.237 53.253 148.167 53.7775 148.28 54.4208C148.28 54.4389 148.28 54.4544 148.28 54.4725C146.205 55.5093 143.96 56.164 141.653 56.405C141.578 56.405 141.612 56.4954 141.721 56.6272H141.653C141.232 56.6711 144.178 58.9989 144.513 59.1513C145.743 59.7094 147.213 60.1202 148.515 60.549L148.629 60.5852C148.19 61.6044 147.964 62.7025 147.965 63.8121C147.965 67.7908 150.825 71.134 154.698 72.0796C155.421 72.9244 156.181 73.8519 156.873 74.7743H156.824C156.824 74.7743 152.373 80.6959 152.515 89.5395C152.502 90.6479 152.561 91.7559 152.69 92.8568C149.828 92.694 143.676 91.9396 138.997 88.5138C132.686 83.8969 125.645 85.2817 127.113 88.0513C128.58 90.8209 136.096 93.1281 137.308 93.3606C137.421 93.3813 137.685 93.4433 138.062 93.5363C136.569 93.8179 135.546 94.3114 135.608 94.9753C135.729 96.2439 142.162 100.285 146.045 100.515C148.611 100.667 151.698 101.458 154.135 102.153C154.37 107.462 153.086 109.053 153.086 109.053C153.086 109.053 153.468 109.288 154.101 109.622L153.83 110.397C152.254 111.306 150.311 112.254 148.544 112.637C146.292 113.099 144.103 113.828 142.023 114.807L133.283 119.031C131.696 119.767 130.602 121.271 130.389 123.007C130.198 124.798 130.738 127.035 133.662 128.81C133.843 130.265 134.732 131.962 137.065 133.517C141.586 136.525 153.468 145.534 155.085 146.763C155.116 148.962 154.827 153.372 152.114 154.059C148.714 154.922 151.45 158.193 154.199 158.064C154.852 158.311 155.562 158.363 156.243 158.214C159.157 157.521 169.838 153.822 170.566 148.288C170.597 148.048 170.61 147.806 170.608 147.564C170.65 146.621 170.415 145.686 169.931 144.875C170.045 145.125 170.137 145.384 170.207 145.65C169.324 143.635 167.171 142.369 165.497 141.656C165.497 141.638 165.497 141.617 165.497 141.599C165.239 141.498 164.981 141.415 164.769 141.34C164.773 141.191 164.762 141.041 164.735 140.893L147.986 129.353C147.986 129.353 155.269 123.351 162.795 124.276C170.321 125.201 171.52 123.834 171.52 123.834C171.52 123.834 175.38 120.163 175.767 115.936L176.01 115.871C176.01 115.871 175.992 115.605 175.956 115.117Z" fill="url(#paint0_linear_0_298)"/>
<path d="M155.501 145.177C155.501 145.177 156.186 152.714 152.76 153.628C149.334 154.543 152.533 158.196 155.271 157.504C158.01 156.811 168.063 153.163 168.747 147.686C169.432 142.209 161.896 140.377 161.896 140.377L155.501 145.177Z" fill="#B8616E"/>
<path opacity="0.05" d="M155.501 145.177C155.501 145.177 156.186 152.714 152.76 153.628C149.334 154.543 152.533 158.196 155.271 157.504C158.01 156.811 168.063 153.163 168.747 147.686C169.432 142.209 161.896 140.377 161.896 140.377L155.501 145.177Z" fill="black"/>
<path d="M156.879 145.404C156.879 145.404 157.563 152.94 154.137 153.855C150.712 154.769 153.91 158.423 156.649 157.73C159.387 157.038 169.44 153.39 170.125 147.912C170.809 142.435 163.273 140.604 163.273 140.604L156.879 145.404Z" fill="#FFD800"/>
<path opacity="0.1" d="M163.958 140.837L157.568 145.635C157.568 145.635 157.597 145.96 157.615 146.479C160.028 145.818 165.286 144.061 165.366 141.312C164.906 141.126 164.436 140.967 163.958 140.837Z" fill="black"/>
<rect x="157.219" y="75.1699" width="2.74119" height="2.05654" fill="#F8BDC5"/>
<path d="M157.336 108.399C157.336 108.399 152.982 111.82 149.407 112.631C147.281 113.091 145.22 113.813 143.271 114.778L135.047 118.959C133.53 119.722 132.504 121.204 132.324 122.893C132.089 125.219 133.024 128.278 138.605 130.096L156.191 144.714L161.674 140.147L142.945 125.761L157.336 116.853V108.399Z" fill="#758AC8"/>
<path opacity="0.1" d="M157.336 108.399C157.336 108.399 152.982 111.82 149.407 112.631C147.281 113.091 145.22 113.813 143.271 114.778L135.047 118.959C133.53 119.722 132.504 121.204 132.324 122.893C132.089 125.219 133.024 128.278 138.605 130.096L156.191 144.714L161.674 140.147L142.945 125.761L157.336 116.853V108.399Z" fill="black"/>
<path d="M154.822 93.0998C154.822 93.0998 146.371 93.3271 140.431 88.7593C134.492 84.1916 127.87 85.5609 129.239 88.302C130.609 91.0432 137.69 93.3271 138.832 93.5545C139.974 93.7818 156.419 98.3522 156.419 98.3522L154.822 93.0998Z" fill="#F8BDC5"/>
<path opacity="0.05" d="M154.822 93.0998C154.822 93.0998 146.371 93.3271 140.431 88.7593C134.492 84.1916 127.87 85.5609 129.239 88.302C130.609 91.0432 137.69 93.3271 138.832 93.5545C139.974 93.7818 156.419 98.3522 156.419 98.3522L154.822 93.0998Z" fill="black"/>
<path d="M155.736 106.349L152.995 114.572C152.995 114.572 137.579 124.051 136.321 125.307C135.344 126.284 134.037 130.105 138.605 133.301C143.173 136.497 155.734 146.549 155.734 146.549C155.734 146.549 165.327 144.482 164.642 140.607L148.882 129.188C148.882 129.188 155.734 123.245 162.816 124.162C169.897 125.08 171.039 123.705 171.039 123.705C171.039 123.705 176.521 118.218 174.692 112.973C172.863 107.728 155.736 106.349 155.736 106.349Z" fill="#5AA2CA"/>
<path d="M152.311 69.1287C152.311 69.1287 160.077 77.5796 159.62 80.0908C159.162 82.6021 165.787 72.7819 165.787 72.7819C165.787 72.7819 163.72 67.7568 164.188 62.2744L152.311 69.1287Z" fill="#F8BDC5"/>
<path opacity="0.1" d="M159.087 76.8801C159.617 76.3207 160.175 75.7886 160.759 75.286C161.928 74.3276 163 73.2572 163.96 72.0901C165.559 70.0232 171.496 78.9418 171.496 78.9418C171.496 78.9418 175.15 83.0523 174.695 92.875C174.24 102.698 175.266 115.83 175.266 115.83L173.884 116.215C171.523 117.003 168.93 116.634 166.882 115.22C165.058 113.96 162.748 112.637 160.991 112.518C157.566 112.291 154.481 110.348 154.481 110.348C154.481 110.348 155.966 106.808 153.683 95.3863C151.399 83.9643 157.219 75.8466 157.219 75.8466C157.219 75.8466 157.679 78.332 159.087 76.8801Z" fill="black"/>
<path d="M176.064 114.799L174.695 115.256L173.881 115.527C171.521 116.315 168.927 115.947 166.88 114.533C165.058 113.274 162.746 111.949 160.989 111.83C157.568 111.6 153.693 109.089 153.693 109.089C153.693 109.089 155.977 106.12 153.693 94.6985C151.409 83.2764 157.233 75.1691 157.233 75.1691C157.233 75.1691 157.692 77.6416 159.101 76.1871C159.629 75.6283 160.186 75.0971 160.77 74.5956C161.938 73.6372 163.01 72.5668 163.971 71.3997C165.57 69.3328 171.507 78.2513 171.507 78.2513C171.507 78.2513 175.16 82.3618 174.705 92.1846C174.656 93.2181 174.636 94.2825 174.633 95.3598C174.599 104.552 176.064 114.799 176.064 114.799Z" fill="#109C7D"/>
<path opacity="0.1" d="M163.046 92.4149L163.273 97.4399C163.273 97.4399 151.166 98.1246 148.655 95.6133C146.144 93.1021 155.501 103 157.568 103.607C159.509 104.178 164.518 104.682 167.146 104.733C168.679 104.783 170.098 103.923 170.763 102.54C171.069 101.874 171.168 101.131 171.047 100.408C170.59 97.4399 171.047 91.043 171.047 91.043L163.046 92.4149Z" fill="black"/>
<path d="M163.046 91.9578L163.273 96.9829C163.273 96.9829 151.166 97.6675 148.655 95.1563C146.144 92.6451 137.057 93.2005 137.235 95.1563C137.349 96.4119 143.403 100.409 147.053 100.639C150.704 100.869 155.501 102.543 157.568 103.15C159.509 103.721 164.518 104.225 167.146 104.276C168.679 104.326 170.098 103.466 170.763 102.083C171.069 101.417 171.168 100.674 171.047 99.9514C170.59 96.9829 171.047 90.5859 171.047 90.5859L163.046 91.9578Z" fill="#F8BDC5"/>
<path opacity="0.1" d="M165.787 77.34C165.787 77.34 160.534 78.0247 161.219 85.7909C161.904 93.5572 162.818 94.2418 162.818 94.2418C162.818 94.2418 170.585 93.5572 171.497 93.3272C172.409 93.0973 171.954 84.649 171.954 84.649C171.954 84.649 171.724 77.1126 165.787 77.34Z" fill="black"/>
<path d="M165.787 77.1127C165.787 77.1127 160.534 77.7973 161.219 85.5636C161.904 93.3299 162.818 94.0145 162.818 94.0145C162.818 94.0145 170.585 93.3299 171.497 93.0999C172.409 92.87 171.954 84.4217 171.954 84.4217C171.954 84.4217 171.724 76.8802 165.787 77.1127Z" fill="#12AD8B"/>
<path opacity="0.1" d="M163.844 67.1756C163.485 65.3671 164.221 64.809 164.415 62.4941L152.53 69.3458C152.53 69.3458 153.892 70.8288 155.439 72.7329C156.131 72.9078 156.842 72.9946 157.555 72.9913C160.669 73.0042 162.371 69.661 163.844 67.1756Z" fill="black"/>
<path d="M157.333 72.7719C162.001 72.7719 165.784 68.9883 165.784 64.321C165.784 59.6537 162.001 55.8701 157.333 55.8701C152.666 55.8701 148.882 59.6537 148.882 64.321C148.882 68.9883 152.666 72.7719 157.333 72.7719Z" fill="#F8BDC5"/>
<path opacity="0.1" d="M159.465 61.7552C158.173 62.5768 158.155 64.4344 158.987 65.721C159.819 67.0076 161.253 67.8576 162.632 68.6586C163.033 68.8911 163.474 69.1314 163.924 69.0797C164.27 69.0123 164.59 68.8505 164.849 68.6121C165.814 67.8588 166.736 67.0505 167.608 66.1912C168.864 64.9563 170.07 63.4345 169.874 61.7113C169.652 59.7555 167.719 58.2829 166.939 56.4304C166.283 54.8803 166.479 53.1415 165.906 51.5578C165.332 49.9741 163.322 48.5092 161.818 49.3385C161.263 49.6434 160.927 50.1885 160.462 50.5993C159.31 51.6172 157.452 51.718 155.876 51.2529C154.3 50.7879 153.832 48.889 151.634 48.8838C152.727 49.2687 153.466 50.4081 153.298 51.4467C152.417 51.9453 151.259 51.6611 150.197 51.6431C149.136 51.625 147.872 52.2192 148.056 53.1751C148.216 53.9502 149.334 54.5263 149.169 55.3014C147.228 56.3238 145.113 56.9724 142.932 57.2133C142.537 57.2572 145.307 59.5592 145.622 59.7116C146.777 60.2645 148.164 60.6701 149.386 61.0938C152.706 62.2383 156.106 62.6466 159.465 61.7552Z" fill="black"/>
<path d="M159.465 61.5257C158.173 62.3473 158.155 64.2049 158.987 65.4915C159.819 66.7782 161.253 67.6282 162.632 68.4291C163.033 68.6616 163.474 68.9019 163.924 68.8502C164.27 68.7828 164.59 68.621 164.849 68.3826C165.814 67.6293 166.736 66.821 167.608 65.9617C168.864 64.7268 170.07 63.2051 169.874 61.4818C169.652 59.526 167.719 58.0534 166.939 56.201C166.283 54.6508 166.479 52.912 165.906 51.3283C165.332 49.7446 163.322 48.2797 161.818 49.109C161.263 49.4139 160.927 49.959 160.462 50.3698C159.31 51.3877 157.452 51.4885 155.876 51.0234C154.3 50.5584 153.832 48.6595 151.634 48.6543C152.727 49.0393 153.466 50.1786 153.298 51.2172C152.417 51.7158 151.259 51.4317 150.197 51.4136C149.136 51.3955 147.872 51.9897 148.056 52.9456C148.216 53.7207 149.334 54.2969 149.169 55.0719C147.228 56.0943 145.113 56.7429 142.932 56.9838C142.537 57.0277 145.307 59.3297 145.622 59.4821C146.777 60.035 148.164 60.4406 149.386 60.8643C152.706 62.0114 156.106 62.4119 159.465 61.5257Z" fill="#030F09"/>
<path opacity="0.1" d="M169.528 144.541C169.895 145.387 170.022 146.317 169.897 147.231C169.213 152.713 159.163 156.366 156.421 157.048C154.977 157.41 153.404 156.565 152.745 155.55C153.169 156.743 154.993 157.919 156.651 157.505C159.392 156.821 169.443 153.165 170.127 147.688C170.277 146.602 170.066 145.496 169.528 144.541Z" fill="white"/>
<path d="M96.9419 150.77V150.77C96.7378 150.311 95.6785 149.414 90.5708 149.22C87.0726 149.088 85.8816 147.241 85.5586 145.438C86.7083 145.288 87.6074 145.081 87.9019 144.795C87.9019 144.795 87.8864 144.712 87.8606 144.565L87.9019 144.534C87.6785 143.233 87.5619 141.916 87.5532 140.596C87.5464 139.467 87.666 138.34 87.9097 137.238C88.0519 136.509 88.1117 135.766 88.088 135.023C88.1164 130.631 86.574 122.912 86.574 122.912L86.3621 116.497C86.3188 114.866 85.3883 113.39 83.9361 112.647C83.4288 112.384 82.8668 112.245 82.2956 112.239C82.2956 112.239 74.1986 110.963 66.9103 110.268C66.3936 109.852 64.5722 108.73 60.3971 109.374L57.9943 102.341C57.9749 102.256 57.9611 102.17 57.953 102.083C58.0383 101.189 58.6351 99.8428 61.4176 99.7575L61.9989 100.274C61.9989 100.274 62.1022 100.07 62.2753 99.7575C65.727 99.7187 84.5304 99.5276 85.4992 99.7575C86.5662 100.016 95.9136 97.9335 96.1823 97.6751C99.8149 94.133 85.4992 95.8511 85.4992 95.8511C84.0912 96.081 79.5415 95.8072 74.8807 95.4274C77.1878 91.968 79.358 80.2256 79.358 80.2256C79.358 80.2256 87.6255 76.0583 85.2331 73.7149C82.8407 71.3716 75.6196 78.9235 75.6196 78.9235C75.6196 78.9235 72.682 87.519 71.3463 90.1233C70.8296 91.1567 70.1605 91.3686 69.5636 91.2497C69.8349 91.0327 70.0106 90.9035 70.0106 90.9035C70.0106 90.9035 64.1355 86.2143 63.6007 84.3929C63.5011 84.0945 63.3695 83.8078 63.208 83.5377C62.9264 81.8868 62.4329 80.2617 61.229 79.1792C61.0268 78.9621 60.8035 78.7657 60.5624 78.5928C60.2369 78.3602 59.8674 78.1587 59.56 77.9055V77.9055C59.7331 77.1098 59.9346 76.283 60.1439 75.4821C64.505 74.9654 67.8946 71.3484 67.8946 66.9563C67.894 66.2939 67.8151 65.634 67.6595 64.9902C68.9853 65.0775 70.2598 64.4637 71.0182 63.3728C71.8992 62.0604 71.8708 60.2725 71.1319 58.8877C70.8264 58.3255 70.4261 57.8203 69.9486 57.3944C69.1873 56.6276 68.2588 56.0476 67.2358 55.6996C66.3497 55.3921 65.3705 55.2087 64.6678 54.6067C64.3537 54.196 64.068 53.7644 63.8126 53.3149C63.5177 52.8736 63.1707 52.4694 62.7791 52.111C61.4874 50.7804 59.6633 49.9614 57.8057 49.5997C55.5425 49.1579 53.2044 49.3155 50.9024 49.4731C50.0421 49.5326 49.0319 49.685 48.6443 50.4342C48.3524 50.9975 48.5436 51.6718 48.5048 52.2996C48.3834 54.2967 46.0995 55.3999 44.1127 55.883C42.126 56.3662 39.7568 56.7847 38.7983 58.5364C37.9276 60.1175 38.5399 62.0345 38.819 63.8095C39.2837 66.926 38.5917 70.1048 36.8735 72.7461C36.0003 74.0818 34.8738 75.2703 34.184 76.7041C33.4198 78.3026 33.2424 80.119 33.6828 81.8352C33.812 82.3364 33.998 82.8479 33.905 83.3595C33.7993 83.7813 33.5917 84.1707 33.3004 84.4937C30.8987 87.4594 27.3683 89.2883 23.5603 89.5394C23.7185 90.0639 24.0276 90.5303 24.4491 90.8803C24.9845 91.4098 25.6089 91.8409 26.2937 92.154C28.0979 93.0588 29.9951 93.7648 31.9518 94.2596C33.2694 94.5929 34.6465 94.8306 35.9874 94.6032C37.3282 94.3759 38.6355 93.6086 39.1858 92.3943C39.5062 91.6915 39.5527 90.8958 39.8369 90.1801C40.4027 88.7488 41.8056 87.8213 42.7538 86.5941C42.4345 89.7565 42.2836 92.9336 42.3016 96.1121C42.3016 97.1067 42.3016 98.0032 42.3016 98.8352C42.3016 102.424 42.0433 104.899 39.8188 109.381C39.5537 109.853 39.4375 110.393 39.4855 110.932C39.3871 111.523 39.6081 112.123 40.0668 112.51C39.9118 113.404 39.8366 114.31 39.8421 115.218C39.8111 118.483 40.9143 122.868 46.7635 123.979L57.1779 123.462C57.1779 123.462 71.8656 120.597 75.8702 122.687C76.5512 122.832 77.0387 123.432 77.0405 124.128C77.0282 124.346 76.9944 124.561 76.9398 124.772C76.8282 125.449 76.7858 126.135 76.8132 126.821C76.7951 131.213 77.7407 141.18 77.7407 141.18V145.407C77.0741 146.409 76.2526 147.892 76.3585 148.985C76.3585 149.008 76.3585 149.034 76.3585 149.057C76.3585 149.081 76.3585 149.122 76.374 149.153C76.3895 149.184 76.374 149.21 76.3921 149.238C76.4102 149.267 76.4076 149.293 76.4153 149.321C76.4231 149.349 76.436 149.383 76.4489 149.411C76.4618 149.44 76.467 149.458 76.4773 149.481C76.4877 149.504 76.5109 149.548 76.529 149.579L76.56 149.634C76.5911 149.683 76.6256 149.731 76.6633 149.776C77.9991 151.326 84.6725 154.325 86.8117 154.204C89.0826 154.075 96.6913 154.462 96.96 151.078C96.9941 150.977 96.9876 150.867 96.9419 150.77Z" fill="url(#paint1_linear_0_298)"/>
<path d="M77.9576 144.229C77.9576 144.229 74.8573 148.104 76.1491 149.654C77.4409 151.204 83.8999 154.168 85.9667 154.046C88.1628 153.917 95.526 154.305 95.7844 150.946C95.7844 150.946 96.3011 149.396 89.5838 149.137C82.8664 148.879 84.9333 141.903 84.9333 141.903L77.9576 144.229Z" fill="#FFD800"/>
<path opacity="0.1" d="M41.0124 111.675C41.0124 111.675 37.9121 122.268 47.213 124.077L57.289 123.56C57.289 123.56 71.4987 120.718 75.3741 122.785C75.3741 122.785 76.9243 123.043 76.4075 125.11C75.8908 127.177 77.1826 141.128 77.1826 141.128V145.779C77.1826 145.779 85.9668 145.779 87.0002 144.745C87.0002 144.745 86.2252 140.612 87.0002 137.253C87.7753 133.894 85.7085 123.302 85.7085 123.302L85.5044 116.925C85.4735 115.321 84.5783 113.859 83.1636 113.102C82.6747 112.842 82.1307 112.704 81.5773 112.699C81.5773 112.699 64.0089 109.857 57.8083 110.373C51.6077 110.89 41.0124 111.675 41.0124 111.675Z" fill="black"/>
<path d="M41.0124 111.417C41.0124 111.417 37.9121 122.009 47.213 123.818L57.289 123.301C57.289 123.301 71.4987 120.459 75.3741 122.526C75.3741 122.526 76.9243 122.784 76.4075 124.851C75.8908 126.918 77.1826 140.87 77.1826 140.87V145.52C77.1826 145.52 85.9668 145.52 87.0002 144.487C87.0002 144.487 86.2252 140.353 87.0002 136.994C87.7753 133.636 85.7085 123.043 85.7085 123.043L85.5044 116.667C85.4735 115.062 84.5783 113.6 83.1636 112.843C82.6747 112.584 82.1307 112.445 81.5773 112.44C81.5773 112.44 64.0089 109.598 57.8083 110.115C51.6077 110.631 41.0124 111.417 41.0124 111.417Z" fill="#5AA2CA"/>
<path d="M67.6233 90.4898C67.6233 90.4898 69.6901 93.0733 70.9819 90.4898C72.2737 87.9062 75.1157 79.3803 75.1157 79.3803C75.1157 79.3803 82.0914 71.8879 84.4166 74.2132C86.7418 76.5384 78.7327 80.6721 78.7327 80.6721C78.7327 80.6721 75.8907 96.432 73.3072 96.6904C70.7236 96.9487 66.8482 96.6904 66.8482 96.6904L65.5564 93.8484L67.6233 90.4898Z" fill="#F8BDC5"/>
<path opacity="0.05" d="M67.6233 90.4898C67.6233 90.4898 69.6901 93.0733 70.9819 90.4898C72.2737 87.9062 75.1157 79.3803 75.1157 79.3803C75.1157 79.3803 82.0914 71.8879 84.4166 74.2132C86.7418 76.5384 78.7327 80.6721 78.7327 80.6721C78.7327 80.6721 75.8907 96.432 73.3072 96.6904C70.7236 96.9487 66.8482 96.6904 66.8482 96.6904L65.5564 93.8484L67.6233 90.4898Z" fill="black"/>
<path d="M58.3223 77.5723C58.3223 77.5723 62.9728 82.9978 63.4895 84.8063C64.0062 86.6148 69.6901 91.2653 69.6901 91.2653C69.6901 91.2653 65.5564 94.3656 66.3314 95.9157C67.1065 97.4659 60.9059 90.7486 60.9059 90.7486L53.6719 80.1559L58.3223 77.5723Z" fill="#EB6475"/>
<path opacity="0.1" d="M58.3223 77.5723C58.3223 77.5723 62.9728 82.9978 63.4895 84.8063C64.0062 86.6148 69.6901 91.2653 69.6901 91.2653C69.6901 91.2653 65.5564 94.3656 66.3314 95.9157C67.1065 97.4659 60.9059 90.7486 60.9059 90.7486L53.6719 80.1559L58.3223 77.5723Z" fill="black"/>
<path d="M61.4227 71.3712C61.4227 71.3712 59.0975 78.8637 59.0975 81.7056C59.0975 84.5475 49.2799 80.9305 49.5382 79.3804C49.7966 77.8302 55.2221 72.1463 55.4805 69.8211C55.7388 67.4959 61.4227 71.3712 61.4227 71.3712Z" fill="#F8BDC5"/>
<path opacity="0.1" d="M53.672 76.5391C53.672 76.5391 44.6295 74.2139 43.3377 87.3902C42.0459 100.566 44.3711 102.117 40.4957 110.126C36.6204 118.135 66.8483 111.159 66.8483 111.159C66.8483 111.159 65.2982 109.351 60.3894 110.126L58.0641 103.15C58.0641 103.15 57.2891 100.05 61.6812 100.05C66.0732 100.05 64.0064 91.0072 64.0064 91.0072C64.0064 91.0072 61.6812 83.2564 60.3894 82.4813C59.0976 81.7063 56.7723 77.0558 53.672 76.5391Z" fill="black"/>
<path d="M53.672 76.0225C53.672 76.0225 44.6295 73.6973 43.3377 86.8736C42.0459 100.05 44.3711 101.6 40.4957 109.609C36.6204 117.618 66.8483 110.643 66.8483 110.643C66.8483 110.643 65.2982 108.834 60.3894 109.609L58.0641 102.633C58.0641 102.633 57.2891 99.5331 61.6812 99.5331C66.0732 99.5331 64.0064 90.4906 64.0064 90.4906C64.0064 90.4906 61.6812 82.7398 60.3894 81.9647C59.0976 81.1897 56.7723 76.5392 53.672 76.0225Z" fill="#EB6475"/>
<path d="M62.7146 94.624C62.7146 94.624 81.5748 96.6909 84.6751 96.1742C84.6751 96.1742 98.5232 94.469 95.0095 97.9827C94.7511 98.241 85.7086 100.308 84.6751 100.05C83.6417 99.7912 61.6812 100.05 61.6812 100.05L61.4229 97.466L62.7146 94.624Z" fill="#F8BDC5"/>
<path opacity="0.1" d="M48.2465 88.1652L61.9395 100.566C61.9395 100.566 64.5231 95.3992 65.2982 95.3992C66.0733 95.3992 55.9973 80.1561 55.9973 80.1561C55.9973 80.1561 53.4137 77.0558 51.8635 78.6059C50.3134 80.1561 45.6629 79.1226 48.2465 88.1652Z" fill="black"/>
<path d="M47.9882 87.6486L61.6812 100.05C61.6812 100.05 64.2648 94.8826 65.0399 94.8826C65.815 94.8826 55.739 79.6395 55.739 79.6395C55.739 79.6395 53.1554 76.5392 51.6052 78.0893C50.0551 79.6395 45.4046 78.606 47.9882 87.6486Z" fill="#EB6475"/>
<path d="M59.0976 76.0224C63.8063 76.0224 67.6234 72.2052 67.6234 67.4965C67.6234 62.7878 63.8063 58.9707 59.0976 58.9707C54.3889 58.9707 50.5718 62.7878 50.5718 67.4965C50.5718 72.2052 54.3889 76.0224 59.0976 76.0224Z" fill="#F8BDC5"/>
<path opacity="0.1" d="M66.564 65.3542C68.0108 65.9251 69.7831 65.2405 70.6357 63.941C71.4883 62.6414 71.4625 60.8717 70.7442 59.492C70.026 58.1124 68.698 57.1099 67.2331 56.5881C66.3444 56.2729 65.3549 56.092 64.6728 55.441C64.2413 55.0302 63.9856 54.4747 63.6626 53.9735C62.4561 52.0926 60.304 50.9817 58.1157 50.5451C55.9274 50.1084 53.6641 50.2634 51.4371 50.4185C50.6052 50.4779 49.6286 50.6277 49.2514 51.3718C48.9698 51.9299 49.1532 52.599 49.117 53.2217C49.0008 55.2033 46.7918 56.3013 44.8619 56.7767C42.9319 57.252 40.6945 57.699 39.7541 59.4455C38.9119 61.0137 39.5138 62.9153 39.7748 64.6773C40.221 67.7551 39.554 70.8911 37.8939 73.5209C37.0491 74.8463 35.9614 76.0244 35.2923 77.4479C34.552 79.0388 34.3806 80.8355 34.8065 82.5376C34.9331 83.0362 35.1114 83.5426 35.0236 84.049C34.9223 84.4652 34.722 84.8508 34.4397 85.1729C32.1499 88.1027 28.7264 89.9257 25.0173 90.1902C25.3119 91.2986 26.3841 91.9987 27.4046 92.5154C29.146 93.4111 30.9811 94.1112 32.8766 94.603C34.1503 94.9337 35.4834 95.1688 36.7804 94.944C38.0774 94.7192 39.3407 93.9571 39.8807 92.7531C40.1907 92.0555 40.2372 91.2675 40.5111 90.5545C41.1286 88.9552 42.7743 87.989 43.6579 86.5189C44.5027 85.1134 44.8309 84.9481 45.0453 83.3256C45.2597 81.7031 45.7325 79.9514 47.0657 78.9981C48.4608 77.9982 50.4243 78.1894 51.9745 78.9568C53.5246 79.7241 54.4831 79.4244 55.7775 80.5508C58.0482 82.5234 60.5895 84.1607 63.3242 85.4131C63.0658 83.1603 62.6499 80.6464 60.8207 79.3055C60.304 78.9206 59.6503 78.6261 59.3765 78.037C58.9398 77.0992 59.6865 75.9546 59.348 74.9755C59.0096 73.9963 57.723 73.6346 57.152 72.7458C56.6663 71.9914 56.798 70.9657 57.2527 70.1906C57.7075 69.4156 58.4257 68.842 59.1413 68.2995C59.7769 67.8189 60.4211 67.3496 61.0739 66.8914C61.6637 66.5171 62.1934 66.0554 62.6447 65.5221C62.9031 65.1682 63.0736 64.3931 63.4327 64.1425C64.3369 63.5172 65.7269 65.0261 66.564 65.3542Z" fill="black"/>
<path d="M66.3057 65.0964C67.7525 65.6673 69.5248 64.9827 70.3774 63.6831C71.23 62.3836 71.2042 60.6138 70.4859 59.2342C69.7677 57.8546 68.4397 56.8521 66.9748 56.3303C66.0861 56.0151 65.0966 55.8342 64.4145 55.1831C63.983 54.7724 63.7273 54.2169 63.4043 53.7157C62.1978 51.8348 60.0457 50.7239 57.8574 50.2872C55.6691 49.8506 53.4058 50.0056 51.1788 50.1606C50.3469 50.2201 49.3703 50.3699 48.9931 51.114C48.7115 51.672 48.8949 52.3412 48.8587 52.9638C48.7425 54.9455 46.5335 56.0435 44.6036 56.5189C42.6736 56.9942 40.4362 57.4412 39.4958 59.1877C38.6536 60.7559 39.2555 62.6575 39.5165 64.4195C39.9627 67.4973 39.2957 70.6333 37.6356 73.2631C36.7908 74.5885 35.7031 75.7666 35.034 77.1901C34.2937 78.7809 34.1223 80.5777 34.5482 82.2798C34.6748 82.7784 34.8531 83.2848 34.7653 83.7912C34.664 84.2074 34.4637 84.5929 34.1814 84.9151C31.8916 87.8449 28.4681 89.6679 24.759 89.9324C25.0536 91.0407 26.1258 91.7409 27.1463 92.2576C28.8877 93.1533 30.7228 93.8534 32.6183 94.3451C33.892 94.6758 35.2251 94.911 36.5221 94.6862C37.8191 94.4614 39.0824 93.6992 39.6224 92.4953C39.9324 91.7977 39.9789 91.0097 40.2528 90.2967C40.8703 88.6974 42.516 87.7312 43.3996 86.2611C44.2444 84.8556 44.5726 84.6903 44.787 83.0678C45.0014 81.4453 45.4742 79.6936 46.8074 78.7403C48.2025 77.7404 50.166 77.9316 51.7162 78.6989C53.2663 79.4663 54.2248 79.1666 55.5192 80.293C57.7899 82.2656 60.3312 83.9029 63.0659 85.1553C62.8075 82.9024 62.3916 80.3886 60.5624 79.0477C60.0457 78.6628 59.392 78.3682 59.1182 77.7792C58.6815 76.8413 59.4282 75.6968 59.0897 74.7176C58.7513 73.7385 57.4647 73.3768 56.8937 72.488C56.408 71.7336 56.5397 70.7079 56.9944 69.9328C57.4492 69.1578 58.1674 68.5842 58.883 68.0417C59.5186 67.5611 60.1628 67.0918 60.8156 66.6336C61.4054 66.2593 61.9351 65.7976 62.3864 65.2643C62.6447 64.9103 62.8153 64.1353 63.1744 63.8847C64.0786 63.2594 65.4686 64.7682 66.3057 65.0964Z" fill="#030F09"/>
<g opacity="0.1">
<path d="M84.6389 143.939C84.6583 143.251 84.7572 142.568 84.9334 141.903L84.8043 141.947C84.6753 142.603 84.6199 143.271 84.6389 143.939Z" fill="white"/>
<path d="M85.9668 153.529C83.8999 153.651 77.4409 150.687 76.1491 149.137C75.9795 148.927 75.8753 148.672 75.8494 148.403C75.7729 148.844 75.8813 149.296 76.1491 149.654C77.4409 151.204 83.8999 154.167 85.9668 154.046C88.1628 153.917 95.526 154.304 95.7844 150.946C95.8037 150.853 95.7909 150.756 95.7482 150.672C95.1566 153.767 88.1086 153.403 85.9668 153.529Z" fill="white"/>
</g>
<rect x="96.1719" y="76.4092" width="0.258359" height="10.5927" fill="#FFD77C" stroke="#FFAB50" stroke-width="0.25"/>
<rect x="96.4304" y="76.4092" width="0.258359" height="10.5927" fill="#FFD77C" stroke="#FFAB50" stroke-width="0.25"/>
<rect x="96.6887" y="76.4092" width="0.258359" height="10.5927" fill="#FFD77C" stroke="#FFAB50" stroke-width="0.25"/>
<rect x="96.947" y="76.4092" width="0.258359" height="10.5927" fill="#FFD77C" stroke="#FFAB50" stroke-width="0.25"/>
<rect x="97.2053" y="76.4092" width="0.258359" height="10.5927" fill="#FFD77C" stroke="#FFAB50" stroke-width="0.25"/>
<rect x="97.4639" y="76.4092" width="0.258359" height="10.5927" fill="#FFD77C" stroke="#FFAB50" stroke-width="0.25"/>
<rect x="97.7222" y="76.4092" width="0.258359" height="10.5927" fill="#FFD77C" stroke="#FFAB50" stroke-width="0.25"/>
<defs>
<linearGradient id="paint0_linear_0_298" x1="176.86" y1="158.309" x2="176.86" y2="47.9902" gradientUnits="userSpaceOnUse">
<stop stop-color="#808080" stop-opacity="0.25"/>
<stop offset="0.54" stop-color="#808080" stop-opacity="0.12"/>
<stop offset="1" stop-color="#808080" stop-opacity="0.1"/>
</linearGradient>
<linearGradient id="paint1_linear_0_298" x1="96.9854" y1="154.176" x2="96.9854" y2="49.282" gradientUnits="userSpaceOnUse">
<stop stop-color="#808080" stop-opacity="0.25"/>
<stop offset="0.54" stop-color="#808080" stop-opacity="0.12"/>
<stop offset="1" stop-color="#808080" stop-opacity="0.1"/>
</linearGradient>
</defs>
</svg>
