<svg width="205" height="165" viewBox="0 0 205 165" fill="none" xmlns="http://www.w3.org/2000/svg">
<path opacity="0.1" d="M118.664 18.7626C105.571 18.3856 93.1005 14.865 81.2007 11.0129C69.3009 7.16076 57.4879 2.90012 44.708 0.859594C36.4887 -0.452737 27.0892 -0.63824 20.4664 3.03037C14.0922 6.56084 12.0339 12.6568 10.9268 18.3146C10.092 22.5693 9.60264 27.049 11.8859 31.0314C13.4646 33.7942 16.2847 36.1209 18.2305 38.7692C24.9993 47.9871 20.2157 59.3521 12.8785 68.3509C9.43687 72.5721 5.44462 76.5999 2.78838 81.0934C0.13214 85.5869 -1.09139 90.7395 1.22739 95.3179C3.53039 99.8568 9.0185 103.273 14.9644 105.674C27.0399 110.549 41.2703 111.944 55.1455 112.735C85.86 114.484 116.74 113.722 147.538 112.968C158.934 112.688 170.382 112.404 181.595 110.936C187.821 110.121 194.249 108.828 198.764 105.706C204.503 101.743 205.923 95.0317 202.079 90.0626C195.63 81.7268 177.806 79.6567 173.289 70.7112C170.806 65.7874 173.356 60.3013 176.961 55.7348C184.697 45.9387 197.665 37.3444 198.347 26.1471C198.815 18.4508 192.583 10.7544 182.945 7.11537C172.843 3.30073 158.833 3.78027 151.37 10.0953C143.711 16.5957 130.225 19.104 118.664 18.7626Z" fill="#30BE76"/>
<path opacity="0.1" d="M85.9329 164.113C117.622 164.113 143.31 161.523 143.31 158.327C143.31 155.132 117.622 152.541 85.9329 152.541C54.2442 152.541 28.5554 155.132 28.5554 158.327C28.5554 161.523 54.2442 164.113 85.9329 164.113Z" fill="#30BE76"/>
<path d="M33.4437 157.7C33.4437 157.7 30.898 143.276 21.4492 136.128C17.4846 133.129 14.5836 129.05 13.3167 124.404C12.7204 122.203 12.3384 119.949 12.176 117.675" stroke="#535461" stroke-width="2"/>
<path d="M6.25165 113.136C7.04102 114.681 12.316 117.809 12.316 117.809C12.316 117.809 12.9791 111.965 12.1838 110.418C11.3885 108.871 9.42098 108.226 7.77908 108.976C6.13719 109.726 5.45635 111.589 6.25165 113.136Z" fill="#30BE76"/>
<path d="M5.74861 123.949C7.30762 124.839 13.5318 124.76 13.5318 124.76C13.5318 124.76 10.7236 119.514 9.17054 118.624C7.61745 117.734 5.58679 118.204 4.64349 119.674C3.70019 121.144 4.19157 123.059 5.74861 123.949Z" fill="#30BE76"/>
<path d="M13.4863 138.496C15.3058 138.522 20.636 135.487 20.636 135.487C20.636 135.487 15.4084 132.298 13.5869 132.27C11.7654 132.242 10.2676 133.616 10.2321 135.335C10.1966 137.054 11.6648 138.465 13.4863 138.496Z" fill="#30BE76"/>
<path d="M21.9641 148.251C23.752 148.569 29.55 146.426 29.55 146.426C29.55 146.426 24.9676 142.444 23.1817 142.132C21.3957 141.82 19.669 142.921 19.3335 144.618C18.998 146.316 20.1742 147.936 21.9641 148.251Z" fill="#30BE76"/>
<path d="M19.9137 122.206C19.2921 123.822 14.3881 127.445 14.3881 127.445C14.3881 127.445 13.0896 121.699 13.7112 120.083C14.3328 118.466 16.2254 117.632 17.9363 118.218C19.6473 118.804 20.5353 120.592 19.9137 122.206Z" fill="#30BE76"/>
<path d="M29.6763 133.739C28.5712 135.106 22.7456 137.179 22.7456 137.179C22.7456 137.179 23.3376 131.327 24.4349 129.962C25.5844 128.588 27.5979 128.33 29.0566 129.37C29.747 129.845 30.2067 130.588 30.3244 131.418C30.4422 132.248 30.2071 133.09 29.6763 133.739Z" fill="#30BE76"/>
<path d="M37.5346 146.177C36.69 147.701 31.3203 150.673 31.3203 150.673C31.3203 150.673 30.8486 144.814 31.6932 143.29C32.5379 141.767 34.529 141.179 36.1433 141.976C37.7576 142.773 38.3772 144.654 37.5346 146.177Z" fill="#30BE76"/>
<path d="M33.1241 157.322C33.1241 157.322 36.9861 143.16 31.417 133.009C29.0805 128.75 28.1786 123.911 29.0154 119.179C29.4171 116.929 30.035 114.723 30.8605 112.592" stroke="#535461" stroke-width="2"/>
<path d="M27.3911 106.176C27.4542 107.893 30.9294 112.769 30.9294 112.769C30.9294 112.769 34.0435 107.679 33.9803 105.961C33.9172 104.242 32.3917 102.898 30.5722 102.957C28.7527 103.016 27.3259 104.457 27.3911 106.176Z" fill="#08E179"/>
<path d="M22.2917 115.869C23.3337 117.278 29.0566 119.587 29.0566 119.587C29.0566 119.587 28.7409 113.718 27.6989 112.307C26.6058 110.889 24.6052 110.553 23.1087 111.535C22.3999 111.981 21.9088 112.701 21.7537 113.524C21.5986 114.346 21.7936 115.196 22.2917 115.869Z" fill="#08E179"/>
<path d="M23.1207 132.125C24.7744 132.845 30.9513 132.111 30.9513 132.111C30.9513 132.111 27.5392 127.193 25.8855 126.473C24.2318 125.753 22.2741 126.433 21.5104 127.994C20.7467 129.555 21.4689 131.404 23.1207 132.125Z" fill="#08E179"/>
<path d="M26.6828 144.291C28.1846 145.266 34.4028 145.524 34.4028 145.524C34.4028 145.524 31.9203 140.135 30.4205 139.162C28.9212 138.185 26.9225 138.53 25.8362 139.951C25.3387 140.628 25.1472 141.482 25.3081 142.307C25.4689 143.131 25.9674 143.851 26.6828 144.291Z" fill="#08E179"/>
<path d="M35.9894 119.695C34.7264 120.935 28.6877 122.373 28.6877 122.373C28.6877 122.373 29.9685 116.621 31.2295 115.382C32.5236 114.141 34.5534 114.104 35.8927 115.295C36.5203 115.848 36.8878 116.638 36.9062 117.474C36.9245 118.31 36.5921 119.116 35.9894 119.695Z" fill="#08E179"/>
<path d="M39.9559 133.974C38.3594 134.801 32.145 134.467 32.145 134.467C32.145 134.467 35.19 129.336 36.7865 128.515C38.383 127.694 40.388 128.241 41.2623 129.749C42.1365 131.256 41.5603 133.147 39.9559 133.974Z" fill="#08E179"/>
<path d="M41.809 148.352C40.3822 149.421 34.1975 150.084 34.1975 150.084C34.1975 150.084 36.2815 144.545 37.7082 143.475C39.1467 142.408 41.1643 142.627 42.3399 143.979C42.8817 144.616 43.1326 145.451 43.0318 146.281C42.9309 147.112 42.4877 147.863 41.809 148.352Z" fill="#08E179"/>
<path fill-rule="evenodd" clip-rule="evenodd" d="M195.202 72.8258C195.453 73.3975 195.891 74.3953 195.806 74.6287C195.758 74.7592 195.903 75.0669 196.071 75.4232C196.32 75.9504 196.619 76.5841 196.417 76.908C196.149 77.3823 195.911 77.8734 195.705 78.3782C195.705 78.3782 194.312 81.0245 193.601 81.5258C192.891 82.027 189.633 86.2324 189.633 86.2324C189.633 86.2324 186.138 90.2345 186.138 91.4699C186.138 91.4699 185.94 91.1423 185.615 90.6509L186.136 99.4722C186.136 99.4722 184.922 100.5 184.656 100.619C183.413 101.471 181.309 100.119 180.983 99.853C180.812 99.711 179.647 99.7485 178.615 99.8136C178.844 104.587 177.875 105.503 177.875 105.503L177.759 109.647C177.759 109.647 177.909 115.974 177.463 116.973C177.017 117.971 177.017 122.003 177.017 122.003C177.017 122.003 177.313 123.913 176.987 124.326C176.661 124.738 176.9 126.271 177.137 127.061C177.374 127.85 177.165 129.824 177.165 129.824L177.105 140.944C177.105 140.944 176.782 143.825 176.365 144.239C176.122 144.487 176.032 144.846 176.129 145.179C176.129 145.179 175.773 146.825 175.862 147.121C175.951 147.417 176.131 148.092 175.448 148.415C174.765 148.739 174.943 149.769 174.943 149.769C174.87 149.752 174.797 149.739 174.724 149.73C174.743 149.85 174.767 149.974 174.795 150.093C174.829 150.313 174.909 150.524 175.031 150.71C175.329 151.034 175.507 152.475 175.507 152.475C175.507 152.475 176.573 154.592 176.454 155.064C176.367 155.415 176.261 156.046 176.211 156.344C176.188 156.445 176.188 156.506 176.188 156.506C176.188 156.506 175.596 157.801 172.308 158.271C169.02 158.74 169.02 157.181 169.02 157.181C169.02 157.181 169.032 157.013 169.054 156.763C169.063 156.661 169.074 156.545 169.086 156.421C169.151 155.707 169.242 154.714 169.316 154.476C169.425 154.093 169.228 152.415 169.228 152.415L169.192 150.663V150.314C168.886 150.375 168.703 150.416 168.703 150.416C168.203 149.392 167.767 148.337 167.398 147.259C167.238 146.817 167.277 146.329 167.504 145.918C167.73 145.507 168.124 145.214 168.582 145.114C169.206 145.019 168.138 143.93 168.138 143.93C168.138 143.93 168.257 143.782 167.961 142.724C167.673 141.698 167.999 139.12 168.1 138.321L168.109 138.252C168.197 137.546 168.641 134.134 168.641 134.134C168.641 134.134 168.405 129.808 168.582 129.632C168.76 129.456 169.356 127.749 169.058 127.191C168.76 126.633 168.286 122.956 168.286 122.749C168.286 122.542 167.901 117.776 167.901 117.776C167.901 117.776 167.55 114.47 167.639 113.764C167.728 113.057 167.402 110.439 167.402 110.439C167.402 108.254 166.129 105.9 166.129 105.9L166.098 105.984L163.335 113.168C163.335 113.168 162.901 115.344 162.506 116.58C162.26 117.423 162.064 118.281 161.92 119.147L161.894 119.303C161.89 119.324 161.886 119.345 161.882 119.364C161.874 119.404 161.867 119.44 161.867 119.471L161.849 119.587C161.849 119.587 162.056 121.148 161.73 121.648C161.405 122.147 161.05 123.647 161.05 124.059C161.05 124.472 161.077 126.06 161.077 126.06C161.077 126.06 161.207 129.208 160.88 129.561C160.552 129.914 160.73 130.208 160.73 130.208C160.73 130.208 161.251 132.576 161.014 133.194C160.777 133.812 160.955 135.252 160.955 135.252C160.955 135.252 160.483 139.813 160.422 140.048C160.361 140.283 160.033 142.11 160.39 142.256C160.748 142.402 161.427 143.284 161.427 143.284C161.427 143.284 161.577 147.134 161.044 147.429C160.511 147.723 160.805 149.224 160.805 149.224L160.578 149.266C160.6 149.374 160.623 149.491 160.643 149.607C160.727 149.953 160.762 150.309 160.748 150.665C160.711 150.928 160.786 151.194 160.955 151.399L161.087 152.601L161.132 153.019C161.132 153.019 158.646 154.635 157.401 154.401C156.156 154.166 154.881 154.813 154.881 154.813C154.022 155.744 152.942 156.442 151.741 156.844C149.726 157.515 146.914 157.254 145.313 156.725C144.556 156.475 144.496 156.147 144.862 155.752C145.246 155.331 146.103 154.825 147.11 154.23C147.163 154.199 147.216 154.168 147.269 154.136C149.314 152.93 151.504 150.547 151.504 150.547C151.504 150.547 151.542 149.958 151.899 149.694C152.115 149.506 152.313 149.299 152.491 149.074L152.663 148.877L152.465 148.847L152.761 147.88C152.743 147.914 152.548 148.228 152.406 147.024C152.26 145.759 153.503 146.377 153.503 146.377C153.503 146.377 154.48 146.615 152.911 145.084C151.342 143.553 152.102 141.994 152.201 141.994C152.299 141.994 152.497 139.73 152.497 139.73C152.497 139.73 152.761 138.376 152.556 137.317C152.351 136.257 152.173 132.963 152.173 132.963C152.173 132.963 152.319 130.465 152.053 129.551C151.809 128.714 152.161 127.263 152.29 126.731C152.302 126.682 152.312 126.641 152.319 126.609C152.408 126.226 152.053 122.725 152.053 122.725C152.053 122.725 152.351 121.081 152.173 119.874C151.996 118.666 152.351 114.224 152.351 114.224L152.901 109.12C152.901 109.12 153.286 107.532 153.227 106.884C153.168 106.237 153.671 103.972 153.671 103.972C153.641 103.489 153.722 103.007 153.908 102.561C154.027 102.267 154.107 101.959 154.147 101.645C153.292 101.011 152.783 99.8826 152.783 99.8826C152.717 99.7706 152.657 99.6554 152.603 99.5373L153.077 97.5382C153.077 97.5382 153.107 94.7715 153.403 94.2426C153.699 93.7137 153.876 92.1843 153.876 92.1843C153.876 92.1843 154.421 88.8137 154.516 88.0875C154.412 88.0687 154.306 88.0687 154.202 88.0875C154.202 88.0875 154.229 87.9493 154.277 87.7184C154.192 87.7123 154.107 87.7176 154.024 87.7342C154.024 87.7342 155.299 81.3442 155.98 79.9076C156.661 78.4709 156.542 74.5241 156.542 74.5241C156.542 74.5241 155.208 74.9365 155.149 75.2898C155.09 75.643 153.373 78.0249 153.373 78.0249C153.373 78.0249 152.98 79.4675 151.202 80.4088C149.424 81.3502 147.47 80.2312 147.174 79.8504C146.908 79.505 141.728 77.2336 140.69 76.7817L140.508 76.7027L140.52 76.6416V76.61L140.323 76.5271L140.52 76.5883C140.548 76.462 140.603 76.235 140.686 75.939C140.695 75.9287 140.695 75.9223 140.696 75.9126C140.697 75.9057 140.697 75.8969 140.702 75.8838C140.706 75.8694 140.709 75.8588 140.712 75.8466C140.716 75.8319 140.721 75.8151 140.729 75.7871C140.734 75.773 140.738 75.7587 140.743 75.7442C140.755 75.7055 140.767 75.6654 140.779 75.6252L140.796 75.566C140.803 75.5453 140.81 75.5246 140.817 75.5037C140.829 75.4688 140.84 75.4333 140.852 75.3963C140.861 75.3884 140.861 75.3707 140.861 75.3707C140.95 75.0983 141.059 74.8003 141.187 74.4925L140.425 73.5058L140.335 73.4387L136.792 70.1292C136.162 69.5415 135.805 68.717 135.809 67.855C135.813 66.993 136.178 66.172 136.814 65.5903C137.15 65.2807 137.3 65.6843 137.35 65.8199C137.356 65.8373 137.361 65.8503 137.364 65.8568C139.587 66.1291 143.37 69.6813 143.37 69.6813L143.835 70.1983L144.009 70.3956C144.048 70.237 144.031 70.0699 143.962 69.922C143.855 69.7641 144.597 70.4548 144.948 70.7864C144.948 70.7824 144.948 70.7785 144.948 70.7745C144.952 70.7828 144.957 70.7908 144.962 70.7982L145.126 70.9522C145.659 71.8935 147.999 72.4224 147.999 72.4224L149.006 71.8047C149.095 70.6581 150.725 69.3043 150.725 69.3043C150.725 69.3043 151.206 68.7735 151.465 67.6269C151.723 66.4804 152.71 66.6264 152.71 66.6264L152.828 64.9509C152.828 64.9509 153.706 64.4773 153.618 63.538C153.529 62.5986 154.565 60.7752 154.565 60.7752C154.565 60.7752 155.031 60.5995 155.127 58.7445C155.224 56.8895 156.114 56.7711 156.114 56.7711L158.632 56.625C158.839 55.9186 164.231 55.066 164.231 55.066C164.231 55.066 165.178 54.7108 165.681 53.9471C166.184 53.1834 166.719 53.4478 166.719 53.4478L166.798 53.5248C166.795 53.4986 166.792 53.4763 166.789 53.4522C166.786 53.4271 166.783 53.4001 166.778 53.3649C166.776 53.3389 166.771 53.3134 166.767 53.2884C166.76 53.247 166.753 53.2069 166.753 53.1676C164.376 51.9869 162.871 49.5637 162.867 46.9098V46.8092V46.6296C162.676 46.7193 162.478 46.7925 162.275 46.8487C162.226 46.8625 162.174 46.8743 162.125 46.8842C161.927 46.9263 161.724 46.9422 161.521 46.9316C161.5 46.9299 161.48 46.927 161.459 46.9241C161.43 46.9199 161.4 46.9158 161.371 46.9158C161.284 46.9035 161.197 46.8844 161.113 46.8585L161.071 46.8487C161.101 46.7539 161.134 46.6632 161.168 46.5724C161.46 45.7736 161.915 45.0443 162.504 44.4312C162.641 44.311 162.753 44.1648 162.834 44.001C162.887 43.8563 162.896 43.6989 162.859 43.5491C162.793 43.3123 162.701 43.0834 162.585 42.8663L162.561 42.811L162.532 42.7439C162.528 42.7339 162.524 42.724 162.52 42.7142C162.506 42.6793 162.493 42.6451 162.48 42.6097C162.48 42.6019 162.48 42.5939 162.48 42.5861C162.478 42.5789 162.475 42.5709 162.472 42.5626C162.459 42.5229 162.443 42.4751 162.443 42.4637V42.4223C162.431 42.3735 162.423 42.324 162.417 42.2743C162.413 42.2217 162.413 42.1689 162.417 42.1164C162.417 42.1099 162.417 42.1042 162.416 42.0985C162.415 42.0869 162.415 42.075 162.417 42.0552C162.421 42.0256 162.427 41.9921 162.433 41.9664C162.438 41.9457 162.444 41.9237 162.449 41.9046C162.45 41.9 162.452 41.8956 162.453 41.8914C162.455 41.8833 162.458 41.8755 162.462 41.8677C162.467 41.8547 162.472 41.8419 162.472 41.8283C162.585 41.535 162.774 41.2769 163.019 41.0803C163.172 40.9532 163.337 40.8431 163.503 40.7331C163.714 40.5922 163.925 40.4514 164.11 40.2752C164.485 39.9196 164.733 39.4436 164.981 38.9689C165.255 38.4451 165.527 37.9228 165.967 37.5656C166.696 36.9736 167.698 36.9835 168.604 37.1098C168.731 37.1276 168.86 37.147 168.988 37.1665C169.772 37.2853 170.568 37.4061 171.321 37.167C171.667 37.0563 171.986 36.8739 172.305 36.6912C172.59 36.5286 172.874 36.3658 173.178 36.2533C174.528 35.7501 176.17 36.4191 176.867 37.7571C177.102 38.2118 177.233 38.7094 177.363 39.2072C177.464 39.5906 177.565 39.9742 177.713 40.3383C177.825 40.6126 177.962 40.8732 178.1 41.1338C178.239 41.3982 178.378 41.6624 178.491 41.9407C178.748 42.6001 178.849 43.31 178.785 44.0148C178.775 44.1391 178.757 44.2615 178.737 44.3839C178.735 44.399 178.731 44.4142 178.728 44.4294C178.722 44.4537 178.716 44.478 178.716 44.5023C178.698 44.5911 178.678 44.6799 178.657 44.7667L178.627 44.8772C178.593 44.9976 178.552 45.1259 178.511 45.2344C178.469 45.3429 178.424 45.4515 178.374 45.5561C178.266 45.7911 178.143 46.0205 178.02 46.2496C177.758 46.7398 177.497 47.2283 177.376 47.7663C177.334 47.9718 177.303 48.1792 177.283 48.3879C177.281 48.4042 177.278 48.4205 177.275 48.4369C177.268 48.476 177.261 48.5153 177.261 48.5557C177.261 48.5635 177.262 48.5692 177.263 48.5749C177.264 48.5865 177.265 48.5983 177.261 48.6287C177.255 48.6741 177.246 48.7392 177.242 48.7629C177.24 48.7737 177.238 48.7808 177.237 48.7896C177.235 48.8001 177.232 48.8131 177.228 48.8379C177.226 48.8497 177.224 48.8631 177.222 48.8767C177.216 48.9152 177.21 48.956 177.2 48.9721C177.186 48.9938 177.186 49.0175 177.186 49.0392C177.171 49.1082 177.151 49.1734 177.129 49.2365C177.026 49.5601 176.8 49.8302 176.5 49.9884C176.491 49.9917 176.482 49.9961 176.474 50.0005C176.457 50.0092 176.44 50.018 176.423 50.018C176.359 50.0378 176.292 50.0484 176.225 50.0496C176.221 50.0589 176.216 50.0683 176.212 50.0777C176.189 50.126 176.165 50.1753 176.138 50.2232C175.841 50.7748 175.471 51.2839 175.037 51.7369C175.107 52.0012 175.197 52.2598 175.306 52.5104L175.318 52.5321C175.325 52.5446 175.337 52.5631 175.351 52.5869C175.518 52.8599 176.104 53.8189 176.433 54.0695L177.703 55.0404C177.703 55.0404 178.978 55.6324 179.422 55.6324C179.866 55.6324 182.266 56.2501 182.564 56.5737C182.706 56.6871 182.884 56.7459 183.065 56.7395C183.274 56.7262 183.483 56.7005 183.689 56.6625L183.807 56.7C183.947 56.6803 184.044 56.6625 184.044 56.6625C184.044 56.6625 185.019 56.9941 185.879 57.1914C186.74 57.3888 187.154 58.8037 186.977 59.3622C186.832 59.9275 186.989 60.5274 187.393 60.9488C187.748 61.3021 187.926 62.4486 187.926 62.4486C188.361 62.5904 188.723 62.8972 188.934 63.3031C189.139 63.7491 189.153 64.5661 189.153 65.024C189.141 65.2272 189.141 65.3614 189.141 65.3614C189.145 65.3614 190.919 65.393 191.097 66.8632C191.275 68.3334 192.903 69.0103 192.903 69.0103C192.903 69.0103 194.118 70.2161 194.118 70.7745C194.118 71.1738 194.587 71.799 194.855 72.1555C194.961 72.2976 195.036 72.397 195.036 72.4224C195.036 72.4471 195.105 72.6046 195.202 72.8258ZM185.376 80.2806C185.398 79.8346 187.273 77.8039 188.161 77.7151C188.161 77.7151 188.303 76.5192 187.918 76.4896C187.533 76.46 187.207 75.5187 187.207 75.5187C187.207 75.5187 185.346 73.342 184.754 71.4968L184.723 71.5422C184.723 71.5422 184.784 73.9241 184.604 74.453C184.502 74.7609 184.729 77.9282 184.938 80.5272C184.946 80.6307 184.954 80.7335 184.963 80.8353C184.969 80.9142 184.975 80.9924 184.981 81.0699C185.165 80.8252 185.362 80.5134 185.376 80.2806Z" fill="url(#paint0_linear_81_11001)"/>
<path d="M140.668 77.0459C140.668 77.0459 141.747 71.3821 145.223 71.3525L147.762 76.5782L146.069 77.7465C146.069 77.7465 142.391 77.8629 140.668 77.0459Z" fill="#65617D"/>
<path opacity="0.1" d="M147.762 76.5781L146.069 77.7464C146.069 77.7464 143.48 77.8293 141.629 77.3734C141.299 77.2952 140.977 77.1855 140.668 77.0458C140.668 77.0458 140.668 77.0143 140.688 76.955C140.688 76.955 140.688 76.9412 140.688 76.9333C140.847 76.2225 141.067 75.5267 141.345 74.8533C141.453 74.5988 141.574 74.3363 141.704 74.0738C142.213 73.0871 142.928 72.1359 143.906 71.6603C144.268 71.4827 144.662 71.38 145.065 71.3584H145.167H145.219L145.274 71.4748L146.132 73.2391L147.762 76.5781Z" fill="black"/>
<path d="M176.606 100.109C176.606 100.109 180.257 99.7598 180.577 100.022C180.896 100.285 182.97 101.627 184.198 100.78C185.425 99.9335 184.606 96.9852 184.606 96.8687C184.606 96.7523 184.49 92.5765 184.49 92.5765L182.3 89.6282L179.556 84.4618L173.952 83.9053L174.098 92.1108L174.068 96.3142L176.606 100.109Z" fill="#65617D"/>
<path opacity="0.1" d="M176.606 100.109C176.606 100.109 180.257 99.7598 180.577 100.022C180.896 100.285 182.97 101.627 184.198 100.78C185.425 99.9335 184.606 96.9852 184.606 96.8687C184.606 96.7523 184.49 92.5765 184.49 92.5765L182.3 89.6282L179.556 84.4618L173.952 83.9053L174.098 92.1108L174.068 96.3142L176.606 100.109Z" fill="black"/>
<path d="M144.493 71.2025C144.493 71.2025 144.2 74.7645 141.982 74.8217C141.982 74.8217 141.353 74.4428 140.506 73.8113C138.556 72.353 135.464 69.5487 136.319 66.9399C137.544 63.2041 143.5 70.0973 143.5 70.0973L143.956 70.6104L144.493 71.2025Z" fill="#FBBEBE"/>
<path opacity="0.1" d="M144.493 71.2024C144.493 71.2024 144.201 74.7644 141.982 74.8217C141.982 74.8217 141.353 74.4428 140.506 73.8113L140.319 73.5685C140.695 73.7649 141.11 73.8767 141.534 73.8961C142.218 73.9233 142.846 73.5249 143.113 72.8956C143.347 72.4376 143.552 71.9657 143.727 71.4826C143.835 71.2011 143.912 70.9086 143.956 70.6104L144.493 71.2024Z" fill="black"/>
<path d="M143.53 77.6599L143.03 77.0165L141.349 74.8458L140.492 73.7387C140.869 73.936 141.284 74.0479 141.708 74.0662C142.267 74.0801 142.892 73.8689 143.287 73.0677C143.52 72.6089 143.725 72.1363 143.901 71.6527C144.177 70.8634 144.173 70.4687 144.074 70.3246C143.976 70.1806 144.694 70.8535 145.039 71.1811L145.051 71.1929L145.213 71.3449L145.272 71.4633L146.119 73.1545C146.119 73.1545 146.119 73.1782 146.119 73.2256C146.202 73.7683 146.488 77.1764 143.53 77.6599Z" fill="#E7EFFD"/>
<path d="M161.018 152.806C161.018 152.806 158.565 154.412 157.34 154.187C156.114 153.962 154.857 154.598 154.857 154.598C154.012 155.52 152.947 156.214 151.761 156.612C149.787 157.283 147.005 157.019 145.428 156.494C144.682 156.245 144.621 155.926 144.98 155.529C145.375 155.087 146.294 154.556 147.348 153.925C149.363 152.729 151.522 150.372 151.522 150.372C151.522 150.372 151.551 149.78 151.903 149.528C152.119 149.342 152.317 149.135 152.495 148.912C152.809 148.541 153.103 148.154 153.103 148.154L160.317 148.363C160.317 148.363 160.44 148.882 160.536 149.413C160.619 149.758 160.653 150.112 160.637 150.465C160.6 150.725 160.671 150.988 160.834 151.193L160.965 152.377L161.018 152.806Z" fill="#65617D"/>
<path d="M176.111 154.821C176.024 155.17 175.913 155.796 175.872 156.09L175.846 156.252C175.846 156.252 175.254 157.536 172.024 158.004C168.793 158.472 168.783 156.923 168.783 156.923C168.783 156.923 168.795 156.757 168.815 156.506C168.872 155.823 168.989 154.515 169.076 154.237C169.19 153.858 168.987 152.192 168.987 152.192L168.953 150.454L168.928 149.246L174.301 148.689C174.334 149.091 174.392 149.491 174.475 149.885C174.508 150.105 174.588 150.314 174.71 150.499C175.002 150.821 175.175 152.251 175.175 152.251C175.175 152.251 176.227 154.353 176.111 154.821Z" fill="#65617D"/>
<path opacity="0.1" d="M160.317 148.364C160.317 148.364 160.44 148.883 160.536 149.414C159.757 149.558 156.351 150.148 155.5 149.735C154.535 149.268 152.463 149.005 152.463 149.005L152.497 148.887C152.81 148.516 153.104 148.129 153.104 148.129L160.317 148.364Z" fill="black"/>
<path opacity="0.1" d="M174.475 149.885C173.113 149.654 170.133 150.213 168.949 150.454L168.924 149.246L174.297 148.689C174.332 149.091 174.391 149.491 174.475 149.885Z" fill="black"/>
<path d="M177.504 105.627L177.388 109.744C177.388 109.744 177.534 116.021 177.096 117.014C176.657 118.007 176.657 122.007 176.657 122.007C176.657 122.007 176.95 123.903 176.628 124.312C176.306 124.72 176.541 126.238 176.774 127.027C177.007 127.817 176.803 129.772 176.803 129.772L176.744 140.808C176.744 140.808 176.425 143.667 176.014 144.078C175.774 144.324 175.686 144.681 175.781 145.011C175.781 145.011 175.432 146.645 175.519 146.939C175.606 147.233 175.781 147.902 175.11 148.222C174.439 148.542 174.613 149.566 174.613 149.566C173.009 149.185 168.454 150.209 168.454 150.209C167.962 149.195 167.533 148.151 167.169 147.083C167.01 146.646 167.048 146.162 167.271 145.754C167.495 145.346 167.884 145.055 168.337 144.954C168.949 144.865 167.899 143.786 167.899 143.786C167.899 143.786 168.016 143.64 167.724 142.59C167.432 141.54 167.781 138.84 167.87 138.149C167.959 137.459 168.395 134.063 168.395 134.063C168.395 134.063 168.162 129.772 168.337 129.597C168.513 129.421 169.095 127.728 168.805 127.173C168.515 126.619 168.043 122.97 168.043 122.765C168.043 122.559 167.667 117.831 167.667 117.831C167.667 117.831 167.315 114.531 167.404 113.831C167.493 113.13 167.169 110.533 167.169 110.533C167.169 108.363 165.914 106.036 165.914 106.036L165.883 106.121L163.177 113.249C163.177 113.249 162.739 115.408 162.36 116.633C162.12 117.467 161.93 118.313 161.79 119.169L161.764 119.325C161.764 119.39 161.744 119.445 161.738 119.489L161.721 119.607C161.721 119.607 161.918 121.154 161.602 121.652C161.286 122.149 160.931 123.637 160.931 124.045C160.931 124.454 160.961 126.031 160.961 126.031C160.961 126.031 161.077 129.155 160.763 129.506C160.45 129.857 160.615 130.147 160.615 130.147C160.615 130.147 161.14 132.515 160.908 133.125C160.675 133.735 160.85 135.168 160.85 135.168C160.85 135.168 160.383 139.695 160.325 139.928C160.268 140.16 159.944 141.972 160.296 142.118C160.647 142.264 161.316 143.138 161.316 143.138C161.316 143.138 161.464 146.965 160.937 147.255C160.41 147.545 160.702 149.031 160.702 149.031C160.702 149.031 156.471 149.848 155.508 149.38C154.545 148.913 152.471 148.65 152.471 148.65L152.761 147.691C152.743 147.725 152.55 148.036 152.412 146.84C152.268 145.585 153.493 146.197 153.493 146.197C153.493 146.197 154.456 146.432 152.901 144.914C151.346 143.397 152.112 141.848 152.201 141.848C152.29 141.848 152.495 139.602 152.495 139.602C152.495 139.602 152.757 138.258 152.552 137.206C152.347 136.154 152.173 132.884 152.173 132.884C152.173 132.884 152.319 130.404 152.057 129.5C151.794 128.596 152.23 126.958 152.319 126.579C152.408 126.2 152.047 122.735 152.047 122.735C152.047 122.735 152.339 121.101 152.163 119.905C151.988 118.709 152.339 114.299 152.339 114.299L152.864 109.219C152.864 109.219 153.243 107.64 153.185 106.999C153.128 106.358 153.626 104.11 153.626 104.11C153.596 103.631 153.675 103.152 153.858 102.709C154.15 102.117 154.267 100.198 154.267 100.198L157.071 93.7749L158.453 88.1112L176.989 87.9355C176.989 87.9355 177.058 88.4269 177.171 89.3169C177.283 90.207 177.441 91.5292 177.617 93.1612C177.778 94.6432 177.956 96.3858 178.128 98.3257C178.688 104.518 177.504 105.627 177.504 105.627Z" fill="#3F3D56"/>
<path d="M175.789 54.5073L171.467 59.1212C171.467 59.1212 165.922 56.9011 166.506 56.1433C166.731 55.8493 166.704 54.9218 166.565 53.8995C166.368 52.2813 165.922 50.4204 165.922 50.4204C165.922 50.4204 175.614 48.8416 174.803 50.4776C174.505 51.0696 174.556 51.7722 174.741 52.4175C174.976 53.1659 175.33 53.8715 175.789 54.5073Z" fill="#FBBEBE"/>
<path opacity="0.1" d="M174.797 50.4819C174.499 51.074 174.357 51.1371 174.542 51.7824C173.275 53.1382 171.663 54.6261 169.658 54.6261C168.585 54.6278 167.526 54.3798 166.565 53.9019C166.368 52.2837 165.922 50.4227 165.922 50.4227C165.922 50.4227 175.614 48.844 174.797 50.4819Z" fill="black"/>
<path d="M176.608 47.4999C176.544 51.2923 173.452 54.3332 169.659 54.3332C165.866 54.3332 162.773 51.2923 162.709 47.4999C162.709 47.4664 162.709 47.4328 162.709 47.4012C162.736 43.5637 165.869 40.4749 169.707 40.5021C173.545 40.5294 176.633 43.6624 176.606 47.4999H176.608Z" fill="#FBBEBE"/>
<path opacity="0.1" d="M177.613 93.3404C176.693 93.3404 173.628 93.3739 170.202 93.4272H170.161L169.03 93.4469H168.995C164.933 93.5121 160.929 92.7187 159.325 92.8687C155.911 93.1884 160.552 89.7112 160.552 89.7112C163.098 90.3298 165.716 90.5954 168.334 90.5006L169.32 90.4493C172.423 90.2737 175.542 89.9816 177.173 89.4922C177.281 90.396 177.437 91.7084 177.613 93.3404Z" fill="black"/>
<path d="M177.613 93.1646C176.693 93.1646 173.628 93.1981 170.202 93.2514H170.161L169.03 93.2711H168.995C164.933 93.3363 160.929 92.5429 159.325 92.6929C155.911 93.0146 160.552 89.5354 160.552 89.5354C163.098 90.154 165.716 90.4196 168.334 90.3248L169.32 90.2735C172.423 90.0979 175.542 89.8058 177.173 89.3184C177.281 90.2222 177.437 91.5286 177.613 93.1646Z" fill="#5F5D7E"/>
<path opacity="0.1" d="M167.791 56.4337L162.419 58.9458L158.275 91.0003C158.275 91.0003 160.726 89.8912 162.129 90.5918C163.532 91.2923 167.852 90.651 167.852 90.651C167.852 90.651 171.009 90.4753 171.473 90.8266C171.937 91.1779 177.425 89.3584 177.425 89.3584C177.425 89.3584 178.412 87.1402 177.658 86.7929C176.904 86.4456 177.899 83.002 177.899 83.002L177.425 59.8793L176.49 56.9014L173.979 55.3838L171.414 57.4263L170.189 57.6019L167.791 56.4337Z" fill="black"/>
<path d="M167.791 56.0841L162.419 58.5943L158.275 90.6507C158.275 90.6507 160.726 89.5416 162.129 90.2422C163.532 90.9427 167.852 90.2994 167.852 90.2994C167.852 90.2994 171.009 90.1257 171.473 90.475C171.937 90.8243 177.429 89.0147 177.429 89.0147C177.429 89.0147 178.416 86.7966 177.662 86.4492C176.908 86.1019 177.899 82.6484 177.899 82.6484L177.425 59.5277L176.49 56.5518L173.979 55.0322L171.414 57.0767L170.189 57.2523L167.791 56.0841Z" fill="#E7EFFD"/>
<path opacity="0.1" d="M167.702 57.5723C167.702 57.5723 169.249 59.4116 169.222 59.7924C169.194 60.1733 169.133 61.0771 169.133 61.0771L167.965 63.4452C167.965 63.4452 167.323 66.3936 167.323 67.0073C167.323 67.621 166.301 72.9276 166.301 72.9276L165.072 81.1035L163.524 91.8192L165.103 94.5327L166.97 92.954L169.453 73.859L169.978 70.0937C169.978 70.0937 170.532 63.3209 170.532 62.6204C170.532 61.9198 170.212 60.0805 170.212 60.0805C170.212 60.0805 170.591 58.3281 172.168 57.9098C173.745 57.4914 172.052 57.821 172.052 57.821L171.146 57.0928L170.356 57.4125C170.356 57.4125 168.17 56.7553 167.702 57.5723Z" fill="black"/>
<path d="M167.526 57.3984C167.526 57.3984 169.075 59.2376 169.046 59.6165C169.016 59.9954 168.957 60.9012 168.957 60.9012L167.791 63.2693C167.791 63.2693 167.147 66.2176 167.147 66.8314C167.147 67.4451 166.125 72.7517 166.125 72.7517L164.9 80.9256L163.353 91.6413L164.931 94.3568L166.8 92.778L169.281 73.6851L169.808 69.9218C169.808 69.9218 170.362 63.1489 170.362 62.4484C170.362 61.7478 170.042 59.9086 170.042 59.9086C170.042 59.9086 170.421 58.1562 171.998 57.7477C173.575 57.3392 171.882 57.6608 171.882 57.6608L170.976 56.9307L170.187 57.2523C170.187 57.2523 167.994 56.5794 167.526 57.3984Z" fill="#08E179"/>
<path opacity="0.1" d="M166.506 54.332C166.506 54.332 166.271 54.5077 166.214 55.6759C166.157 56.8442 165.338 59.4708 165.338 59.4708C165.338 59.4708 168.375 57.3691 169.893 57.602L166.506 54.332Z" fill="black"/>
<path d="M166.506 53.9824C166.506 53.9824 166.271 54.1561 166.214 55.3244C166.157 56.4926 165.338 59.1193 165.338 59.1193C165.338 59.1193 168.375 57.0176 169.893 57.2524L166.506 53.9824Z" fill="#E7EFFD"/>
<path opacity="0.1" d="M174.797 53.3984L170.005 57.6018C170.005 57.6018 174.035 59.9956 174.56 60.5798C175.085 61.1639 175.61 54.8568 175.61 54.8568L174.797 53.3984Z" fill="black"/>
<path d="M174.972 53.0469L170.185 57.2523C170.185 57.2523 174.212 59.646 174.741 60.2302C175.27 60.8143 175.791 54.5072 175.791 54.5072L174.972 53.0469Z" fill="#E7EFFD"/>
<path opacity="0.1" d="M166.68 54.3319C166.68 54.3319 166.155 54.0694 165.66 54.8292C165.295 55.3245 164.799 55.7085 164.229 55.9383C164.229 55.9383 158.914 56.7849 158.703 57.4854L156.221 57.6315C156.221 57.6315 155.344 57.7479 155.258 59.5872C155.171 61.4264 154.703 61.602 154.703 61.602C154.703 61.602 153.681 63.4117 153.77 64.3451C153.858 65.2785 152.98 65.7482 152.98 65.7482L156.629 75.2365C156.629 75.2365 156.748 79.1478 156.075 80.5785C155.402 82.0093 154.149 88.344 154.149 88.344C154.149 88.344 154.673 88.2276 154.644 88.5769C154.614 88.9261 154.02 92.7526 154.02 92.7526C154.02 92.7526 153.845 94.2702 153.553 94.7971C153.26 95.324 153.231 98.0651 153.231 98.0651L152.765 100.05C152.765 100.05 153.874 102.533 155.567 102.182C157.261 101.83 160.325 95.2056 160.325 95.2056L162.283 88.0519L163.801 80.987L164.239 76.1995L164.939 65.6022L165.961 58.5945C165.961 58.5945 167.09 54.8233 166.68 54.3319Z" fill="black"/>
<path d="M166.506 53.9824C166.506 53.9824 165.979 53.72 165.484 54.4778C165.12 54.9737 164.624 55.3578 164.053 55.5868C164.053 55.5868 158.741 56.4334 158.528 57.134L156.045 57.28C156.045 57.28 155.171 57.3984 155.082 59.2377C154.993 61.0769 154.527 61.2506 154.527 61.2506C154.527 61.2506 153.505 63.0622 153.594 63.9956C153.683 64.9291 152.805 65.3968 152.805 65.3968L156.455 74.885C156.455 74.885 156.572 78.7964 155.901 80.2271C155.23 81.6578 153.973 87.9945 153.973 87.9945C153.973 87.9945 154.498 87.8761 154.47 88.2274C154.443 88.5787 153.827 92.4012 153.827 92.4012C153.827 92.4012 153.651 93.9207 153.359 94.4457C153.067 94.9706 153.039 97.7156 153.039 97.7156L152.572 99.7009C152.572 99.7009 153.681 102.182 155.374 101.832C157.067 101.483 160.138 94.8542 160.138 94.8542L162.094 87.7024L163.611 80.6376L164.049 75.848L164.75 65.2507L165.772 58.245C165.772 58.245 166.915 54.4778 166.506 53.9824Z" fill="#5AA2CA"/>
<path opacity="0.1" d="M147.763 76.578L146.069 77.7463C146.069 77.7463 143.48 77.8292 141.629 77.3733L140.688 76.955L140.49 76.8721L140.688 76.9333C141.665 77.2234 142.428 77.2174 143.026 77.0161C145.422 76.209 145.158 72.2523 145.065 71.3583C145.065 71.2675 145.049 71.2103 145.045 71.1886C145.045 71.1847 145.045 71.1807 145.045 71.1768L145.059 71.2004C145.092 71.2544 145.129 71.3058 145.169 71.3544C145.203 71.3919 145.239 71.4313 145.276 71.4688L146.123 73.1601C146.123 73.1601 146.123 73.1837 146.123 73.2311L147.763 76.578Z" fill="black"/>
<path d="M153.626 65.1641L152.807 65.3969L152.69 67.0605C152.69 67.0605 151.727 66.9145 151.465 68.0472C151.202 69.18 150.734 69.7128 150.734 69.7128C150.734 69.7128 149.128 71.0548 149.041 72.1934L148.055 72.8072C148.055 72.8072 145.748 72.2803 145.223 71.3468C145.223 71.3468 146.274 78.8794 140.668 77.0402C140.668 77.0402 146.945 79.7832 147.238 80.1641C147.53 80.545 149.456 81.6521 151.208 80.7186C152.96 79.7852 153.339 78.3505 153.339 78.3505C153.339 78.3505 155.033 75.9824 155.09 75.6351C155.147 75.2878 156.471 74.8753 156.471 74.8753L158.981 68.8031L153.626 65.1641Z" fill="#5AA2CA"/>
<path opacity="0.1" d="M174.126 56.901L174.972 53.0469C174.972 53.0469 175.351 54.302 175.732 54.594L176.987 55.5591C176.987 55.5591 178.242 56.1412 178.68 56.1412C179.118 56.1412 181.483 56.755 181.775 57.0766C182.067 57.3983 183.235 57.1635 183.235 57.1635C183.235 57.1635 184.198 57.4851 185.045 57.6884C185.891 57.8916 186.3 59.2948 186.124 59.8592C185.979 60.4206 186.134 61.0171 186.533 61.4379C186.884 61.7892 187.06 62.9278 187.06 62.9278C187.487 63.069 187.842 63.3733 188.046 63.7744C188.338 64.4158 188.244 65.8169 188.244 65.8169L183.902 71.9484C183.902 71.9484 183.959 74.3165 183.786 74.8395C183.612 75.3624 184.397 84.2981 184.397 84.2981L185.303 99.6534C185.303 99.6534 184.105 100.676 183.843 100.792C183.58 100.908 183.318 95.3632 183.318 95.1579C183.318 94.9527 176.575 85.0559 176.575 85.0559C176.575 85.0559 175.669 83.5976 175.669 83.2798C175.669 82.9621 174.822 80.0099 174.822 80.0099L173.538 74.3165L174.126 56.901Z" fill="black"/>
<path d="M188.616 65.4795C188.616 65.6768 188.616 65.815 188.616 65.815L184.275 71.9326C184.275 71.9326 184.334 74.3007 184.16 74.8217C184.058 75.1276 184.281 78.2693 184.488 80.8505C184.634 82.7115 184.772 84.2804 184.772 84.2804L185.157 90.7927L185.676 99.6337C185.676 99.6337 184.48 100.656 184.218 100.772C183.955 100.889 183.693 95.3434 183.693 95.1382C183.693 94.9329 176.947 85.0382 176.947 85.0382C176.947 85.0382 176.042 83.5759 176.042 83.2621C176.042 82.9483 175.195 79.9921 175.195 79.9921L173.912 74.2988L174.495 56.899L174.972 53.0469C174.972 53.0469 175.702 54.304 176.081 54.594L177.336 55.5571C177.336 55.5571 178.591 56.1491 179.029 56.1491C179.468 56.1491 181.834 56.7609 182.126 57.0825C182.418 57.4042 183.584 57.1694 183.584 57.1694C183.584 57.1694 184.547 57.491 185.394 57.6943C186.24 57.8976 186.651 59.3007 186.475 59.8651C186.33 60.4266 186.484 61.0234 186.884 61.4438C187.233 61.7931 187.409 62.9318 187.409 62.9318C187.836 63.0742 188.191 63.379 188.395 63.7804C188.605 64.2047 188.624 65.0157 188.616 65.4795Z" fill="#5AA2CA"/>
<path opacity="0.1" d="M152.931 143.261C153.075 143.261 159.206 143.494 159.09 144.486C158.974 145.479 152.931 143.261 152.931 143.261Z" fill="black"/>
<path opacity="0.1" d="M154.302 144.924C154.302 144.924 158.419 145.595 157.338 146.209C156.256 146.822 154.302 144.924 154.302 144.924Z" fill="black"/>
<path opacity="0.1" d="M169.61 142.617C169.61 142.617 176.442 143.209 175.42 143.961C174.398 144.713 171.975 144.835 171.868 144.865C171.761 144.895 169.61 142.617 169.61 142.617Z" fill="black"/>
<path opacity="0.1" d="M168.783 145.625C168.783 145.625 172.578 146.266 172.695 147.006C172.811 147.746 168.783 145.625 168.783 145.625Z" fill="black"/>
<path opacity="0.1" d="M170.885 128.049C170.885 128.049 174.358 128.866 174.564 129.43L170.885 128.049Z" fill="black"/>
<path opacity="0.1" d="M157.484 130.56C157.484 130.56 155.674 131.085 157.426 132.138C159.179 133.192 157.484 130.56 157.484 130.56Z" fill="black"/>
<path opacity="0.1" d="M165.514 102.504C165.711 102.504 168.9 101.454 170.009 101.912C170.803 102.21 171.642 102.369 172.49 102.383L165.514 102.504Z" fill="black"/>
<path opacity="0.1" d="M165.922 105.83L165.891 106.12L163.177 113.248C163.177 113.248 162.739 115.407 162.36 116.633C162.121 117.466 161.93 118.313 161.79 119.168L164.199 104.226L165.922 105.83Z" fill="black"/>
<path d="M170.161 93.2513L169.03 93.2711H168.995L168.332 90.3287L169.318 90.2754L170.161 93.2513Z" fill="#3F3D56"/>
<path d="M183.936 89.6881L183.207 90.2801L180.782 92.2792C180.782 92.2792 174.213 95.784 172.403 92.4548C170.808 89.5223 178.256 87.4285 180.05 86.9726C180.293 86.9115 180.431 86.8799 180.431 86.8799L183.936 89.6881Z" fill="#FBBEBE"/>
<path opacity="0.1" d="M155.879 60.9883C155.879 60.9883 157.164 61.5803 157.458 62.3894C157.752 63.1985 155.879 60.9883 155.879 60.9883Z" fill="black"/>
<path opacity="0.1" d="M151.909 69.7461C151.909 69.7461 150.04 72.0234 150.8 72.9036C151.559 73.7837 151.909 69.7461 151.909 69.7461Z" fill="black"/>
<path opacity="0.1" d="M185.307 62.2725C185.307 62.2725 183.555 62.4481 183.497 63.9657L185.307 62.2725Z" fill="black"/>
<path opacity="0.1" d="M169.076 86.2127C169.249 86.0371 173.279 80.0813 174.207 80.6082L169.076 86.2127Z" fill="black"/>
<path opacity="0.1" d="M176.608 47.4999C176.61 48.6445 176.327 49.7716 175.785 50.7798L175.734 50.7699C175.294 50.6771 175.065 50.164 174.727 49.8444C174.303 49.4399 173.668 49.351 173.149 49.6233C172.628 49.936 172.329 50.5157 172.375 51.1212C172.152 50.1858 172.223 49.1931 172.006 48.2557C171.789 47.3184 171.136 46.3711 170.24 46.3553C169.845 46.3553 169.405 46.4954 169.125 46.2073C168.957 46.0337 168.928 45.7594 168.797 45.5462C168.158 44.5121 166.21 45.0351 165.415 45.566C164.62 46.0968 163.698 46.9474 162.709 47.4012C162.736 43.5637 165.869 40.4749 169.707 40.5021C173.545 40.5294 176.633 43.6624 176.606 47.4999H176.608Z" fill="black"/>
<path d="M168.799 45.3723C168.926 45.5834 168.959 45.8577 169.127 46.0314C169.405 46.3215 169.857 46.1715 170.242 46.1794C171.138 46.1952 171.791 47.1424 172.008 48.0798C172.225 49.0172 172.154 50.0098 172.377 50.9452C172.33 50.3392 172.631 49.7589 173.153 49.4474C173.672 49.175 174.307 49.2639 174.731 49.6684C175.069 49.9881 175.298 50.5012 175.738 50.594C176.178 50.6867 176.602 50.2644 176.762 49.8046C176.922 49.3448 176.91 48.8317 177.015 48.3502C177.212 47.4404 177.804 46.6925 178.136 45.8261C178.527 44.7727 178.516 43.6122 178.106 42.566C177.887 42.0174 177.561 41.5241 177.338 40.9774C177.003 40.1446 176.916 39.2013 176.505 38.412C175.819 37.0838 174.201 36.4208 172.868 36.9201C172.235 37.1569 171.684 37.6186 171.039 37.8259C170.177 38.1041 169.253 37.8949 168.361 37.7706C167.469 37.6463 166.48 37.6344 165.762 38.2205C164.935 38.8974 164.71 40.1683 163.933 40.9103C163.607 41.2221 163.203 41.4214 162.859 41.6997C162.516 41.978 162.218 42.4161 162.267 42.8838C162.318 43.4876 162.911 44.0362 162.691 44.5967C162.613 44.7592 162.503 44.9047 162.368 45.0249C161.718 45.7064 161.234 46.5291 160.955 47.4286C162.516 47.918 164.207 46.1952 165.431 45.3802C166.214 44.8611 168.16 44.3362 168.799 45.3723Z" fill="#7C5C5C"/>
<path opacity="0.1" d="M183.935 89.6881L183.207 90.2801C182.566 89.2145 179.935 87.0831 179.935 87.0831L180.05 86.9726C180.292 86.9115 180.431 86.8799 180.431 86.8799L183.935 89.6881Z" fill="black"/>
<path d="M184.636 88.6064C184.636 88.6064 184.374 89.2577 184.105 89.8181C183.837 90.3786 183.541 90.8917 183.527 90.4753C183.497 89.6583 180.111 86.9132 180.111 86.9132L180.571 86.4672L181.102 85.9502L184.636 88.6064Z" fill="#E7EFFD"/>
<path opacity="0.1" d="M184.753 84.2843L185.137 90.7966C184.23 89.3856 181.739 85.7703 180.139 85.8867L184.016 81.4248C184.178 81.2451 184.327 81.0546 184.462 80.8545C184.608 82.7154 184.753 84.2843 184.753 84.2843Z" fill="black"/>
<path opacity="0.1" d="M184.636 88.6065C184.636 88.6065 184.374 89.2577 184.105 89.8182C183.087 88.4229 181.688 86.7751 180.571 86.4633L181.102 85.9463L184.636 88.6065Z" fill="black"/>
<path d="M187.555 64.9883L188.607 65.8053C188.607 65.8053 190.357 65.8349 190.533 67.2952C190.708 68.7556 192.309 69.4265 192.309 69.4265C192.309 69.4265 193.505 70.6224 193.505 71.177C193.505 71.7315 194.41 72.7241 194.41 72.8129C194.41 72.9017 195.287 74.6818 195.168 75.0015C195.05 75.3212 196.104 76.7243 195.782 77.2492C195.518 77.7209 195.284 78.2086 195.081 78.7095C195.081 78.7095 193.71 81.3382 193.009 81.8335C192.309 82.3288 189.096 86.5046 189.096 86.5046C189.096 86.5046 185.652 90.4751 185.652 91.7006C185.652 91.7006 182.298 86.0961 180.308 86.2421L184.192 81.7743C184.192 81.7743 184.863 81.0461 184.893 80.608C184.922 80.1699 186.761 78.155 187.638 78.0682C187.638 78.0682 187.782 76.8703 187.403 76.8407C187.024 76.8111 186.702 75.8777 186.702 75.8777C186.702 75.8777 184.137 72.8425 184.103 70.9145C184.07 68.9865 187.555 64.9883 187.555 64.9883Z" fill="#5AA2CA"/>
<path opacity="0.1" d="M189.102 67.7607C189.102 67.7607 186.651 69.5724 187.176 70.1545C187.701 70.7367 189.102 67.7607 189.102 67.7607Z" fill="black"/>
<path opacity="0.1" d="M189.219 75.236C189.219 75.236 193.773 73.7756 194.241 75.236H189.219Z" fill="black"/>
<path opacity="0.1" d="M161.018 152.806C161.018 152.806 158.565 154.412 157.34 154.187C156.114 153.962 154.857 154.598 154.857 154.598C154.012 155.52 152.947 156.214 151.761 156.613C149.787 157.284 147.005 157.019 145.428 156.494C144.682 156.246 144.621 155.926 144.98 155.529C146.695 155.871 150.525 156.551 151.557 156.056C152.899 155.413 154.827 154.012 154.827 154.012C154.827 154.012 157.34 153.662 157.689 153.662C157.937 153.662 159.877 152.861 160.973 152.403L161.018 152.806Z" fill="black"/>
<path opacity="0.1" d="M175.872 156.09L175.846 156.252C175.846 156.252 175.254 157.536 172.024 158.004C168.793 158.472 168.783 156.923 168.783 156.923C168.783 156.923 168.795 156.757 168.815 156.506C169.841 156.895 172.079 157.329 175.872 156.09Z" fill="black"/>
<path opacity="0.1" d="M157.091 67.4111C157.091 67.4111 157.091 74.0675 156.521 74.7247C155.95 75.3818 157.091 67.4111 157.091 67.4111Z" fill="black"/>
<path opacity="0.1" d="M183.409 69.5566L184.255 71.9366C184.255 71.9366 184.593 69.6001 183.409 69.5566Z" fill="black"/>
<g opacity="0.1">
<path d="M162.767 44.0387C162.98 43.4901 162.419 42.9533 162.346 42.3652C162.272 42.5311 162.24 42.7129 162.253 42.8941C162.291 43.3362 162.617 43.7486 162.703 44.1591C162.728 44.1208 162.749 44.0806 162.767 44.0387Z" fill="black"/>
<path d="M172.456 50.3262C172.247 49.4066 172.308 48.4317 172.095 47.5101C171.882 46.5885 171.225 45.6255 170.331 45.6097C169.936 45.6097 169.494 45.7518 169.216 45.4637C169.046 45.29 169.018 45.0137 168.886 44.8026C168.247 43.7665 166.301 44.2915 165.504 44.8223C164.32 45.6117 162.67 47.2753 161.139 46.9003C161.065 47.076 160.998 47.2555 160.941 47.4391C162.502 47.9285 164.193 46.2057 165.417 45.3907C166.206 44.8618 168.16 44.3368 168.799 45.3729C168.926 45.5841 168.959 45.8584 169.127 46.032C169.405 46.3221 169.857 46.1721 170.242 46.18C171.138 46.1958 171.791 47.1431 172.008 48.0804C172.225 49.0178 172.154 50.0105 172.377 50.9459C172.363 50.7361 172.39 50.5256 172.456 50.3262Z" fill="black"/>
<path d="M176.845 49.2331C176.687 49.6949 176.271 50.1212 175.821 50.0225C175.371 49.9238 175.152 49.4167 174.816 49.095C174.39 48.6951 173.757 48.6074 173.238 48.8759C172.742 49.1714 172.445 49.7121 172.462 50.2889C172.58 49.9324 172.825 49.6319 173.151 49.4443C173.67 49.1719 174.305 49.2608 174.73 49.6653C175.067 49.985 175.296 50.4981 175.736 50.5909C176.176 50.6836 176.6 50.2613 176.76 49.8015C176.843 49.5284 176.897 49.2473 176.92 48.9628C176.901 49.0544 176.876 49.1447 176.845 49.2331Z" fill="black"/>
<path d="M178.218 45.2546C177.891 46.121 177.295 46.8669 177.098 47.7787C177.058 47.9622 177.034 48.1497 177.013 48.3391C177.21 47.4313 177.802 46.6874 178.132 45.823C178.277 45.4342 178.368 45.0271 178.402 44.6133C178.357 44.8314 178.296 45.0458 178.218 45.2546Z" fill="black"/>
</g>
<path d="M136.029 66.3931C136.068 66.3931 136.1 66.3613 136.1 66.322C136.1 66.2828 136.068 66.251 136.029 66.251C135.989 66.251 135.958 66.2828 135.958 66.322C135.958 66.3613 135.989 66.3931 136.029 66.3931Z" fill="#E6E8EC"/>
<path opacity="0.1" d="M161.237 158.09C170.647 158.09 178.276 157.312 178.276 156.352C178.276 155.392 170.647 154.613 161.237 154.613C151.827 154.613 144.198 155.392 144.198 156.352C144.198 157.312 151.827 158.09 161.237 158.09Z" fill="#30BE76"/>
<path d="M98.5828 42.3094L46.9756 75.7906L80.6542 136.533C80.9723 137.107 81.5161 137.522 82.154 137.677L112.669 145.121C113.747 145.382 114.86 144.855 115.341 143.856L130.477 112.41L147.066 90.2342L107.7 43.6612C105.434 40.9813 101.529 40.4024 98.5828 42.3094Z" fill="#DCDFED"/>
<path opacity="0.1" d="M147.591 90.4969L147.445 90.6943L137.728 103.685L137.552 103.92L131.002 112.676L118.057 139.576L117.693 140.328L115.866 144.123C115.384 145.123 114.269 145.651 113.19 145.388L82.6749 137.94C82.0369 137.785 81.4929 137.37 81.1751 136.796L78.2406 131.513L77.7137 130.562L56.5329 92.3441L56.3513 92.0184L47.4985 76.0534L48.5681 75.3587L56.677 70.0996L56.8644 69.9772L73.9405 58.8984L75.018 58.1998L99.1038 42.5722C102.05 40.6614 105.958 41.2397 108.225 43.922L126.183 65.1758L126.973 66.1231L140.007 81.5435L140.078 81.6283L146.632 89.38L147.457 90.3568L147.591 90.4969Z" fill="black"/>
<path opacity="0.1" d="M139.573 81.3661L137.982 92.4173L137.503 95.7524L137.228 102.857L137.207 103.411L135.78 140.532C135.752 141.229 135.416 141.878 134.863 142.303C134.311 142.729 133.597 142.887 132.916 142.736L117.535 139.302L117.37 139.265L77.9227 130.461L77.1985 130.299L55.5125 125.456L56.0098 92.0818L56.0255 90.9668L56.1755 80.8648L56.3413 69.7149L73.4174 58.6361L74.4949 57.9375C90.3336 59.5616 111.398 62.6856 125.668 64.9136L126.457 65.8608L139.482 81.2812L139.573 81.3661Z" fill="black"/>
<path d="M141.375 68.2625L139.502 81.2871L137.785 93.2146L137.305 96.5418L137.031 103.646L135.583 141.321C135.555 142.018 135.219 142.667 134.666 143.093C134.113 143.518 133.4 143.677 132.719 143.525L117.172 140.054L77.7255 131.25L55.3152 126.246L55.8283 91.7562L55.9783 81.6542L56.1539 69.8373L56.3335 57.6829C60.0396 57.5073 66.1375 57.904 73.4175 58.6361C89.718 60.2721 111.939 63.5815 126.467 65.8608C135.363 67.256 141.375 68.2625 141.375 68.2625Z" fill="#FFD800"/>
<path opacity="0.1" d="M146.127 89.1169L137.785 93.2079L95.2121 114.087L55.9784 81.6613L48.0471 75.0957L46.9775 75.7904L55.8303 91.7554L55.3173 126.245L77.7275 131.25L80.6561 136.533C80.9739 137.107 81.5179 137.522 82.1559 137.677L112.671 145.121C113.748 145.381 114.86 144.854 115.341 143.856L117.169 140.061L132.715 143.532C133.396 143.684 134.109 143.525 134.662 143.1C135.215 142.674 135.551 142.025 135.579 141.328L137.027 103.653L146.92 90.4312L146.948 90.0977L146.127 89.1169Z" fill="black"/>
<path d="M46.9756 75.791L43.4569 136.046C43.3897 137.198 44.1679 138.228 45.2942 138.479L138.74 159.23C139.403 159.375 140.096 159.227 140.642 158.823C141.187 158.42 141.532 157.8 141.588 157.124L147.064 90.2346L95.2121 115.666L46.9756 75.791Z" fill="#DCDFED"/>
<path opacity="0.1" d="M44.1001 137.425L92.6465 107.474C94.1306 106.574 96.0473 106.874 97.1854 108.184L140.636 158.86C140.794 159.041 140.871 158.911 140.636 158.86L44.1001 137.425C43.8594 137.569 43.8238 137.363 44.1001 137.425Z" fill="black"/>
<path d="M44.4474 137.376L92.4926 108.352C94.0606 107.405 96.0826 107.723 97.2841 109.106L140.342 158.625C140.489 158.794 140.51 159.038 140.396 159.23C140.282 159.422 140.057 159.52 139.839 159.472L44.6033 138.325C44.3958 138.28 44.2368 138.113 44.2024 137.903C44.168 137.694 44.2652 137.484 44.4474 137.376Z" fill="#E3E5F1"/>
<defs>
<linearGradient id="paint0_linear_81_11001" x1="196.491" y1="158.353" x2="196.491" y2="36.0856" gradientUnits="userSpaceOnUse">
<stop stop-color="#808080" stop-opacity="0.25"/>
<stop offset="0.54" stop-color="#808080" stop-opacity="0.12"/>
<stop offset="1" stop-color="#808080" stop-opacity="0.1"/>
</linearGradient>
</defs>
</svg>
