<svg width="230" height="160" viewBox="0 0 230 160" fill="none" xmlns="http://www.w3.org/2000/svg">
<path d="M22.9909 27.1833C29.1949 27.1833 34.2242 22.154 34.2242 15.95C34.2242 9.74609 29.1949 4.7168 22.9909 4.7168C16.787 4.7168 11.7577 9.74609 11.7577 15.95C11.7577 22.154 16.787 27.1833 22.9909 27.1833Z" fill="#30BE76"/>
<path opacity="0.1" d="M21.6185 38.8173C26.3351 49.4706 20.3185 61.738 13.2365 70.9754C10.8661 74.0731 8.24928 77.3205 7.92067 81.2059C7.5244 85.9587 10.7429 90.3273 14.5606 93.1834C21.5243 98.388 31.0347 99.9972 39.3225 97.3708C46.4843 95.1019 52.5057 89.977 59.7303 87.9111C71.8117 84.451 84.6179 90.1872 94.9644 97.3345C102.288 102.387 110.131 108.544 118.96 107.461C125.173 106.7 130.445 102.339 134.023 97.204C135.751 94.7249 137.254 91.9462 139.769 90.2742C141.265 89.2787 143.022 88.7519 144.778 88.375C160.82 84.9463 177.845 93.3138 193.674 89.0105C204.366 86.1109 212.89 77.654 218.192 67.9237C223.493 58.1934 225.967 47.2066 228.028 36.3213C229.493 28.5892 230.708 20.2362 227.342 13.1251C223.781 5.59601 215.536 1.03167 207.251 0.176313C198.965 -0.679046 190.656 1.68165 183.023 5.01127C173.486 9.18175 164.137 15.0195 153.728 15.0388C146.639 15.0533 139.878 12.3326 133.1 10.257C121.768 6.78964 109.984 5.06684 98.2408 3.47694C86.9979 1.95469 75.6439 0.538754 64.3333 1.43761C56.3306 2.07309 49.263 5.13208 41.4972 6.54802C36.4351 7.47103 31.3488 6.78964 26.381 8.33606C20.263 10.2497 13.971 14.6836 13.6327 21.6666C13.3138 28.3138 19.1177 33.1656 21.6185 38.8173Z" fill="#30BE76"/>
<path d="M145.44 48.3039C144.409 45.6146 141.748 39.2936 139.996 40.5477C137.783 42.1328 142.21 49.1351 142.21 49.1351C142.335 50.4206 139.847 53.0954 138.513 54.4292C138.513 54.3228 138.513 54.2624 138.513 54.2624C138.5 54.3131 138.481 54.3619 138.455 54.4074L138.344 54.347C138.314 54.4536 138.26 54.5519 138.187 54.6345C138.187 54.4533 138.175 54.347 138.175 54.347C137.918 55.4319 133.448 56.8068 133.448 56.8068C133.448 56.8068 133.327 56.8068 133.12 56.8068C131.878 56.8068 128.645 56.5265 127.147 54.1295C126.372 52.831 125.381 51.6747 124.216 50.7105C123.817 50.398 123.332 50.2142 122.826 50.1838C118.687 49.918 115.336 47.8231 114.667 47.3761L114.543 47.2915L114.517 47.3688C114.36 47.1441 114.208 46.9049 114.065 46.6584L113.993 46.5255C116.035 45.5 117.329 43.4135 117.339 41.1276C117.339 41.0865 117.339 41.043 117.339 41.0019C117.703 40.3726 117.895 39.6583 117.895 38.9312V38.2063L118.84 37.3655C119.272 36.9813 119.719 36.5753 119.939 36.0462C120.027 35.832 120.067 35.6009 120.055 35.3696C120.098 34.9667 119.93 34.5701 119.61 34.321C118.885 33.8208 117.677 34.321 117.153 33.6251C116.911 33.311 116.955 32.8833 116.836 32.5136C116.595 31.7621 115.725 31.3562 114.92 31.3441C114.116 31.332 113.345 31.6244 112.572 31.8443C110.947 32.3055 109.252 32.4644 107.57 32.313C107.115 32.2321 106.648 32.2485 106.2 32.3614C105.645 32.5908 105.232 33.0708 105.089 33.6541C105.029 33.8702 104.993 34.0922 104.982 34.3161C104.308 35.0765 103.935 36.057 103.934 37.0731V38.9312C103.935 39.9231 104.291 40.882 104.936 41.635C105.091 43.4046 106.016 45.0166 107.466 46.0423C107.466 46.0906 107.466 46.1397 107.466 46.1897L107.498 46.209C107.458 46.785 107.37 47.3566 107.232 47.9173V47.7941C107.232 47.7941 103.849 49.5942 100.225 49.6377H99.8259C99.111 49.6136 98.4157 49.8743 97.8929 50.3626C96.8201 51.3726 94.9402 52.9697 93.7852 52.9697C93.5436 52.9697 87.445 54.1609 86.4349 54.3591L84.5478 52.5106L84.4899 52.6194L84.3787 52.5106C84.1723 52.5266 83.9673 52.5564 83.765 52.6C82.7985 51.4547 80.8654 48.792 80.4184 45.2183C80.4184 45.2183 84.5913 40.4655 83.057 36.0365C81.7474 32.2623 78.1399 40.352 77.1154 42.79C76.9362 43.2154 76.9139 43.6907 77.0526 44.131L80.4426 55.0574C80.1198 55.9041 80.0273 56.8212 80.1744 57.7153H80.1357L82.6052 60.883C82.6052 60.883 84.4633 61.6755 87.37 61.661C89.5005 61.6645 91.6118 61.2593 93.5895 60.4674H94.1622L94.0534 60.5085H96.994L98.8642 66.165C98.8014 66.6796 97.8977 73.8632 97.1729 75.47C96.9578 76.0069 96.8605 76.5837 96.8877 77.1614C96.9258 78.2714 97.1069 79.3718 97.4266 80.4355L99.0648 80.3751L99.002 80.5031C97.615 83.3471 95.2978 88.414 93.9278 93.1499L91.5429 97.9824L93.331 119.656H93.4035L93.5412 119.678C93.7345 119.707 94.0245 119.751 94.4062 119.799L94.2661 120.041L90.3251 126.564C90.3251 126.564 87.515 132.318 93.7321 131.233C93.7321 131.233 96.03 130.566 96.9675 126.642L101.056 122.807C101.056 122.807 101.247 120.26 100.089 119.243C100.017 118.066 99.8332 114.631 100.116 113.804C100.457 112.804 98.6661 101.3 98.6661 101.3C98.6661 101.3 105.137 87.8776 109.056 87.5441C109.343 87.5239 109.632 87.5617 109.904 87.6553C113.125 88.7039 117.027 96.4916 118.175 98.9151L118.228 99.0262V99.048L118.272 99.1422V99.1688L118.31 99.251V99.2727L118.344 99.3476V99.3645L118.373 99.4249V99.4491L118.395 99.495V99.5143L118.409 99.5482V99.5675V99.5892L118.422 99.6182L118.931 114.708L118.982 114.734H119.006L118.963 115.046L118.74 116.605C118.74 116.605 121.551 122.524 121.379 123.274C121.207 124.023 123.252 127.026 126.146 126.192C129.041 125.359 127.318 120.659 127.318 120.659L124.53 114.913L124.407 114.657C124.684 114.487 124.946 114.292 125.189 114.075C125.189 114.075 124.339 107.906 125.189 106.572C126.04 105.238 126.296 99.1519 126.296 99.1519C126.296 99.1519 125.699 94.9838 124.677 93.1499L120.396 77.867C121.679 79.0606 122.677 79.5269 123.51 79.4955H123.648C124.014 79.5024 124.376 79.4124 124.697 79.2346C124.869 79.1375 125.031 79.0233 125.18 78.8939C125.208 78.8693 125.235 78.8427 125.26 78.8141C126.451 77.8138 123.897 73.8946 122.449 71.5653C121.055 69.3182 122.976 63.2123 123.121 62.758C123.25 62.6634 123.389 62.5824 123.534 62.5164C123.834 62.388 124.156 62.3183 124.482 62.311C125.868 62.3593 127.574 63.1567 129.686 63.5578C131.154 63.8075 132.641 63.9231 134.13 63.9033H134.217C134.809 63.9033 135.345 63.8913 135.78 63.8743C136.177 63.8587 136.565 63.7538 136.916 63.5675C137.216 63.3922 137.488 63.1722 137.723 62.9151L141.429 58.7277L141.333 58.7736C141.512 58.2987 141.512 57.7746 141.333 57.2997L145.249 50.5341C145.65 49.8588 145.72 49.0375 145.44 48.3039Z" fill="url(#paint0_linear_0_1396)"/>
<path d="M101.435 122.235L97.4893 126.016C96.5856 129.882 94.3651 130.537 94.3651 130.537C88.3655 131.605 91.0765 125.946 91.0765 125.946L94.8822 119.507L95.3509 118.712C95.3509 118.712 98.0644 117.89 99.8718 118.383C100.1 118.446 100.311 118.56 100.488 118.717C101.621 119.7 101.435 122.235 101.435 122.235Z" fill="#444176"/>
<path d="M125.765 125.605C122.969 126.427 120.997 123.469 121.174 122.728C121.35 121.986 118.62 116.16 118.62 116.16L118.832 114.623L119.03 113.2L123.621 113.529L124.054 114.437L126.746 120.103C126.746 120.103 128.56 124.784 125.765 125.605Z" fill="#444176"/>
<path opacity="0.1" d="M100.531 119.359C100.099 120.1 96.5929 119.726 94.8846 119.494L95.3534 118.699C95.3534 118.699 98.0669 117.877 99.8742 118.37C100.102 118.433 100.313 118.547 100.49 118.704C100.515 119.105 100.531 119.359 100.531 119.359Z" fill="black"/>
<path opacity="0.1" d="M124.059 114.432C121.708 115.998 119.204 114.814 118.827 114.618L119.026 113.195L123.616 113.524L124.059 114.432Z" fill="black"/>
<path d="M124.697 106.207C123.875 107.521 124.697 113.605 124.697 113.605C121.983 116.072 118.779 114.263 118.779 114.263L118.296 99.3855C118.296 99.3855 112.953 87.1375 109.172 87.4661C105.391 87.7947 99.1445 101.029 99.1445 101.029C99.1445 101.029 100.87 112.371 100.541 113.352C100.212 114.333 100.541 119.105 100.541 119.105C99.966 120.091 93.9664 119.105 93.9664 119.105L92.2412 97.7328L94.5318 92.9631C95.8487 88.2949 98.0862 83.298 99.4248 80.4951C100.089 79.101 100.534 78.2504 100.534 78.2504L104.907 77.3395L119.103 74.3965L124.204 92.9631C125.189 94.7705 125.765 98.8805 125.765 98.8805C125.765 98.8805 125.518 104.892 124.697 106.207Z" fill="#565387"/>
<g opacity="0.1">
<path d="M120.094 114.263L119.61 99.3859C119.61 99.3859 114.268 87.1378 110.486 87.4665C110.317 87.4829 110.151 87.5203 109.991 87.5776C113.678 88.8027 118.296 99.3859 118.296 99.3859L118.779 114.263C119.787 114.776 120.924 114.984 122.048 114.86C121.367 114.778 120.705 114.576 120.094 114.263Z" fill="black"/>
<path d="M95.2712 119.113L93.546 97.7409L95.8463 92.964C97.1632 88.2957 99.4006 83.2989 100.739 80.496C101.404 79.1018 101.848 78.2513 101.848 78.2513L106.222 77.3404L119.18 74.6462L119.11 74.3877L104.907 77.3404L100.534 78.2513C100.534 78.2513 100.089 79.1018 99.4248 80.496C98.0814 83.2989 95.8487 88.3054 94.5319 92.964L92.2316 97.7313L93.9568 119.103C93.9568 119.103 97.2332 119.642 99.1759 119.524C97.8683 119.453 96.565 119.316 95.2712 119.113Z" fill="black"/>
</g>
<path d="M85.2751 52.9043C85.2751 52.9043 80.5899 53.1459 81.2472 58.0824L82.5616 58.2467L84.5333 56.1107L85.5191 54.3033V53.8926L85.2751 52.9043Z" fill="#CED2DF"/>
<path opacity="0.1" d="M85.2751 52.9043C85.2751 52.9043 80.5899 53.1459 81.2472 58.0824L82.5616 58.2467L84.5333 56.1107L85.5191 54.3033V53.8926L85.2751 52.9043Z" fill="black"/>
<path d="M137.396 54.7119C137.396 54.7119 141.262 56.7657 140.274 59.1506L139.042 59.6339L137.399 58.7302L137.157 56.5942L137.322 55.1154L137.396 54.7119Z" fill="#CED2DF"/>
<path opacity="0.1" d="M137.396 54.7119C137.396 54.7119 141.262 56.7657 140.274 59.1506L139.042 59.6339L137.399 58.7302L137.157 56.5942L137.322 55.1154L137.396 54.7119Z" fill="black"/>
<rect x="104.19" y="33.5039" width="13.4804" height="10.1918" rx="5.09591" fill="#030F09"/>
<path d="M85.2437 53.6025L82.366 58.1934L82.1243 57.3767L78.2148 44.6382C78.0811 44.2039 78.1025 43.7367 78.2752 43.3165C79.2635 40.9147 82.7477 32.9265 84.0114 36.6596C85.4902 41.0089 81.4623 45.7013 81.4623 45.7013C81.9214 49.5094 84.0598 52.2687 84.9006 53.2256C85.1133 53.4745 85.2437 53.6025 85.2437 53.6025Z" fill="#EC8C9C"/>
<path d="M136.78 55.5741C136.78 55.5741 141.301 51.2998 141.13 49.5745C141.13 49.5745 136.855 42.6713 138.994 41.1176C140.685 39.8805 143.253 46.1145 144.249 48.7651C144.515 49.4798 144.453 50.2757 144.077 50.9397L138.675 60.5058L136.78 55.5741Z" fill="#EC8C9C"/>
<path d="M107.517 43.6571C107.517 43.6571 108.338 48.9173 105.956 50.8914C103.573 52.8655 112.779 52.8534 112.779 52.8534L116.068 49.8114C116.068 49.8114 112.287 46.2764 113.437 43.6475L107.517 43.6571Z" fill="#EC8C9C"/>
<path opacity="0.1" d="M107.353 49.6567C107.353 49.6567 110.888 52.2881 114.42 49.3281L120.173 61.2476L119.845 75.7959C119.845 75.7959 107.925 81.9598 102.994 78.1808C98.0619 74.4018 102.172 72.4277 102.172 72.4277L101.022 61.25L102.254 54.0157C102.254 54.0157 104.472 50.5628 104.639 50.5628C104.806 50.5628 107.353 49.6567 107.353 49.6567Z" fill="black"/>
<path d="M107.353 49.4927C107.353 49.4927 110.888 52.1288 114.423 49.1641L120.176 61.0835L119.847 75.6319C119.847 75.6319 107.928 81.7958 102.996 78.0167C98.0644 74.2377 102.174 72.2636 102.174 72.2636L101.024 61.0859L102.257 53.8516C102.257 53.8516 104.475 50.3988 104.641 50.3988C104.808 50.3988 107.353 49.4927 107.353 49.4927Z" fill="#EBF1F6"/>
<path opacity="0.1" d="M107.353 48.2627C107.353 48.2627 104.001 50.1715 100.362 50.0773C99.6728 50.0557 99.0035 50.3116 98.5042 50.7877C97.4676 51.7832 95.653 53.3586 94.5294 53.3586C94.2878 53.3586 87.2951 54.7552 87.2951 54.7552L85.4467 52.9068C85.4467 52.9068 82.6921 58.2902 81.3777 58.0438L83.7625 61.168C83.7625 61.168 88.2834 63.1397 94.2008 60.7572H97.6537L99.461 66.3461C99.461 66.3461 98.5574 73.909 97.818 75.552C97.0786 77.1951 98.0596 80.4015 98.0596 80.4015L104.552 80.1599C104.552 80.1599 104.881 76.9535 105.374 76.5355C105.867 76.1175 103.648 61.9871 103.648 61.9871C103.648 61.9871 102.17 54.0134 107.594 51.1381L107.353 48.2627Z" fill="black"/>
<path opacity="0.1" d="M104.905 77.3496C104.666 78.3247 104.495 79.3154 104.395 80.3144L99.4248 80.5028C100.089 79.1087 100.534 78.2581 100.534 78.2581L104.905 77.3496Z" fill="black"/>
<path opacity="0.1" d="M85.2437 53.602L82.3659 58.1929L82.1243 57.3762C83.1802 56.3276 84.4173 54.136 84.9102 53.2227C85.1132 53.4739 85.2437 53.602 85.2437 53.602Z" fill="black"/>
<path d="M107.353 48.2627C107.353 48.2627 103.834 50.1715 100.198 50.0773C99.5084 50.0557 98.8391 50.3116 98.3398 50.7877C97.3032 51.7832 95.4886 53.3586 94.3651 53.3586C94.1234 53.3586 87.1307 54.7552 87.1307 54.7552L85.2751 52.9043C85.2751 52.9043 82.5205 58.2878 81.2061 58.0413L83.5909 61.1656C83.5909 61.1656 88.1118 63.1372 94.0292 60.7548H97.482L99.2894 66.3412C99.2894 66.3412 98.3857 73.9041 97.6464 75.5472C96.907 77.1903 97.888 80.3967 97.888 80.3967L104.38 80.155C104.38 80.155 104.709 76.9486 105.202 76.5306C105.695 76.1126 103.477 61.9823 103.477 61.9823C103.477 61.9823 101.998 54.0086 107.423 51.1332L107.353 48.2627Z" fill="#FFD800"/>
<path opacity="0.1" d="M114.423 47.7646C114.423 47.7646 117.776 50.3211 122.254 50.6158C122.744 50.6466 123.212 50.828 123.595 51.1353C124.724 52.0933 125.681 53.2374 126.424 54.5181C128.232 57.4781 132.67 57.1494 132.67 57.1494C132.67 57.1494 136.986 55.7939 137.232 54.7332C137.232 54.7332 137.355 60.5322 140.069 59.1308L136.5 63.2433C136.045 63.7683 135.394 64.0822 134.7 64.1107C133.359 64.1639 131.03 64.1808 129.063 63.799C126.103 63.2239 123.967 61.8273 122.406 63.0596C122.406 63.0596 120.352 69.47 121.749 71.7727C123.145 74.0754 125.615 77.9366 124.462 78.9249C123.31 79.9131 121.913 79.8285 119.613 77.4461C117.312 75.0637 117.064 71.0357 117.064 71.0357L117.639 60.6796C117.639 60.6796 115.42 52.8702 113.289 51.3093L114.423 47.7646Z" fill="black"/>
<path opacity="0.1" d="M140.395 59.0272L136.817 63.1566C136.579 63.4306 136.284 63.6498 135.954 63.7994C135.66 63.932 135.343 64.0066 135.021 64.0192C133.68 64.0748 131.351 64.0917 129.384 63.7075C126.615 63.1687 124.566 61.9122 123.034 62.7604C122.926 62.8202 122.822 62.8889 122.725 62.9657C122.725 62.9657 120.671 69.3761 122.068 71.6788C123.464 73.9815 125.934 77.8427 124.781 78.831C124.588 79.0006 124.372 79.1414 124.138 79.249C123.104 79.7153 121.821 79.3118 119.932 77.3522C117.631 74.9674 117.382 70.9418 117.382 70.9418L117.958 60.5857C117.958 60.5857 115.739 52.7763 113.608 51.2154L114.548 47.8447C115.196 48.2845 118.429 50.3504 122.425 50.6138C122.915 50.6445 123.384 50.826 123.766 51.1333C124.895 52.0913 125.852 53.2354 126.596 54.516C128.403 57.476 132.842 57.1474 132.842 57.1474C133.906 56.8079 134.945 56.3945 135.952 55.9102C136.582 55.601 137.138 55.2627 137.401 54.9437C137.475 54.8604 137.529 54.7612 137.558 54.6538C137.558 54.6538 137.684 60.4238 140.395 59.0272Z" fill="black"/>
<path d="M140.231 59.1095L136.655 63.2438C136.458 63.4707 136.222 63.6605 135.959 63.8044C135.621 63.9877 135.246 64.0911 134.862 64.1064C133.521 64.162 131.192 64.1789 129.225 63.7947C126.555 63.2752 124.552 62.0864 123.041 62.7654C122.869 62.8405 122.707 62.9371 122.558 63.0529C122.558 63.0529 120.504 69.4633 121.901 71.766C123.298 74.0687 125.767 77.9299 124.614 78.9181C124.465 79.0464 124.303 79.159 124.131 79.254C123.068 79.8411 121.754 79.4956 119.76 77.4394C117.46 75.0545 117.211 71.029 117.211 71.029L117.786 60.6729C117.786 60.6729 115.568 52.8635 113.437 51.3026L114.423 47.7676L114.541 47.8497C115.189 48.2895 118.422 50.3554 122.418 50.6188C122.908 50.6495 123.376 50.831 123.759 51.1383C124.888 52.0964 125.845 53.2404 126.589 54.5211C128.396 57.481 132.835 57.1524 132.835 57.1524C133.899 56.8129 134.938 56.3995 135.944 55.9152C136.691 55.5335 137.3 55.1155 137.394 54.7337C137.394 54.7337 137.394 54.8086 137.394 54.9415C137.467 55.9394 137.829 60.3443 140.231 59.1095Z" fill="#FFD800"/>
<path opacity="0.1" d="M113.509 43.7803H107.469C107.601 44.7407 107.639 45.7119 107.582 46.6798C109.461 48.0021 111.917 48.1787 113.966 47.1389C113.386 46.0661 113.033 44.8483 113.509 43.7803Z" fill="black"/>
<path d="M111.134 47.6828C114.447 47.6828 117.134 44.9967 117.134 41.6832C117.134 38.3697 114.447 35.6836 111.134 35.6836C107.821 35.6836 105.134 38.3697 105.134 41.6832C105.134 44.9967 107.821 47.6828 111.134 47.6828Z" fill="#EC8C9C"/>
<path opacity="0.1" d="M109.887 40.6154C110.557 40.5356 111.226 40.2988 111.885 40.4317C112.485 40.5526 112.995 40.9657 113.594 41.0914C114.749 41.333 115.822 40.4825 116.694 39.6899L118.579 37.9744C118.997 37.595 119.427 37.1964 119.642 36.6744C119.857 36.1525 119.782 35.4663 119.323 35.1377C118.634 34.6544 117.448 35.1377 116.95 34.4515C116.725 34.1422 116.759 33.7266 116.643 33.3569C116.401 32.6175 115.57 32.214 114.792 32.2043C114.014 32.1947 113.27 32.4798 112.526 32.6876C110.958 33.1424 109.319 33.2989 107.693 33.1491C107.255 33.0688 106.804 33.0844 106.372 33.195C105.832 33.4253 105.434 33.8978 105.299 34.4684C104.927 35.7828 105.562 37.9019 106.2 39.0786C106.838 40.2554 108.614 40.7724 109.887 40.6154Z" fill="black"/>
<path d="M109.887 40.4503C110.557 40.3706 111.226 40.1338 111.885 40.2667C112.485 40.3875 112.995 40.8007 113.594 40.9263C114.749 41.168 115.822 40.3174 116.694 39.5249L118.579 37.8094C118.997 37.43 119.427 37.0313 119.642 36.5094C119.857 35.9875 119.782 35.3013 119.323 34.9727C118.634 34.4894 117.448 34.9727 116.95 34.2864C116.725 33.9771 116.759 33.5616 116.643 33.1919C116.401 32.4525 115.57 32.049 114.792 32.0393C114.014 32.0296 113.27 32.3148 112.526 32.5226C110.958 32.9773 109.319 33.1339 107.693 32.9841C107.255 32.9037 106.804 32.9194 106.372 33.03C105.832 33.2602 105.434 33.7327 105.299 34.3033C104.927 35.6178 105.562 37.7369 106.2 38.9136C106.838 40.0903 108.614 40.5953 109.887 40.4503Z" fill="#030F09"/>
<path opacity="0.1" d="M99.4224 66.3848C99.4224 66.3848 100.737 66.5491 101.394 67.3706C102.051 68.1921 103.201 68.4386 103.201 68.4386" fill="black"/>
<path opacity="0.1" d="M87.585 55.5332C87.585 55.5332 88.6578 57.9277 87.9958 58.1694C87.3337 58.411 87.585 60.141 87.585 60.141" fill="black"/>
<g opacity="0.1">
<path d="M87.9548 54.7118C87.9548 54.7118 94.9402 53.3152 95.1818 53.3152C96.3078 53.3152 98.12 51.7398 99.1566 50.7443C99.4718 50.4423 99.8597 50.2267 100.283 50.1184H100.193C99.5037 50.0969 98.8343 50.3528 98.3351 50.8288C97.2985 51.8243 95.4839 53.3997 94.3603 53.3997C94.1646 53.3997 89.6945 54.2865 87.8799 54.6465L87.9548 54.7118Z" fill="black"/>
<path d="M107.362 48.6086V48.3018C105.682 49.1586 103.874 49.7372 102.008 50.0149C103.859 49.8502 105.669 49.3747 107.362 48.6086Z" fill="black"/>
<path d="M98.7241 80.3552C98.7241 80.3552 97.7383 77.1488 98.4825 75.5058C99.2267 73.8627 100.126 66.2998 100.126 66.2998L98.323 60.7109H94.8605L94.6503 60.7931H97.4894L99.2895 66.3843C99.2895 66.3843 98.3858 73.9473 97.6464 75.5903C96.9071 77.2334 97.8881 80.4398 97.8881 80.4398L104.381 80.1982V80.1474L98.7241 80.3552Z" fill="black"/>
</g>
<g opacity="0.1">
<path d="M124.697 77.6029C124.547 77.7313 124.386 77.8438 124.213 77.9388C123.15 78.5259 121.836 78.1804 119.842 76.1242C118.016 74.2322 117.484 71.2916 117.341 70.1777L117.293 71.0283C117.293 71.0283 117.535 75.0562 119.842 77.4386C121.836 79.5021 123.15 79.8404 124.213 79.2532C124.386 79.1583 124.547 79.0457 124.697 78.9174C125.042 78.6202 125.061 78.062 124.88 77.3661C124.835 77.4565 124.773 77.5369 124.697 77.6029Z" fill="black"/>
<path d="M139.068 59.2327L136.742 61.922C136.545 62.1489 136.309 62.3387 136.046 62.4825C135.708 62.6659 135.333 62.7693 134.949 62.7846C133.608 62.8401 131.278 62.8571 129.312 62.4729C126.642 61.9534 124.638 60.7646 123.128 61.4435C122.956 61.5187 122.793 61.6153 122.645 61.7311C122.645 61.7311 121.319 65.8726 121.521 68.6924C121.679 66.0562 122.645 63.0455 122.645 63.0455C122.793 62.9297 122.956 62.8331 123.128 62.758C124.641 62.079 126.642 63.2678 129.312 63.7873C131.278 64.1691 133.605 64.1522 134.949 64.099C135.333 64.0837 135.708 63.9804 136.046 63.797C136.309 63.6553 136.544 63.468 136.742 63.2437L140.32 59.1143C139.945 59.348 139.481 59.3919 139.068 59.2327Z" fill="black"/>
</g>
<path d="M33.9873 88.829C34.0462 88.886 34.1355 88.8978 34.2072 88.858C34.1329 88.8593 34.0588 88.8495 33.9873 88.829Z" fill="url(#paint1_linear_0_1396)"/>
<path fill-rule="evenodd" clip-rule="evenodd" d="M58.6116 48.8035C58.1766 48.6779 57.5557 48.4725 56.809 48.2115C57.5849 47.2133 58.1527 46.0696 58.4787 44.8481L58.4159 44.8722L58.426 44.8374L58.426 44.8374C58.4443 44.7746 58.4624 44.7128 58.4787 44.6475C57.0458 45.2299 55.4608 44.244 54.4508 42.9779C54.0132 42.4294 53.6374 41.8238 53.2619 41.2188C52.7706 40.4272 52.28 39.6367 51.6527 38.9765C51.1915 38.5132 50.6956 38.0859 50.1691 37.6983L50.1265 37.6667C49.8124 37.4335 49.4753 37.1832 49.0939 37.1716C48.715 37.1602 48.3844 37.374 48.0502 37.59C47.8155 37.7417 47.579 37.8946 47.3228 37.9714C46.9142 38.0633 46.4887 38.0475 46.088 37.9255C45.4721 37.7843 44.8654 37.597 44.2589 37.4097C43.2882 37.11 42.3179 36.8105 41.3111 36.7004C40.4359 36.5923 39.5476 36.6925 38.7184 36.9928C38.1863 37.1947 37.8418 37.5263 37.4845 37.8701C37.2901 38.0572 37.092 38.2478 36.8579 38.4232C36.2782 38.8503 35.2565 38.9281 34.4392 38.9903C34.2345 39.0059 34.0427 39.0205 33.8738 39.0394C32.8505 39.1563 31.8201 39.1991 30.7906 39.1674C30.199 39.1161 29.6033 39.138 29.0171 39.2327C27.7921 39.5009 26.8086 40.4746 25.8904 41.4073C25.6398 41.6183 25.4594 41.9007 25.3734 42.2168C25.3616 42.3058 25.3616 42.396 25.3734 42.485C25.3641 42.7286 25.4061 42.9714 25.4966 43.1978C25.7792 44.0365 26.1786 44.8312 26.683 45.5585C26.7621 45.6718 26.8441 45.7838 26.9261 45.8958L26.9262 45.8959C27.2323 46.3142 27.5398 46.7342 27.7075 47.2354C27.8083 47.5478 27.8612 47.8736 27.8645 48.2019C27.8541 48.5504 27.8178 48.8977 27.7558 49.2409C27.5937 50.1896 27.3271 51.1174 26.9609 52.0075C26.7335 52.4644 26.5771 52.9532 26.4969 53.4573C26.49 53.5602 26.49 53.6636 26.4969 53.7665C26.4635 54.6493 26.9416 55.395 27.4281 56.1538C27.8205 56.7659 28.2183 57.3864 28.3575 58.0941C28.3831 58.2256 28.3984 58.3589 28.4034 58.4928C28.3695 59.481 27.8065 60.4475 26.9754 60.8317C27.0478 60.8607 27.1227 60.8849 27.1976 60.909C27.1262 60.9539 27.0519 60.9943 26.9754 61.0298C27.1276 61.0878 27.2822 61.1386 27.4393 61.1796C26.4946 62.0024 25.7007 62.9836 25.0931 64.0792C22.2975 69.2838 3.36357 79.4781 3.36357 79.4781L3.64385 79.6375L3.41672 79.7849C1.77849 80.8747 -2.06579 84.0521 1.4088 88.0703C1.4088 88.0703 4.12227 83.7887 6.02388 81.9644C6.06895 81.9206 6.11403 81.8789 6.15727 81.8389C6.19516 81.8038 6.23165 81.77 6.26551 81.7373C6.34996 81.8673 6.37624 82.0268 6.33799 82.177L18.7866 75.1819C18.7866 75.1819 23.2108 72.0843 24.4455 71.386C25.3146 70.8445 26.2603 70.4372 27.2508 70.1778L27.1058 70.2382C27.5713 70.1102 28.0512 70.042 28.5338 70.0353C30.7375 70.0691 33.1248 71.6832 33.91 78.0742C34.9635 86.6326 34.4755 88.1766 34.1372 88.3868C34.0955 88.3838 34.0542 88.3765 34.0139 88.3651C34.0244 88.3742 34.0357 88.3823 34.0478 88.3893C34.0019 88.386 33.9566 88.3779 33.9125 88.3651C33.962 88.4105 34.0315 88.427 34.0961 88.4086C34.1423 88.4226 34.1923 88.4165 34.2338 88.3917C34.2894 88.3949 34.345 88.3949 34.4005 88.3917C34.4005 88.4706 34.3949 88.5512 34.3836 88.6333C34.3667 88.6333 34.2846 88.6792 34.3836 88.684C34.3571 89.1673 34.3595 89.6916 34.3836 90.2401C33.2891 90.3005 32.1945 90.3658 31.2425 90.4238L31.3271 89.9719L31.3657 89.769C32.2066 89.7013 33.0039 89.4548 33.0982 88.7734C33.3036 87.2754 31.2473 86.4756 29.4979 86.3765C27.7486 86.2774 17.2571 86.9757 17.2571 86.9757C17.2571 86.9757 15.6841 89.0127 20.6737 89.6336C20.8219 89.711 20.9758 89.7915 21.1352 89.8753C23.09 90.9892 25.7406 93.0406 27.0116 94.0506L27.188 94.1907L26.6177 94.6546C29.2811 95.2574 31.8689 104.125 33.5855 110.008C33.8576 110.94 34.1078 111.797 34.3329 112.535C35.9784 117.926 39.5786 117.73 42.5627 116.93C45.3393 116.186 45.699 108.173 45.7488 107.065L45.7498 107.043V106.939L50.7225 113.081L51.0994 113.547C51.2444 113.623 51.3877 113.694 51.5295 113.76C55.294 115.551 59.4524 112.117 58.2709 108.203C57.0748 104.257 55.2191 98.4216 53.982 95.9546C52.9454 93.8887 51.6068 90.4576 50.7949 88.3095C50.9004 88.2672 51.0029 88.218 51.1018 88.1621C51.1018 88.1621 51.0825 88.0655 51.0511 87.8891L51.1018 87.8625C51.1018 87.8625 49.8937 81.6479 49.8405 77.2309V76.9893V76.8467C50.7394 76.6414 51.3096 76.5616 51.3096 76.5616L51.3265 76.3683L51.2226 76.3901L51.7228 70.6659C51.7228 70.6659 53.5592 66.7588 52.1529 65.1327C51.7254 64.6571 51.4399 64.0711 51.3289 63.4413C51.0873 61.9456 51.3289 59.4496 54.603 57.3764C59.6433 54.1797 61.6102 51.5774 61.6102 51.5774C61.6102 51.5774 61.6971 49.712 58.6116 48.8035ZM48.601 52.7759V50.13C49.044 50.1083 49.4914 50.1213 49.9395 50.1342C50.4372 50.1487 50.9358 50.1631 51.4304 50.13C51.8918 50.0978 52.349 50.0209 52.7956 49.9005L53.0227 50.0576C51.6476 51.1153 50.1656 52.0264 48.601 52.7759ZM35.4154 95.0388C35.0505 94.7706 34.6784 94.5048 34.3087 94.2487C34.9219 95.224 35.4406 96.2556 35.8576 97.3295C35.8431 97.2642 35.6425 96.3436 35.4154 95.0388Z" fill="url(#paint2_linear_0_1396)"/>
<path d="M42.2969 92.0742L42.0794 93.2558L41.9127 94.1595L41.6082 95.8122L38.6556 97.8781C38.6556 97.8781 38.3898 97.651 37.95 97.2909C36.7419 96.2954 34.1975 94.2754 32.3298 93.1833C31.8498 92.8768 31.3304 92.637 30.7858 92.4705L42.2969 92.0742Z" fill="#FFBDC6"/>
<path opacity="0.1" d="M42.297 92.0742L42.0795 93.2558C41.4287 93.292 40.7758 93.2588 40.132 93.1567L33.2432 93.2558C32.917 93.2364 32.6126 93.2099 32.3274 93.1809C31.8475 92.8744 31.328 92.6346 30.7834 92.4681L42.297 92.0742Z" fill="black"/>
<path d="M40.132 92.9634C40.132 92.9634 43.5776 93.553 43.7733 92.0766C43.969 90.6003 42.0022 89.8222 40.3325 89.7111C38.6629 89.5999 28.6184 90.3055 28.6184 90.3055C28.6184 90.3055 26.8473 92.6662 33.2432 93.06L40.132 92.9634Z" fill="#7679B4"/>
<path opacity="0.1" d="M42.2969 92.0742L42.0794 93.2558L41.9127 94.1595L41.6082 95.8122L38.6556 97.8781C38.6556 97.8781 38.3898 97.651 37.95 97.2909C36.7419 96.2954 34.1975 94.2754 32.3298 93.1833C31.8498 92.8768 31.3304 92.637 30.7858 92.4705L42.2969 92.0742Z" fill="black"/>
<path opacity="0.1" d="M42.297 92.0742L42.0795 93.2558C41.4287 93.292 40.7758 93.2588 40.132 93.1567L33.2432 93.2558C32.917 93.2364 32.6126 93.2099 32.3274 93.1809C31.8475 92.8744 31.328 92.6346 30.7834 92.4681L42.297 92.0742Z" fill="black"/>
<path opacity="0.1" d="M40.132 92.9634C40.132 92.9634 43.5776 93.553 43.7733 92.0766C43.969 90.6003 42.0022 89.8222 40.3325 89.7111C38.6629 89.5999 28.6184 90.3055 28.6184 90.3055C28.6184 90.3055 26.8473 92.6662 33.2432 93.06L40.132 92.9634Z" fill="black"/>
<rect x="29.6501" y="44.4424" width="18.0085" height="21.355" fill="#A66477"/>
<rect opacity="0.1" x="29.6501" y="44.4424" width="18.0085" height="21.355" fill="black"/>
<path d="M8.54163 81.003C8.24443 81.0779 7.86749 81.3631 7.44465 81.7787C5.6252 83.5764 3.03012 87.7928 3.03012 87.7928C-0.294665 83.8349 3.38531 80.7058 4.96314 79.6306C5.34491 79.3696 5.60103 79.2295 5.60103 79.2295L8.54163 81.003Z" fill="#FFBDC6"/>
<path d="M42.1012 51.1836C42.1012 51.1836 42.988 57.3837 46.0373 58.8601C49.0867 60.3364 42.1012 63.091 42.1012 63.091L32.5546 59.5487C32.5546 59.5487 37.967 57.7776 36.8845 52.5609L42.1012 51.1836Z" fill="#FFBDC6"/>
<path d="M31.8755 88.4814L31.658 89.663L31.4913 90.5667L31.1869 92.2194L28.2342 94.2853C28.2342 94.2853 27.9684 94.0582 27.5286 93.6982C26.3205 92.7027 23.7762 90.6827 21.9084 89.5905C21.4284 89.284 20.909 89.0442 20.3644 88.8777L31.8755 88.4814Z" fill="#FFBDC6"/>
<path opacity="0.1" d="M31.8756 88.4814L31.6581 89.663C31.0073 89.6992 30.3544 89.666 29.7106 89.5639L22.8218 89.663C22.4956 89.6437 22.1912 89.6171 21.9061 89.5881C21.4261 89.2816 20.9067 89.0418 20.3621 88.8753L31.8756 88.4814Z" fill="black"/>
<path d="M29.7009 89.3681C29.7009 89.3681 33.1465 89.9577 33.3422 88.4814C33.5379 87.005 31.5711 86.2173 29.8966 86.1207C28.2222 86.024 18.185 86.7102 18.185 86.7102C18.185 86.7102 16.4138 89.0709 22.8097 89.4648L29.7009 89.3681Z" fill="#7679B4"/>
<path opacity="0.1" d="M31.4817 90.5691L31.1773 92.2218L28.2246 94.2877C28.2246 94.2877 27.9588 94.0606 27.519 93.7006L31.4237 90.499L31.4817 90.5691Z" fill="black"/>
<path d="M50.964 113.099C50.8287 113.033 50.6918 112.963 50.5533 112.889L50.1933 112.429L45.438 106.389V106.495C45.4066 107.498 45.0635 115.496 42.3911 116.233C39.5375 117.02 36.0919 117.216 34.5189 111.903C32.9459 106.589 30.0899 94.9767 27.1372 94.2881L31.5155 90.6951C31.5155 90.6951 34.415 94.0779 35.599 97.335C35.5555 97.1272 33.5524 87.7738 35.2051 86.1211H49.5723C49.5723 86.1211 51.7856 92.4372 53.3127 95.5687C54.4966 97.9995 56.2726 103.745 57.4203 107.633C58.556 111.48 54.5884 114.863 50.964 113.099Z" fill="#7679B4"/>
<path opacity="0.1" d="M50.5629 87.8889C48.3472 89.201 38.6048 88.667 35.4298 88.4544L34.5672 88.3915C34.473 88.3915 34.5817 88.3384 34.5817 88.3384L34.6711 87.4444L37.0318 81.4423L49.6786 74.1162C49.4225 74.887 49.3355 76.0686 49.3572 77.4241C49.42 81.7685 50.5629 87.8889 50.5629 87.8889Z" fill="black"/>
<path d="M50.5629 87.597C48.3472 88.909 38.6048 88.375 35.4299 88.1624L34.5672 88.0996H34.4247L34.5817 88.0585L35.3598 87.8531L37.0318 81.1601L49.6786 73.8291C49.4225 74.5999 49.3355 75.7814 49.3572 77.137C49.4201 81.4742 50.5629 87.597 50.5629 87.597Z" fill="#F2F1F2"/>
<path opacity="0.1" d="M49.3573 77.1276C46.7864 77.7196 41.1275 79.4617 38.9528 83.6515C37.5031 86.4495 36.2949 87.6504 35.4323 88.153L34.5697 88.0902L34.5842 88.037L35.3622 87.8316L37.0343 81.1386L49.6811 73.8076C49.4201 74.6002 49.3355 75.772 49.3573 77.1276Z" fill="black"/>
<path opacity="0.1" d="M5.58894 79.2314L8.54163 81.0026C8.24443 81.0775 7.86749 81.3626 7.44464 81.7782C7.20301 81.0533 5.65177 80.0578 4.95105 79.6325C5.33282 79.3716 5.58894 79.2314 5.58894 79.2314Z" fill="black"/>
<path opacity="0.1" d="M34.0502 88.2128C33.9826 88.2505 33.8983 88.2397 33.8424 88.1862C33.9099 88.2053 33.98 88.2142 34.0502 88.2128Z" fill="black"/>
<path d="M40.7216 58.4665C40.7216 58.4665 38.0637 58.7613 36.1935 56.7945C36.1935 56.7945 28.3213 59.0585 25.6634 64.1762C23.0055 69.2938 4.89795 79.331 4.89795 79.331C4.89795 79.331 8.0391 81.1022 7.75156 81.9889L19.6589 75.1001C19.6589 75.1001 23.8898 72.0484 25.0714 71.3598C26.2529 70.6711 32.7479 66.4402 34.1251 77.9538C35.5024 89.4673 34.1251 88.1021 34.1251 88.1021C34.1251 88.1021 36.0944 88.7907 38.9577 83.2696C41.821 77.7484 50.6693 76.4798 50.6693 76.4798L51.1526 70.6808C51.1526 70.6808 52.9092 66.8341 51.5634 65.2297C51.1529 64.7576 50.8804 64.1816 50.7757 63.5649C50.5509 62.091 50.7757 59.6336 53.9168 57.5919C58.7493 54.4507 60.6099 51.8846 60.6099 51.8846C60.6099 51.8846 60.7089 50.0144 57.7563 49.1301C54.8036 48.2457 42.7971 43.4229 42.7971 43.4229L42.4033 45.0949L51.8509 51.788C51.8509 51.788 47.1271 55.625 43.394 55.5284C43.3795 55.5114 44.0681 58.3675 40.7216 58.4665Z" fill="#08E179"/>
<path opacity="0.1" d="M42.5458 53.8831C42.3131 53.0901 42.1315 52.283 42.0021 51.4668L36.7854 52.8537C37.0138 53.8492 36.9729 54.8875 36.667 55.862C38.8467 56.4435 41.1627 55.6629 42.5458 53.8807V53.8831Z" fill="black"/>
<path d="M38.2134 55.7602C41.312 55.7602 43.8239 53.2483 43.8239 50.1496C43.8239 47.051 41.312 44.5391 38.2134 44.5391C35.1147 44.5391 32.6028 47.051 32.6028 50.1496C32.6028 53.2483 35.1147 55.7602 38.2134 55.7602Z" fill="#FFBDC6"/>
<path opacity="0.1" d="M41.1952 37.3893C42.7512 37.5657 44.2324 38.235 45.7643 38.5974C46.1471 38.7175 46.5549 38.7333 46.9459 38.6434C47.5403 38.4597 48.0235 37.8363 48.6373 37.8556C49.0166 37.8556 49.3621 38.1263 49.6666 38.3751C50.1709 38.7578 50.6451 39.1787 51.0849 39.634C52.1409 40.7817 52.7981 42.3282 53.7622 43.575C54.7263 44.8218 56.2461 45.7931 57.6161 45.2204C56.6859 48.8448 53.6317 51.6163 50.3311 51.841C49.0142 51.9304 47.6732 51.6574 46.3901 52.044C46.0722 52.1736 45.7366 52.255 45.3946 52.2856C44.6697 52.2856 44.0705 51.6115 43.6114 50.9567C42.5386 49.4151 41.6784 47.6657 40.4703 46.2618C40.0716 45.7979 39.6004 45.3557 39.0374 45.2712C38.4744 45.1866 37.9549 45.4548 37.4523 45.7158C36.6236 46.1459 35.7755 46.5905 35.1327 47.325C34.49 48.0596 34.0841 49.159 34.3499 50.1545C34.4924 50.6909 34.821 51.1741 34.8331 51.7371C34.8331 52.6311 34.0551 53.2859 33.898 54.1534C33.8634 54.5196 33.8505 54.8875 33.8594 55.2552C33.7893 56.4488 33.0112 57.4298 32.1945 58.1765C31.878 58.4688 31.5252 58.7805 31.4334 59.2324C31.3706 59.5392 31.4334 59.8654 31.3923 60.1771C31.2739 60.9528 30.5007 61.3442 29.8169 61.4457C29.0183 61.5627 28.2029 61.466 27.4538 61.1654C28.4203 60.7136 28.9978 59.4257 28.7755 58.2659C28.4711 56.6687 26.8667 55.5234 27.002 53.8948C27.0777 53.3961 27.2275 52.9115 27.4466 52.4572C27.7967 51.5786 28.0511 50.6648 28.2053 49.7316C28.3634 49.0134 28.3476 48.2679 28.1594 47.557C27.954 46.9312 27.536 46.4334 27.1784 45.9042C26.6941 45.1848 26.3119 44.4018 26.0427 43.5774C25.9452 43.3337 25.9079 43.0701 25.934 42.809C26.0119 42.5009 26.1802 42.2232 26.4172 42.0116C27.2968 41.091 28.2391 40.1318 29.4086 39.866C29.9674 39.7729 30.5357 39.751 31.1 39.8007C32.0852 39.8321 33.0713 39.7901 34.0502 39.6751C34.8573 39.5809 36.2249 39.5929 36.9063 39.0662C37.5418 38.5829 37.9018 37.9668 38.6871 37.6575C39.4885 37.3641 40.3498 37.272 41.1952 37.3893Z" fill="black"/>
<path opacity="0.1" d="M44.3145 95.3213C44.3145 95.3213 47.5619 101.717 46.5785 103.686L44.3145 95.3213Z" fill="black"/>
<path opacity="0.1" d="M50.2029 112.429L45.4477 106.388V106.495C45.4477 106.495 45.1723 104.542 46.0784 105.2C48.0621 106.635 51.2371 108.988 51.3047 109.394C51.3724 109.8 50.662 111.429 50.2029 112.429Z" fill="black"/>
<g opacity="0.1">
<path d="M43.4737 55.5114C43.4737 55.5114 43.8748 57.1738 42.5773 58.005C44.5755 57.6619 44.6625 56.1082 44.6021 55.4316C44.2291 55.492 43.8515 55.5187 43.4737 55.5114Z" fill="black"/>
<path d="M6.08185 78.9369C6.08185 78.9369 24.1894 68.8997 26.8473 63.782C28.7537 60.1093 33.347 57.9081 35.7875 56.9561C34.0067 57.5529 28.0143 59.8411 25.7624 64.1759C23.1045 69.2935 4.99695 79.3307 4.99695 79.3307L6.08185 78.9369Z" fill="black"/>
<path d="M46.9966 54.7303C50.0773 53.7638 53.0228 51.379 53.0228 51.379L43.5752 44.6859L43.7902 43.7677L42.8865 43.4053L42.4927 45.0773L51.9403 51.7704C50.4242 52.9622 48.7631 53.9567 46.9966 54.7303Z" fill="black"/>
<path d="M47.057 77.4102C48.2642 76.9981 49.503 76.6853 50.7611 76.4751L50.7781 76.2842C49.5104 76.5626 48.2663 76.9391 47.057 77.4102Z" fill="black"/>
<path d="M35.6063 87.7198H35.5193C35.4517 87.7575 35.3674 87.7467 35.3115 87.6932C35.3791 87.7121 35.4491 87.7211 35.5193 87.7198C35.843 87.5313 36.3287 86.0623 35.3115 77.557C34.2241 68.4766 29.957 69.1894 27.6205 70.2333C30.0078 69.576 33.2939 70.1439 34.229 77.9508C35.2462 86.4561 34.7606 87.9276 34.4368 88.1137C34.8565 88.0981 35.2626 87.9613 35.6063 87.7198Z" fill="black"/>
<path d="M34.4369 88.1161C34.3667 88.1174 34.2967 88.1084 34.2291 88.0895C34.285 88.143 34.3693 88.1538 34.4369 88.1161Z" fill="black"/>
</g>
<path d="M41.1952 37.1989C42.7512 37.3753 44.2324 38.0446 45.7643 38.407C46.1471 38.5271 46.5549 38.5429 46.9459 38.4529C47.5403 38.2693 48.0235 37.6459 48.6373 37.6652C49.0166 37.6652 49.3621 37.9358 49.6666 38.1847C50.1709 38.5674 50.6451 38.9882 51.0849 39.4436C52.1409 40.5913 52.7981 42.1377 53.7622 43.3845C54.7263 44.6313 56.2461 45.6027 57.6161 45.03C56.6859 48.6544 53.6317 51.4259 50.3311 51.6506C49.0142 51.74 47.6732 51.4669 46.3901 51.8536C46.0722 51.9832 45.7366 52.0646 45.3946 52.0952C44.6697 52.0952 44.0705 51.421 43.6114 50.7662C42.5386 49.2247 41.6784 47.4753 40.4703 46.0714C40.0716 45.6075 39.6004 45.1653 39.0374 45.0807C38.4744 44.9962 37.9549 45.2644 37.4523 45.5253C36.6236 45.9554 35.7755 46.4 35.1327 47.1346C34.49 47.8691 34.0841 48.9685 34.3499 49.964C34.4924 50.5004 34.821 50.9837 34.8331 51.5467C34.8331 52.4407 34.0551 53.0955 33.898 53.963C33.8634 54.3291 33.8505 54.6971 33.8594 55.0648C33.7893 56.2584 33.0112 57.2394 32.1945 57.986C31.878 58.2784 31.5252 58.5901 31.4334 59.042C31.3706 59.3488 31.4334 59.675 31.3923 59.9867C31.2739 60.7623 30.5007 61.1538 29.8169 61.2553C29.0183 61.3723 28.2029 61.2756 27.4538 60.975C28.4203 60.5231 28.9978 59.2353 28.7755 58.0754C28.4711 56.4783 26.8667 55.333 27.002 53.7044C27.0777 53.2057 27.2275 52.7211 27.4466 52.2667C27.7967 51.3881 28.0511 50.4743 28.2053 49.5412C28.3634 48.823 28.3476 48.0774 28.1594 47.3665C27.954 46.7407 27.536 46.243 27.1784 45.7138C26.6941 44.9944 26.3119 44.2113 26.0427 43.3869C25.9452 43.1433 25.9079 42.8797 25.934 42.6186C26.0119 42.3105 26.1802 42.0328 26.4172 41.8212C27.2968 40.9006 28.2391 39.9413 29.4086 39.6756C29.9674 39.5825 30.5357 39.5606 31.1 39.6103C32.0852 39.6417 33.0713 39.5997 34.0502 39.4847C34.8573 39.3904 36.2249 39.4025 36.9063 38.8758C37.5418 38.3925 37.9018 37.7764 38.6871 37.4671C39.4885 37.1737 40.3498 37.0816 41.1952 37.1989Z" fill="#A66477"/>
<path fill-rule="evenodd" clip-rule="evenodd" d="M201.401 24.5154V24.6048C201.655 27.154 199.139 35.5384 199.06 35.5674C199.06 36.8674 197.636 38.8705 197.636 38.8705C197.636 38.8705 191.738 47.7744 190.417 48.9825C190.368 49.026 190.325 49.0719 190.281 49.1179L190.243 49.1613L190.158 49.2628L190.119 49.3136L190.04 49.4271L190.013 49.4682C189.981 49.5198 189.95 49.5721 189.921 49.6253L189.904 49.6615C189.883 49.705 189.861 49.7485 189.842 49.792L189.817 49.85L189.769 49.966L189.747 50.0215C189.73 50.0683 189.713 50.1158 189.699 50.1641V50.1931C189.68 50.2511 189.665 50.3091 189.651 50.3671V50.413C189.647 50.4275 189.643 50.442 189.639 50.4565C189.63 50.4855 189.622 50.5145 189.622 50.5434V50.599C189.607 50.6441 189.6 50.6884 189.6 50.7319V50.7754C189.583 50.8817 189.564 51.0098 189.564 51.1234V51.1572V51.2973V51.3263V51.8096C189.575 52.0699 189.605 52.3291 189.653 52.5852C189.983 53.2003 190.218 53.8618 190.349 54.5472C190.37 54.6584 190.388 54.7687 190.402 54.8782C190.745 57.4057 189.552 59.5465 188.911 60.484C188.829 60.6048 188.757 60.7039 188.696 60.7836L188.643 60.8513L188.6 60.9068L188.58 60.931V60.9455L188.561 60.9672C187.442 62.1705 188.561 73.4835 188.561 73.4835C188.416 73.5943 188.258 73.686 188.09 73.7566C188.099 73.8846 188.109 74.0151 188.121 74.1432C188.287 75.7694 188.653 77.369 189.211 78.9056C189.211 78.9056 189.409 79.3889 189.738 80.2032L189.779 80.2901C191.137 83.656 194.575 92.2918 195.783 96.5106C197.308 101.817 194.461 103.419 194.461 103.419L182.462 108.024C180.957 107.883 179.004 109.438 177.927 110.296C177.73 110.453 177.562 110.587 177.432 110.682C176.272 112.796 174.049 116.5 172.599 116.643C170.569 116.836 171.181 112.127 171.181 112.127C171.181 112.127 172.645 107.077 173.462 105.12C169.844 105.129 166.394 105.088 165.589 104.912C164.12 104.591 162.257 105.236 161.581 105.504C161.514 105.531 161.46 105.555 161.418 105.574C161.368 105.596 161.336 105.61 161.325 105.61L161.305 105.598C160.938 106.243 160.457 106.913 160.003 107.012C159.09 107.212 155.835 111.719 155.835 111.719C153.088 113.122 153.902 107.715 153.902 107.715C153.902 107.715 155.427 101.019 157.563 99.0162C159.268 97.4167 160.532 98.5185 160.96 99.0162C162.158 98.9848 167.399 98.7988 168.748 98.533C170.27 98.2334 178.002 97.8323 178.002 97.8323C178.002 97.8323 177.391 94.1402 173.324 84.7168C170.56 78.3233 172.582 74.5636 174.165 72.8094C174.271 72.691 174.375 72.5822 174.476 72.4832H174.452H174.404H174.37H174.329H174.298H174.266H174.218H174.194H174.167H174.15H174.124C176.26 70.8812 175.039 61.7694 175.039 61.7694C175.039 61.7694 171.391 56.1613 171.289 54.0591C171.188 51.957 162.849 41.4438 162.849 41.4438C161.731 40.8445 160.51 38.6409 160.51 38.6409L153.798 27.1274C153.937 27.1749 154.086 27.1817 154.228 27.1467L153.987 26.8519C152.29 24.7208 148.39 19.3736 151.147 18.4167C153.904 17.4599 156.079 22.6766 156.847 24.8295C156.896 24.96 156.939 25.0905 156.975 25.2016C157.205 24.9769 157.348 24.8247 157.348 24.8247L163.366 35.1373C163.627 36.0821 165.877 38.595 167.957 40.7696C168.059 39.808 168.629 38.81 169.224 37.9909C170.127 36.7441 171.159 35.2775 170.695 33.8156C170.623 33.5777 170.509 33.3506 170.397 33.1242C170.223 32.7758 170.05 32.4291 170.028 32.0469C169.965 30.8992 171.26 30.1091 172.425 30.0197C173.463 29.9435 174.466 30.1089 175.462 30.2733C176.52 30.4478 177.571 30.6211 178.649 30.5029C179.134 30.4503 179.632 30.3547 180.136 30.2581C181.553 29.9862 183.014 29.7059 184.335 30.3531C184.647 30.5037 184.956 30.7075 185.265 30.911C186.03 31.4161 186.793 31.9192 187.597 31.6023C187.587 31.6835 187.573 31.7641 187.556 31.8439C187.604 31.8311 187.652 31.8158 187.698 31.798C187.546 33.1705 186.244 34.1901 184.9 34.6202L184.678 34.6879L184.997 38.5974C185.002 38.916 185.064 39.231 185.181 39.5277C185.293 39.7407 185.44 39.8311 185.588 39.9219C185.675 39.9753 185.762 40.0288 185.843 40.1076C186.287 40.5353 186.408 41.6008 186.287 42.4804C186.196 43.1479 186.002 43.739 185.809 44.3305C185.747 44.5184 185.686 44.7062 185.628 44.8966L185.586 45.0344C186.104 44.887 186.72 44.7275 187.462 44.5511C190.441 43.826 192.849 38.5657 193.919 36.2275C194.197 35.6204 194.385 35.2103 194.469 35.1277C194.877 34.7266 198.335 24.4139 198.335 24.4139L198.376 24.4405L198.301 24.3148C197.465 22.9231 195.824 19.8302 196.912 18.6076C198.154 17.2158 201.251 21.9831 201.348 24.223V24.4236H201.386C201.401 24.4526 201.401 24.4864 201.401 24.5154ZM185.144 94.6162C185.277 96.3752 185.422 98.0763 185.567 99.4487C187.227 99.2941 187.445 98.202 187.445 98.202L185.144 94.6162Z" fill="url(#paint3_linear_0_1396)"/>
<path d="M161.583 98.6903C161.583 98.6903 160.206 96.5157 158.138 98.4946C156.069 100.474 154.595 107.055 154.595 107.055C154.595 107.055 153.808 112.371 156.466 110.992C156.466 110.992 159.607 106.563 160.501 106.367C161.395 106.171 162.371 103.709 162.371 103.709L161.583 98.6903Z" fill="#493545"/>
<path d="M176.344 104.003C176.344 104.003 174.474 103.116 173.885 103.807C173.295 104.498 171.326 111.385 171.326 111.385C171.326 111.385 170.736 115.913 172.703 115.715C174.67 115.517 178.115 108.427 178.115 108.427L176.344 104.003Z" fill="#493545"/>
<path opacity="0.05" d="M176.344 104.003C176.344 104.003 174.474 103.116 173.885 103.807C173.295 104.498 171.326 111.385 171.326 111.385C171.326 111.385 170.736 115.913 172.703 115.715C174.67 115.517 178.115 108.427 178.115 108.427L176.344 104.003Z" fill="black"/>
<path d="M182.839 90.6194L187.07 97.2134C187.07 97.2134 186.775 98.6898 184.217 98.395L175.458 103.906C175.458 103.906 174.696 110.616 177.13 110.008C177.523 109.908 180.271 107.055 182.247 107.253L193.862 102.725C193.862 102.725 196.617 101.15 195.141 95.9352C193.664 90.7209 188.783 78.6299 188.783 78.6299L181.068 82.9453L182.839 90.6194Z" fill="#FFD800"/>
<path opacity="0.05" d="M182.839 90.6194L187.07 97.2134C187.07 97.2134 186.775 98.6898 184.217 98.395L175.458 103.906C175.458 103.906 174.696 110.616 177.13 110.008C177.523 109.908 180.271 107.055 182.247 107.253L193.862 102.725C193.862 102.725 196.617 101.15 195.141 95.9352C193.664 90.7209 188.783 78.6299 188.783 78.6299L181.068 82.9453L182.839 90.6194Z" fill="black"/>
<path d="M185.497 100.362C186.087 104.103 182.743 104.397 182.743 104.397C182.743 104.397 167.684 104.692 165.913 104.298C164.142 103.904 161.779 104.987 161.779 104.987C158.727 103.117 161.189 98.492 161.189 98.492C161.189 98.492 167.489 98.2963 168.965 98.0087C170.441 97.7212 177.92 97.3128 177.92 97.3128C177.92 97.3128 177.33 93.6715 173.392 84.422C170.717 78.1397 172.667 74.4429 174.206 72.7201C174.599 72.2629 175.053 71.8628 175.557 71.5312L187.662 72.1208C187.649 72.7313 187.672 73.3421 187.73 73.9499C187.937 76.0369 188.479 78.0767 189.337 79.9906C188.648 79.9906 184.219 84.1248 184.219 84.1248C184.219 84.1248 184.905 96.6242 185.497 100.362Z" fill="#FFD800"/>
<path opacity="0.1" d="M162.074 98.8854C162.074 98.8854 168.373 98.6897 169.849 98.4022C171.326 98.1146 178.804 97.7135 178.804 97.7135C178.804 97.7135 178.214 94.0722 174.276 84.8227C171.601 78.5404 173.551 74.8435 175.09 73.1207C175.483 72.6636 175.938 72.2635 176.441 71.9319L187.657 72.478C187.657 72.362 187.657 72.2364 187.657 72.1277L175.552 71.5381C175.048 71.8696 174.594 72.2697 174.201 72.7269C172.669 74.4521 170.712 78.1466 173.387 84.4289C177.335 93.6711 177.92 97.3124 177.92 97.3124C177.92 97.3124 170.429 97.7063 168.965 98.0011C167.501 98.2959 161.189 98.4843 161.189 98.4843C161.189 98.4843 158.73 103.111 161.779 104.989C161.779 104.989 161.871 104.945 162.021 104.883C159.993 102.797 162.074 98.8854 162.074 98.8854Z" fill="black"/>
<rect x="173.981" y="35.4102" width="6.10108" height="15.4496" fill="#493545"/>
<rect opacity="0.1" x="173.981" y="35.4102" width="6.10108" height="15.4496" fill="black"/>
<path d="M183.571 33.1442C183.782 33.2022 184.018 33.2095 184.161 33.4994C184.249 33.7311 184.298 33.9763 184.303 34.2243L184.688 38.9988C184.693 39.3114 184.754 39.6206 184.866 39.9122C185.028 40.236 185.297 40.2746 185.507 40.4824C185.93 40.9029 186.053 41.9563 185.937 42.8141C185.821 43.6719 185.528 44.4064 185.299 45.1821C184.97 46.2936 184.753 47.5428 184.291 48.4803C183.83 49.4178 182.991 49.93 182.45 49.1423C181.909 48.3546 181.981 46.7647 181.88 45.4624C181.711 43.2877 180.863 41.4127 180.805 39.2235C180.756 37.4524 181.232 35.7997 181.53 34.1204C181.742 32.9678 181.754 31.5688 182.064 30.5322C182.322 31.7645 182.815 32.9364 183.571 33.1442Z" fill="#493545"/>
<path opacity="0.1" d="M183.571 33.1442C183.782 33.2022 184.018 33.2095 184.161 33.4994C184.249 33.7311 184.298 33.9763 184.303 34.2243L184.688 38.9988C184.693 39.3114 184.754 39.6206 184.866 39.9122C185.028 40.236 185.297 40.2746 185.507 40.4824C185.93 40.9029 186.053 41.9563 185.937 42.8141C185.821 43.6719 185.528 44.4064 185.299 45.1821C184.97 46.2936 184.753 47.5428 184.291 48.4803C183.83 49.4178 182.991 49.93 182.45 49.1423C181.909 48.3546 181.981 46.7647 181.88 45.4624C181.711 43.2877 180.863 41.4127 180.805 39.2235C180.756 37.4524 181.232 35.7997 181.53 34.1204C181.742 32.9678 181.754 31.5688 182.064 30.5322C182.322 31.7645 182.815 32.9364 183.571 33.1442Z" fill="black"/>
<path d="M157.744 26.3566L155.383 28.3258C155.383 28.3258 155.103 27.9972 154.685 27.4656C153.044 25.3707 149.272 20.1153 151.938 19.1754C154.603 18.2355 156.71 23.3604 157.454 25.477C157.642 26.0135 157.744 26.3566 157.744 26.3566Z" fill="#C77485"/>
<path d="M200.357 25.6682C199.374 27.1445 197.997 25.6682 197.997 25.6682C197.997 25.6682 197.82 25.4048 197.571 24.9796C196.762 23.6095 195.174 20.5723 196.225 19.369C197.434 17.9941 200.427 22.6865 200.519 24.8877C200.548 25.1584 200.491 25.4312 200.357 25.6682Z" fill="#C77485"/>
<path d="M176.146 41.6106C176.146 41.6106 178.115 47.9098 177.523 49.7776C176.931 51.6454 181.757 53.82 181.757 53.82H187.268C187.268 53.82 189.237 49.7848 188.745 48.6033C188.252 47.4217 184.021 46.5374 184.021 46.5374C184.021 46.5374 181.561 46.5374 181.66 39.9434L176.146 41.6106Z" fill="#C77485"/>
<path opacity="0.1" d="M157.744 26.3571L155.383 28.3263C155.383 28.3263 155.103 27.9977 154.685 27.4661C155.543 27.3139 156.874 26.0623 157.456 25.4775C157.642 26.014 157.744 26.3571 157.744 26.3571Z" fill="black"/>
<path opacity="0.1" d="M200.357 25.6676C199.374 27.1439 197.997 25.6676 197.997 25.6676C197.997 25.6676 197.82 25.4042 197.571 24.9789L197.603 24.8799C198.241 25.3366 200.224 24.9475 200.519 24.8799C200.549 25.1529 200.492 25.4285 200.357 25.6676Z" fill="black"/>
<path opacity="0.1" d="M187.725 73.9475C184.68 75.3368 174.788 72.8626 174.194 72.7152C174.587 72.258 175.041 71.8579 175.545 71.5264L187.65 72.1159C187.639 72.7274 187.664 73.3389 187.725 73.9475Z" fill="black"/>
<path d="M177.427 47.0232C177.427 47.0232 175.066 47.811 171.72 44.7592C171.72 44.7592 164.229 37.3775 163.746 35.6064L157.947 25.458C157.947 25.458 155.487 28.1159 154.501 27.7221L160.996 39.0399C160.996 39.0399 162.178 41.2145 163.26 41.7944C163.26 41.7944 171.331 52.1288 171.427 54.1947C171.524 56.2606 175.064 61.7939 175.064 61.7939C175.064 61.7939 176.245 70.7486 174.177 72.324C174.177 72.324 185.69 75.2767 188.15 73.3074C188.15 73.3074 187.068 62.1926 188.15 61.0062C188.15 61.0062 191.497 57.0701 189.233 52.7401C189.233 52.7401 188.749 50.3794 190.02 49.1979C191.291 48.0163 197.008 39.2574 197.008 39.2574C197.008 39.2574 198.386 37.2881 198.386 36.0099C198.386 36.0099 200.944 27.35 200.56 25.0859C200.56 25.0859 198.296 25.5692 197.607 25.0859C197.607 25.0859 194.261 35.2343 193.867 35.616C193.473 35.9978 190.726 43.9812 187.077 44.8679C183.429 45.7547 182.846 46.1461 182.846 46.1461C182.846 46.1461 189.931 50.5752 186.488 52.542C183.045 54.5089 177.427 47.0232 177.427 47.0232Z" fill="#5AA2CA"/>
<path opacity="0.1" d="M181.899 43.1257C181.782 42.1987 181.735 41.2642 181.757 40.3301L176.245 42.0021C176.39 42.3693 176.506 42.7474 176.591 43.133C177.221 43.4108 178.072 44.068 178.804 44.068C179.912 44.1043 181 43.7729 181.899 43.1257Z" fill="black"/>
<path d="M178.705 43.7754C181.531 43.7754 183.823 41.4841 183.823 38.6577C183.823 35.8313 181.531 33.54 178.705 33.54C175.879 33.54 173.587 35.8313 173.587 38.6577C173.587 41.4841 175.879 43.7754 178.705 43.7754Z" fill="#C77485"/>
<path opacity="0.1" d="M172.616 30.7733C171.49 30.8603 170.234 31.6383 170.296 32.7667C170.33 33.3877 170.755 33.912 170.941 34.5064C171.388 35.9441 170.393 37.3866 169.518 38.6141C168.644 39.8415 167.827 41.4677 168.576 42.7676C168.789 43.0806 169.02 43.3815 169.267 43.6689C170.192 44.9181 170.18 46.6047 170.591 48.1052C171.68 52.0911 175.695 54.531 179.734 53.6626C179.002 52.7277 178.637 51.5572 178.707 50.3716C178.763 49.5114 179.041 48.6126 178.707 47.8176C178.277 46.7956 177.016 46.392 176.366 45.498C175.716 44.604 175.76 43.3645 176.074 42.2989C176.388 41.2333 176.931 40.2451 177.192 39.1577C177.257 38.8405 177.337 38.5268 177.434 38.2178C177.888 36.9275 179.246 36.1785 180.575 35.8571C181.904 35.5357 183.301 35.5164 184.598 35.0936C185.896 34.6707 187.157 33.6801 187.307 32.3197C186.215 32.757 185.202 31.6166 184.149 31.0922C182.414 30.232 180.435 31.0415 178.647 31.2396C176.61 31.4667 174.677 30.6235 172.616 30.7733Z" fill="black"/>
<path d="M172.517 30.578C171.391 30.665 170.135 31.443 170.197 32.5714C170.231 33.1924 170.656 33.7167 170.842 34.3111C171.289 35.7488 170.294 37.1913 169.419 38.4188C168.545 39.6462 167.728 41.2724 168.477 42.5723C168.69 42.8853 168.921 43.1862 169.168 43.4736C170.093 44.7228 170.081 46.4094 170.492 47.9099C171.581 51.8958 175.596 54.3357 179.635 53.4673C178.903 52.5324 178.538 51.3619 178.608 50.1763C178.664 49.3161 178.942 48.4173 178.608 47.6223C178.178 46.6003 176.917 46.1967 176.267 45.3027C175.617 44.4087 175.661 43.1691 175.975 42.1036C176.289 41.038 176.832 40.0497 177.093 38.9624C177.158 38.6452 177.238 38.3315 177.335 38.0225C177.789 36.7322 179.147 35.9832 180.476 35.6618C181.805 35.3404 183.202 35.3211 184.499 34.8983C185.797 34.4754 187.058 33.4847 187.208 32.1244C186.116 32.5617 185.103 31.4212 184.05 30.8969C182.315 30.0367 180.336 30.8462 178.548 31.0443C176.516 31.269 174.59 30.4161 172.517 30.578Z" fill="#493545"/>
<path opacity="0.1" d="M183.774 50.0264C183.774 50.0264 185.823 51.8555 186.227 52.6625L183.774 50.0264Z" fill="black"/>
<path opacity="0.1" d="M188.208 60.9502C188.208 60.9502 185.649 60.9502 184.468 61.245C183.286 61.5398 180.433 61.245 180.433 61.245" fill="black"/>
<g opacity="0.1">
<path d="M186.481 52.5345C186.26 52.6608 186.021 52.7521 185.773 52.8052C186.414 52.9474 187.086 52.8512 187.662 52.5345C191.108 50.5653 184.021 46.1387 184.021 46.1387H182.839C182.839 46.1387 189.926 50.5677 186.481 52.5345Z" fill="black"/>
<path d="M200.577 25.2577C200.577 25.1949 200.563 25.1345 200.553 25.0789C200.148 25.1628 199.739 25.2249 199.328 25.265C199.743 25.3106 200.162 25.3082 200.577 25.2577Z" fill="black"/>
<path d="M175.361 72.3165C177.427 70.7411 176.248 61.7864 176.248 61.7864C176.248 61.7864 172.705 56.2749 172.606 54.209C172.507 52.1431 164.439 41.8087 164.439 41.8087C163.357 41.2191 162.175 39.0541 162.175 39.0541C162.175 39.0541 155.482 28.1302 154.499 27.7363L160.994 39.0541C160.994 39.0541 162.175 41.2288 163.258 41.8087C163.258 41.8087 171.328 52.1431 171.425 54.209C171.521 56.2749 175.064 61.7936 175.064 61.7936C175.064 61.7936 176.245 70.7483 174.177 72.3237C174.177 72.3237 181.254 74.1384 185.497 73.9741C181.244 73.8243 175.361 72.3165 175.361 72.3165Z" fill="black"/>
<path d="M177.485 47.1006L177.427 47.0257C177.359 47.0457 177.291 47.061 177.221 47.0717C177.313 47.0837 177.4 47.0934 177.485 47.1006Z" fill="black"/>
</g>
<g opacity="0.1">
<path d="M200.553 25.0664L200.492 25.0785C200.389 28.1012 198.291 35.2027 198.291 35.2027C198.291 36.4809 196.914 38.4501 196.914 38.4501C196.914 38.4501 191.207 47.2091 189.926 48.3907C188.646 49.5722 189.138 51.9329 189.138 51.9329L189.151 51.9571C189.112 51.1621 189.208 49.9298 190.023 49.1759C191.301 47.9944 197.011 39.2354 197.011 39.2354C197.011 39.2354 198.388 37.2662 198.388 35.9879C198.388 36.0024 200.947 27.3425 200.553 25.0664Z" fill="black"/>
<path d="M188.056 60.2113C188.203 61.0473 188.104 60.163 188.155 60.999C188.155 60.999 190.571 58.1647 189.912 54.6611C190.11 57.7926 188.056 60.2113 188.056 60.2113Z" fill="black"/>
</g>
<path opacity="0.1" d="M113.519 159.836C170.59 159.836 216.855 155.392 216.855 149.91C216.855 144.428 170.59 139.984 113.519 139.984C56.4476 139.984 10.1823 144.428 10.1823 149.91C10.1823 155.392 56.4476 159.836 113.519 159.836Z" fill="#30BE76"/>
<path d="M73.462 139.84C73.462 139.84 69.9439 127.891 74.1216 119.098C75.8984 115.421 76.4343 111.266 75.6487 107.259C75.2607 105.359 74.6993 103.499 73.9718 101.701" stroke="#535461" stroke-width="2"/>
<path d="M76.5765 96.148C76.5765 97.6123 73.9186 101.858 73.9186 101.858C73.9186 101.858 71.2607 97.6123 71.2607 96.148C71.1871 95.1542 71.6757 94.2028 72.5261 93.6835C73.3766 93.1641 74.4461 93.1641 75.2966 93.6835C76.147 94.2028 76.6355 95.1542 76.562 96.148H76.5765Z" fill="#30BE76"/>
<path d="M80.9524 104.258C80.1574 105.487 75.6245 107.609 75.6245 107.609C75.6245 107.609 75.7067 102.605 76.5016 101.375C76.9822 100.505 77.9083 99.9754 78.902 100.003C79.8958 100.031 80.7911 100.61 81.2227 101.506C81.6542 102.402 81.55 103.463 80.9524 104.258Z" fill="#30BE76"/>
<path d="M80.7615 118.119C79.4543 118.779 74.4792 118.322 74.4792 118.322C74.4792 118.322 77.0767 114.043 78.3839 113.383C79.2381 112.87 80.3074 112.878 81.1539 113.404C82.0004 113.929 82.4819 114.884 82.4013 115.877C82.3206 116.87 81.6914 117.735 80.7712 118.117L80.7615 118.119Z" fill="#30BE76"/>
<path d="M78.2559 128.572C77.0792 129.442 72.0872 129.836 72.0872 129.836C72.0872 129.836 73.9235 125.18 75.1027 124.308C76.2788 123.593 77.806 123.894 78.6225 125.002C79.439 126.11 79.2747 127.658 78.2438 128.57L78.2559 128.572Z" fill="#30BE76"/>
<path d="M70.0526 107.894C71.1037 108.914 75.9966 109.972 75.9966 109.972C75.9966 109.972 74.7885 105.113 73.7471 104.091C73.0847 103.348 72.0632 103.038 71.0997 103.286C70.1363 103.535 69.3924 104.301 69.1719 105.271C68.9514 106.241 69.2912 107.253 70.0526 107.894Z" fill="#30BE76"/>
<path d="M67.2811 120.159C68.5883 120.819 73.5634 120.362 73.5634 120.362C73.5634 120.362 70.9756 116.083 69.6684 115.435C68.3827 114.901 66.903 115.45 66.2761 116.693C65.6492 117.936 66.0876 119.452 67.2811 120.169V120.159Z" fill="#30BE76"/>
<path d="M66.218 132.447C67.3947 133.317 72.3867 133.711 72.3867 133.711C72.3867 133.711 70.5504 129.055 69.3712 128.183C68.6176 127.516 67.552 127.332 66.6185 127.708C65.685 128.083 65.0435 128.954 64.9613 129.956C64.8791 130.959 65.3702 131.922 66.2301 132.445L66.218 132.447Z" fill="#30BE76"/>
<path opacity="0.1" d="M76.5765 96.148C76.5765 97.6123 73.9186 101.858 73.9186 101.858C73.9186 101.858 71.2607 97.6123 71.2607 96.148C71.1871 95.1542 71.6757 94.2028 72.5261 93.6835C73.3766 93.1641 74.4461 93.1641 75.2966 93.6835C76.147 94.2028 76.6355 95.1542 76.562 96.148H76.5765Z" fill="#30BE76"/>
<path opacity="0.1" d="M80.9524 104.258C80.1574 105.487 75.6245 107.609 75.6245 107.609C75.6245 107.609 75.7067 102.605 76.5016 101.375C76.9822 100.505 77.9083 99.9754 78.902 100.003C79.8958 100.031 80.7911 100.61 81.2227 101.506C81.6542 102.402 81.55 103.463 80.9524 104.258Z" fill="#30BE76"/>
<path opacity="0.1" d="M80.7615 118.119C79.4543 118.779 74.4792 118.322 74.4792 118.322C74.4792 118.322 77.0767 114.043 78.3839 113.383C79.2381 112.87 80.3074 112.878 81.1539 113.404C82.0004 113.929 82.4819 114.884 82.4013 115.877C82.3206 116.87 81.6914 117.735 80.7712 118.117L80.7615 118.119Z" fill="#30BE76"/>
<path opacity="0.1" d="M78.2559 128.572C77.0792 129.442 72.0872 129.836 72.0872 129.836C72.0872 129.836 73.9235 125.18 75.1027 124.308C76.2788 123.593 77.806 123.894 78.6225 125.002C79.439 126.11 79.2747 127.658 78.2438 128.57L78.2559 128.572Z" fill="#30BE76"/>
<path opacity="0.1" d="M70.0526 107.894C71.1037 108.914 75.9966 109.972 75.9966 109.972C75.9966 109.972 74.7885 105.113 73.7471 104.091C73.0847 103.348 72.0632 103.038 71.0997 103.286C70.1363 103.535 69.3924 104.301 69.1719 105.271C68.9514 106.241 69.2912 107.253 70.0526 107.894Z" fill="#30BE76"/>
<path opacity="0.1" d="M67.2811 120.159C68.5883 120.819 73.5634 120.362 73.5634 120.362C73.5634 120.362 70.9756 116.083 69.6684 115.435C68.3827 114.901 66.903 115.45 66.2761 116.693C65.6492 117.936 66.0876 119.452 67.2811 120.169V120.159Z" fill="#30BE76"/>
<path opacity="0.1" d="M66.218 132.447C67.3947 133.317 72.3867 133.711 72.3867 133.711C72.3867 133.711 70.5504 129.055 69.3712 128.183C68.6176 127.516 67.552 127.332 66.6185 127.708C65.685 128.083 65.0435 128.954 64.9613 129.956C64.8791 130.959 65.3702 131.922 66.2301 132.445L66.218 132.447Z" fill="#30BE76"/>
<path d="M144.655 140.01C144.655 140.01 141.137 128.062 145.315 119.269C147.091 115.592 147.627 111.437 146.842 107.429C146.454 105.53 145.892 103.669 145.165 101.872" stroke="#535461" stroke-width="2"/>
<path d="M147.765 96.3172C147.765 97.7815 145.107 102.027 145.107 102.027C145.107 102.027 142.449 97.7815 142.449 96.3172C142.552 94.9292 143.708 93.8555 145.1 93.8555C146.491 93.8555 147.647 94.9292 147.75 96.3172H147.765Z" fill="#30BE76"/>
<path d="M152.148 104.426C151.353 105.656 146.82 107.778 146.82 107.778C146.82 107.778 146.902 102.774 147.697 101.544C148.178 100.674 149.104 100.144 150.097 100.172C151.091 100.2 151.987 100.779 152.418 101.675C152.85 102.57 152.745 103.632 152.148 104.426Z" fill="#30BE76"/>
<path d="M151.964 118.288C150.657 118.948 145.682 118.491 145.682 118.491C145.682 118.491 148.279 114.212 149.587 113.552C150.442 113.034 151.515 113.04 152.365 113.568C153.214 114.095 153.696 115.054 153.611 116.051C153.527 117.047 152.89 117.911 151.964 118.288Z" fill="#30BE76"/>
<path d="M149.449 128.741C148.272 129.611 143.28 130.005 143.28 130.005C143.28 130.005 145.116 125.349 146.296 124.477C147.472 123.762 148.999 124.063 149.815 125.171C150.632 126.279 150.468 127.827 149.437 128.739L149.449 128.741Z" fill="#30BE76"/>
<path d="M141.25 108.063C142.301 109.083 147.194 110.141 147.194 110.141C147.194 110.141 145.986 105.282 144.945 104.26C144.282 103.517 143.261 103.207 142.297 103.455C141.334 103.704 140.59 104.47 140.37 105.44C140.149 106.41 140.489 107.422 141.25 108.063Z" fill="#30BE76"/>
<path d="M138.474 120.328C139.781 120.988 144.756 120.531 144.756 120.531C144.756 120.531 142.159 116.252 140.852 115.592C139.566 115.059 138.086 115.607 137.459 116.85C136.833 118.093 137.271 119.609 138.464 120.326L138.474 120.328Z" fill="#30BE76"/>
<path d="M137.413 132.617C138.59 133.487 143.582 133.881 143.582 133.881C143.582 133.881 141.746 129.225 140.567 128.353C139.39 127.638 137.863 127.939 137.047 129.047C136.23 130.155 136.395 131.703 137.425 132.615L137.413 132.617Z" fill="#30BE76"/>
<path opacity="0.1" d="M147.765 96.3172C147.765 97.7815 145.107 102.027 145.107 102.027C145.107 102.027 142.449 97.7815 142.449 96.3172C142.552 94.9292 143.708 93.8555 145.1 93.8555C146.491 93.8555 147.647 94.9292 147.75 96.3172H147.765Z" fill="#30BE76"/>
<path opacity="0.1" d="M152.148 104.426C151.353 105.656 146.82 107.778 146.82 107.778C146.82 107.778 146.902 102.774 147.697 101.544C148.178 100.674 149.104 100.144 150.097 100.172C151.091 100.2 151.987 100.779 152.418 101.675C152.85 102.57 152.745 103.632 152.148 104.426Z" fill="#30BE76"/>
<path opacity="0.1" d="M151.964 118.288C150.657 118.948 145.682 118.491 145.682 118.491C145.682 118.491 148.279 114.212 149.587 113.552C150.442 113.034 151.515 113.04 152.365 113.568C153.214 114.095 153.696 115.054 153.611 116.051C153.527 117.047 152.89 117.911 151.964 118.288Z" fill="#30BE76"/>
<path opacity="0.1" d="M149.449 128.741C148.272 129.611 143.28 130.005 143.28 130.005C143.28 130.005 145.116 125.349 146.296 124.477C147.472 123.762 148.999 124.063 149.815 125.171C150.632 126.279 150.468 127.827 149.437 128.739L149.449 128.741Z" fill="#30BE76"/>
<path opacity="0.1" d="M141.25 108.063C142.301 109.083 147.194 110.141 147.194 110.141C147.194 110.141 145.986 105.282 144.945 104.26C144.282 103.517 143.261 103.207 142.297 103.455C141.334 103.704 140.59 104.47 140.37 105.44C140.149 106.41 140.489 107.422 141.25 108.063Z" fill="#30BE76"/>
<path opacity="0.1" d="M138.474 120.328C139.781 120.988 144.756 120.531 144.756 120.531C144.756 120.531 142.159 116.252 140.852 115.592C139.566 115.059 138.086 115.607 137.459 116.85C136.833 118.093 137.271 119.609 138.464 120.326L138.474 120.328Z" fill="#30BE76"/>
<path opacity="0.1" d="M137.413 132.617C138.59 133.487 143.582 133.881 143.582 133.881C143.582 133.881 141.746 129.225 140.567 128.353C139.39 127.638 137.863 127.939 137.047 129.047C136.23 130.155 136.395 131.703 137.425 132.615L137.413 132.617Z" fill="#30BE76"/>
<path opacity="0.5" d="M161.871 3.69445H160.353C160.745 3.71313 161.115 3.51491 161.316 3.17864C161.518 2.84238 161.518 2.42262 161.316 2.08636C161.115 1.75009 160.745 1.55187 160.353 1.57055H148.05C147.483 1.59759 147.037 2.06503 147.037 2.6325C147.037 3.19997 147.483 3.6674 148.05 3.69445H149.567C149 3.72149 148.555 4.18893 148.555 4.7564C148.555 5.32387 149 5.79131 149.567 5.81835H147.443C147.052 5.79967 146.682 5.99789 146.48 6.33416C146.279 6.67042 146.279 7.09018 146.48 7.42645C146.682 7.76271 147.052 7.96093 147.443 7.94225H159.737C160.129 7.96093 160.499 7.76271 160.7 7.42645C160.901 7.09018 160.901 6.67042 160.7 6.33416C160.499 5.99789 160.129 5.79967 159.737 5.81835H161.871C162.438 5.79131 162.883 5.32387 162.883 4.7564C162.883 4.18893 162.438 3.72149 161.871 3.69445Z" fill="#DEE3F3"/>
<path opacity="0.5" d="M90.7793 9.89016H89.6243C89.9236 9.90653 90.2075 9.75616 90.3621 9.49934C90.5166 9.24252 90.5166 8.92131 90.3621 8.66449C90.2075 8.40767 89.9236 8.2573 89.6243 8.27367H80.2685C79.8393 8.29715 79.5033 8.65205 79.5033 9.08192C79.5033 9.51179 79.8393 9.86668 80.2685 9.89016H81.4235C81.1242 9.87379 80.8404 10.0242 80.6858 10.281C80.5312 10.5378 80.5312 10.859 80.6858 11.1158C80.8404 11.3726 81.1242 11.523 81.4235 11.5066H79.807C79.5077 11.4903 79.2239 11.6406 79.0693 11.8975C78.9147 12.1543 78.9147 12.4755 79.0693 12.7323C79.2239 12.9891 79.5077 13.1395 79.807 13.1231H89.1628C89.4621 13.1395 89.746 12.9891 89.9005 12.7323C90.0551 12.4755 90.0551 12.1543 89.9005 11.8975C89.746 11.6406 89.4621 11.4903 89.1628 11.5066H90.7793C91.2085 11.4832 91.5445 11.1283 91.5445 10.6984C91.5445 10.2685 91.2085 9.91364 90.7793 9.89016Z" fill="#DEE3F3"/>
<path d="M12.2506 124.375C12.2506 124.375 16.479 132.675 13.0334 137.215C9.58785 141.755 13.3476 154.129 13.3476 154.129" stroke="#30BE76"/>
<path d="M13.5119 121.78C13.5119 123.38 12.3376 124.68 12.3376 124.68C12.3376 124.68 11.1633 123.382 11.1633 121.78C11.1633 120.178 12.3376 118.881 12.3376 118.881C12.3376 118.881 13.5119 120.181 13.5119 121.78Z" fill="#30BE76"/>
<path d="M14.4422 124.375C14.4422 124.375 10.2137 132.675 13.6593 137.215C17.1049 141.755 13.3452 154.129 13.3452 154.129" stroke="#30BE76"/>
<path d="M13.1906 121.78C13.1906 123.38 14.3649 124.68 14.3649 124.68C14.3649 124.68 15.5392 123.382 15.5392 121.78C15.5392 120.178 14.3649 118.881 14.3649 118.881C14.3649 118.881 13.1906 120.181 13.1906 121.78Z" fill="#30BE76"/>
<path opacity="0.1" d="M13.1906 121.78C13.1906 123.38 14.3649 124.68 14.3649 124.68C14.3649 124.68 15.5392 123.382 15.5392 121.78C15.5392 120.178 14.3649 118.881 14.3649 118.881C14.3649 118.881 13.1906 120.181 13.1906 121.78Z" fill="black"/>
<path d="M16.1698 124.375C16.1698 124.375 20.3982 132.675 16.9526 137.215C13.507 141.755 17.2668 154.129 17.2668 154.129" stroke="#30BE76"/>
<path d="M17.419 121.78C17.419 123.38 16.2447 124.68 16.2447 124.68C16.2447 124.68 15.0704 123.382 15.0704 121.78C15.0704 120.178 16.2447 118.881 16.2447 118.881C16.2447 118.881 17.419 120.181 17.419 121.78Z" fill="#30BE76"/>
<path d="M16.7594 128.43C15.6503 129.582 13.9033 129.703 13.9033 129.703C13.9033 129.703 13.9565 127.954 15.0655 126.804C16.1746 125.654 17.9216 125.53 17.9216 125.53C17.9216 125.53 17.8612 127.275 16.7594 128.43Z" fill="#30BE76"/>
<path d="M16.8706 134.156C15.7615 135.309 14.0145 135.43 14.0145 135.43C14.0145 135.43 14.0677 133.68 15.1768 132.53C16.2858 131.38 18.0328 131.257 18.0328 131.257C18.0328 131.257 17.9796 133.001 16.8706 134.156Z" fill="#30BE76"/>
<path d="M10.854 137.304C11.9026 138.512 11.8664 140.262 11.8664 140.262C11.8664 140.262 10.1291 140.051 9.08044 138.843C8.03178 137.635 8.06802 135.886 8.06802 135.886C8.06802 135.886 9.80532 136.096 10.854 137.304Z" fill="#30BE76"/>
<path d="M11.8205 125.099C13.1543 125.984 13.5868 127.68 13.5868 127.68C13.5868 127.68 11.8568 127.943 10.523 127.059C9.18923 126.175 8.75671 124.478 8.75671 124.478C8.75671 124.478 10.494 124.21 11.8205 125.099Z" fill="#30BE76"/>
<path opacity="0.1" d="M11.8205 125.099C13.1543 125.984 13.5868 127.68 13.5868 127.68C13.5868 127.68 11.8568 127.943 10.523 127.059C9.18923 126.175 8.75671 124.478 8.75671 124.478C8.75671 124.478 10.494 124.21 11.8205 125.099Z" fill="black"/>
<path d="M18.3565 124.375C18.3565 124.375 14.128 132.675 17.5736 137.215C21.0192 141.755 17.2595 154.129 17.2595 154.129" stroke="#30BE76"/>
<path d="M17.1049 121.78C17.1049 123.38 18.2792 124.68 18.2792 124.68C18.2792 124.68 19.4535 123.382 19.4535 121.78C19.4535 120.178 18.2792 118.881 18.2792 118.881C18.2792 118.881 17.1049 120.181 17.1049 121.78Z" fill="#30BE76"/>
<path opacity="0.1" d="M17.1049 121.78C17.1049 123.38 18.2792 124.68 18.2792 124.68C18.2792 124.68 19.4535 123.382 19.4535 121.78C19.4535 120.178 18.2792 118.881 18.2792 118.881C18.2792 118.881 17.1049 120.181 17.1049 121.78Z" fill="black"/>
<path d="M17.4431 128.553C16.3196 129.694 16.235 131.453 16.235 131.453C16.235 131.453 17.9819 131.353 19.1055 130.213C20.2291 129.073 20.3136 127.313 20.3136 127.313C20.3136 127.313 18.5667 127.413 17.4431 128.553Z" fill="#30BE76"/>
<path opacity="0.1" d="M17.4431 128.553C16.3196 129.694 16.235 131.453 16.235 131.453C16.235 131.453 17.9819 131.353 19.1055 130.213C20.2291 129.073 20.3136 127.313 20.3136 127.313C20.3136 127.313 18.5667 127.413 17.4431 128.553Z" fill="black"/>
<path d="M19.6444 136.481C18.5208 137.621 18.4363 139.38 18.4363 139.38C18.4363 139.38 20.1832 139.281 21.3068 138.141C22.4304 137 22.5149 135.241 22.5149 135.241C22.5149 135.241 20.7607 135.34 19.6444 136.481Z" fill="#30BE76"/>
<path d="M16.4114 134.739C16.4114 134.739 18.9557 130.728 22.5294 130.631" stroke="#30BE76"/>
<path d="M14.4228 132.315C14.4228 132.315 11.8785 128.304 8.30481 128.207" stroke="#30BE76"/>
<path d="M14.0918 138.041C14.0918 138.041 16.6361 134.03 20.2098 133.934" stroke="#30BE76"/>
<path d="M22.4062 131.269C22.7705 131.269 23.0659 130.973 23.0659 130.609C23.0659 130.245 22.7705 129.949 22.4062 129.949C22.0419 129.949 21.7466 130.245 21.7466 130.609C21.7466 130.973 22.0419 131.269 22.4062 131.269Z" fill="#30BE76"/>
<path d="M8.36765 128.9C8.73196 128.9 9.02729 128.605 9.02729 128.241C9.02729 127.876 8.73196 127.581 8.36765 127.581C8.00334 127.581 7.70801 127.876 7.70801 128.241C7.70801 128.605 8.00334 128.9 8.36765 128.9Z" fill="#30BE76"/>
<path d="M15.9644 139.356C15.9644 139.356 13.4201 135.345 9.84644 135.248" stroke="#30BE76"/>
<path d="M9.90928 135.946C10.2736 135.946 10.5689 135.651 10.5689 135.287C10.5689 134.922 10.2736 134.627 9.90928 134.627C9.54497 134.627 9.24963 134.922 9.24963 135.287C9.24963 135.651 9.54497 135.946 9.90928 135.946Z" fill="#30BE76"/>
<path d="M20.2582 134.627C20.6225 134.627 20.9178 134.332 20.9178 133.967C20.9178 133.603 20.6225 133.308 20.2582 133.308C19.8938 133.308 19.5985 133.603 19.5985 133.967C19.5985 134.332 19.8938 134.627 20.2582 134.627Z" fill="#30BE76"/>
<path d="M30.0344 149.299C30.0344 149.299 23.9019 148.071 22.2637 146.435C20.6254 144.799 13.2703 141.939 12.4512 143.983C11.6321 146.027 1.41127 152.979 8.36288 154.206C15.3145 155.433 24.7186 155.842 26.7628 155.023C28.8069 154.204 30.0344 149.299 30.0344 149.299Z" fill="#A8A8A8"/>
<path opacity="0.2" d="M8.36288 153.445C15.3145 154.672 24.7186 155.081 26.7628 154.261C28.3189 153.638 29.4013 150.637 29.829 149.255L30.0344 149.298C30.0344 149.298 28.8069 154.206 26.7628 155.023C24.7186 155.839 15.3145 155.431 8.36288 154.206C6.35738 153.851 5.78231 153.019 5.99977 151.968C6.16891 152.645 6.86963 153.181 8.36288 153.445Z" fill="black"/>
<path d="M216.22 126.255C216.22 126.255 218.245 128.913 215.285 132.9C212.325 136.886 209.885 140.272 210.873 142.765C210.873 142.765 215.338 135.34 218.972 135.236C222.606 135.132 220.219 130.718 216.22 126.255Z" fill="#30BE76"/>
<path opacity="0.1" d="M216.22 126.255C216.396 126.511 216.536 126.791 216.633 127.086C220.18 131.252 222.067 135.14 218.66 135.239C215.485 135.33 211.677 141.006 210.764 142.441C210.794 142.552 210.83 142.661 210.873 142.768C210.873 142.768 215.338 135.342 218.972 135.239C222.606 135.135 220.219 130.718 216.22 126.255Z" fill="black"/>
<path d="M219.985 129.628C219.985 130.56 219.881 131.319 219.743 131.319C219.605 131.319 219.501 130.563 219.501 129.628C219.501 128.692 219.632 129.144 219.76 129.144C219.888 129.144 219.985 128.697 219.985 129.628Z" fill="#FFD037"/>
<path d="M221.277 130.742C220.458 131.189 219.745 131.466 219.685 131.343C219.624 131.22 220.236 130.775 221.055 130.331C221.874 129.886 221.55 130.21 221.613 130.331C221.676 130.452 222.094 130.295 221.277 130.742Z" fill="#FFD037"/>
<path d="M205.526 126.255C205.526 126.255 203.501 128.913 206.461 132.9C209.421 136.886 211.861 140.272 210.873 142.765C210.873 142.765 206.408 135.34 202.773 135.236C199.139 135.132 201.527 130.718 205.526 126.255Z" fill="#30BE76"/>
<path opacity="0.1" d="M205.526 126.255C205.349 126.511 205.21 126.791 205.112 127.086C201.565 131.252 199.678 135.14 203.085 135.239C206.26 135.33 210.068 141.006 210.982 142.441C210.951 142.552 210.915 142.661 210.873 142.768C210.873 142.768 206.408 135.342 202.773 135.239C199.139 135.135 201.527 130.718 205.526 126.255Z" fill="black"/>
<path d="M201.761 129.628C201.761 130.56 201.865 131.319 202.003 131.319C202.14 131.319 202.244 130.563 202.244 129.628C202.244 128.692 202.114 129.144 201.986 129.144C201.858 129.144 201.761 128.697 201.761 129.628Z" fill="#FFD037"/>
<path d="M200.468 130.742C201.288 131.189 202 131.466 202.061 131.343C202.121 131.22 201.51 130.775 200.691 130.331C199.872 129.886 200.195 130.21 200.133 130.331C200.07 130.452 199.649 130.295 200.468 130.742Z" fill="#FFD037"/>
<path d="M202.406 142.417C202.406 142.417 208.068 142.243 209.773 141.028C211.479 139.813 218.472 138.37 218.905 140.303C219.337 142.236 227.412 149.995 221.021 150.045C214.63 150.096 206.171 149.05 204.467 148.013C202.764 146.977 202.406 142.417 202.406 142.417Z" fill="#A8A8A8"/>
<path opacity="0.2" d="M221.135 149.376C214.744 149.427 206.284 148.38 204.581 147.344C203.283 146.554 202.766 143.719 202.595 142.412H202.406C202.406 142.412 202.764 146.979 204.467 148.015C206.171 149.052 214.63 150.101 221.021 150.048C222.867 150.033 223.503 149.376 223.469 148.404C223.213 148.996 222.519 149.364 221.135 149.376Z" fill="black"/>
<path opacity="0.5" d="M42.9759 18.0304H41.4585C41.85 18.0491 42.22 17.8508 42.4213 17.5146C42.6226 17.1783 42.6226 16.7586 42.4213 16.4223C42.22 16.086 41.85 15.8878 41.4585 15.9065H29.1645C28.5977 15.9335 28.152 16.401 28.152 16.9684C28.152 17.5359 28.5977 18.0033 29.1645 18.0304H30.6819C30.1151 18.0574 29.6694 18.5249 29.6694 19.0923C29.6694 19.6598 30.1151 20.1272 30.6819 20.1543H28.558C27.9912 20.1813 27.5455 20.6488 27.5455 21.2162C27.5455 21.7837 27.9912 22.2511 28.558 22.2782H40.852C41.2435 22.2969 41.6135 22.0986 41.8148 21.7624C42.0162 21.4261 42.0162 21.0064 41.8148 20.6701C41.6135 20.3338 41.2435 20.1356 40.852 20.1543H42.9759C43.5427 20.1272 43.9884 19.6598 43.9884 19.0923C43.9884 18.5249 43.5427 18.0574 42.9759 18.0304Z" fill="#DEE3F3"/>
<defs>
<linearGradient id="paint0_linear_0_1396" x1="145.6" y1="131.383" x2="145.6" y2="31.3489" gradientUnits="userSpaceOnUse">
<stop stop-color="#808080" stop-opacity="0.25"/>
<stop offset="0.54" stop-color="#808080" stop-opacity="0.12"/>
<stop offset="1" stop-color="#808080" stop-opacity="0.1"/>
</linearGradient>
<linearGradient id="paint1_linear_0_1396" x1="34.1226" y1="88.8821" x2="34.1226" y2="88.829" gradientUnits="userSpaceOnUse">
<stop stop-color="#808080" stop-opacity="0.25"/>
<stop offset="0.54" stop-color="#808080" stop-opacity="0.12"/>
<stop offset="1" stop-color="#808080" stop-opacity="0.1"/>
</linearGradient>
<linearGradient id="paint2_linear_0_1396" x1="61.609" y1="117.368" x2="61.609" y2="36.6642" gradientUnits="userSpaceOnUse">
<stop stop-color="#808080" stop-opacity="0.25"/>
<stop offset="0.54" stop-color="#808080" stop-opacity="0.12"/>
<stop offset="1" stop-color="#808080" stop-opacity="0.1"/>
</linearGradient>
<linearGradient id="paint3_linear_0_1396" x1="201.416" y1="116.643" x2="201.416" y2="18.3008" gradientUnits="userSpaceOnUse">
<stop stop-color="#808080" stop-opacity="0.25"/>
<stop offset="0.54" stop-color="#808080" stop-opacity="0.12"/>
<stop offset="1" stop-color="#808080" stop-opacity="0.1"/>
</linearGradient>
</defs>
</svg>
